Courier Primal Bold Italic.ufo
<glyph name="exclam" format="1">
  <advance width="1228"/>
  <unicode hex="0021"/>
  <outline>
    <contour>
      <point x="882" y="1209" type="line" smooth="yes"/>
      <point x="905.0" y="1209.0" name="inserted"/>
      <point x="921.0" y="1184.0"/>
      <point x="914" y="1159" type="qcurve" smooth="yes"/>
      <point x="739" y="582" type="line" smooth="yes"/>
      <point x="728" y="544"/>
      <point x="671" y="504"/>
      <point x="632" y="504" type="qcurve" smooth="yes"/>
      <point x="593" y="504"/>
      <point x="551" y="544"/>
      <point x="553" y="582" type="qcurve" smooth="yes"/>
      <point x="582" y="1159" type="line" smooth="yes"/>
      <point x="583.5" y="1184.0" name="inserted"/>
      <point x="608.5" y="1209.0"/>
      <point x="632" y="1209" type="qcurve" smooth="yes"/>
    </contour>
    <contour>
      <point x="564" y="-22" type="qcurve" smooth="yes"/>
      <point x="528" y="-22"/>
      <point x="467" y="5"/>
      <point x="445.0" y="27.5" type="qcurve" smooth="yes" name="inserted"/>
      <point x="423" y="50"/>
      <point x="398" y="111"/>
      <point x="398" y="145" type="qcurve" smooth="yes"/>
      <point x="398" y="190"/>
      <point x="434" y="268"/>
      <point x="463.5" y="296.5" type="qcurve" smooth="yes" name="inserted"/>
      <point x="493" y="325"/>
      <point x="571" y="357"/>
      <point x="613" y="357" type="qcurve" smooth="yes"/>
      <point x="649" y="357"/>
      <point x="710" y="331"/>
      <point x="732.0" y="308.5" type="qcurve" smooth="yes" name="inserted"/>
      <point x="754" y="286"/>
      <point x="779" y="225"/>
      <point x="779" y="191" type="qcurve" smooth="yes"/>
      <point x="779" y="146"/>
      <point x="744" y="68"/>
      <point x="714.0" y="39.5" type="qcurve" smooth="yes" name="inserted"/>
      <point x="684" y="11"/>
      <point x="606" y="-22"/>
    </contour>
  </outline>
</glyph>
<glyph name="numbersign" format="1">
  <advance width="1228"/>
  <unicode hex="0023"/>
  <outline>
    <contour>
      <point x="523" y="940" type="line"/>
      <point x="639" y="1176" type="line" smooth="yes"/>
      <point x="647" y="1193"/>
      <point x="692" y="1209"/>
      <point x="718" y="1209" type="qcurve" smooth="yes"/>
      <point x="739" y="1209"/>
      <point x="781" y="1200"/>
      <point x="796.0" y="1191.0" type="qcurve" smooth="yes" name="inserted"/>
      <point x="811" y="1182"/>
      <point x="824" y="1157"/>
      <point x="817" y="1142" type="qcurve" smooth="yes"/>
      <point x="718" y="940" type="line"/>
      <point x="917" y="940" type="line"/>
      <point x="1033" y="1176" type="line" smooth="yes"/>
      <point x="1041" y="1193"/>
      <point x="1086" y="1209"/>
      <point x="1112" y="1209" type="qcurve" smooth="yes"/>
      <point x="1133" y="1209"/>
      <point x="1175" y="1200"/>
      <point x="1190.0" y="1191.0" type="qcurve" smooth="yes" name="inserted"/>
      <point x="1205" y="1182"/>
      <point x="1218" y="1157"/>
      <point x="1211" y="1142" type="qcurve" smooth="yes"/>
      <point x="1112" y="940" type="line"/>
      <point x="1220" y="940" type="line" smooth="yes"/>
      <point x="1237" y="940"/>
      <point x="1259" y="931"/>
      <point x="1264.5" y="919.0" type="qcurve" smooth="yes" name="inserted"/>
      <point x="1270" y="907"/>
      <point x="1269" y="863"/>
      <point x="1263" y="827" type="qcurve" smooth="yes"/>
      <point x="1257" y="791"/>
      <point x="1243" y="747"/>
      <point x="1233.0" y="735.0" type="qcurve" smooth="yes" name="inserted"/>
      <point x="1223" y="723"/>
      <point x="1198" y="715"/>
      <point x="1181" y="715" type="qcurve" smooth="yes"/>
      <point x="1001" y="715" type="line"/>
      <point x="887" y="482" type="line"/>
      <point x="1039" y="482" type="line" smooth="yes"/>
      <point x="1056" y="482"/>
      <point x="1078" y="473"/>
      <point x="1083.5" y="461.0" type="qcurve" smooth="yes" name="inserted"/>
      <point x="1089" y="449"/>
      <point x="1089" y="405"/>
      <point x="1083" y="369" type="qcurve" smooth="yes"/>
      <point x="1077" y="333"/>
      <point x="1062" y="289"/>
      <point x="1052.0" y="277.0" type="qcurve" smooth="yes" name="inserted"/>
      <point x="1042" y="265"/>
      <point x="1017" y="257"/>
      <point x="1000" y="257" type="qcurve" smooth="yes"/>
      <point x="777" y="257" type="line"/>
      <point x="657" y="11" type="line" smooth="yes"/>
      <point x="649" y="-6"/>
      <point x="604" y="-22"/>
      <point x="578" y="-22" type="qcurve" smooth="yes"/>
      <point x="557" y="-22"/>
      <point x="515" y="-13"/>
      <point x="500.0" y="-4.0" type="qcurve" smooth="yes" name="inserted"/>
      <point x="485" y="5"/>
      <point x="471" y="30"/>
      <point x="479" y="45" type="qcurve" smooth="yes"/>
      <point x="583" y="257" type="line"/>
      <point x="383" y="257" type="line"/>
      <point x="263" y="11" type="line" smooth="yes"/>
      <point x="255" y="-6"/>
      <point x="210" y="-22"/>
      <point x="184" y="-22" type="qcurve" smooth="yes"/>
      <point x="163" y="-22"/>
      <point x="121" y="-13"/>
      <point x="106.0" y="-4.0" type="qcurve" smooth="yes" name="inserted"/>
      <point x="91" y="5"/>
      <point x="77" y="30"/>
      <point x="85" y="45" type="qcurve" smooth="yes"/>
      <point x="189" y="257" type="line"/>
      <point x="78" y="257" type="line" smooth="yes"/>
      <point x="61" y="257"/>
      <point x="39" y="265"/>
      <point x="33.5" y="277.0" type="qcurve" smooth="yes" name="inserted"/>
      <point x="28" y="289"/>
      <point x="29" y="333"/>
      <point x="35" y="369" type="qcurve" smooth="yes"/>
      <point x="41" y="405"/>
      <point x="55" y="449"/>
      <point x="65.0" y="461.0" type="qcurve" smooth="yes" name="inserted"/>
      <point x="75" y="473"/>
      <point x="100" y="482"/>
      <point x="117" y="482" type="qcurve" smooth="yes"/>
      <point x="299" y="482" type="line"/>
      <point x="413" y="715" type="line"/>
      <point x="259" y="715" type="line" smooth="yes"/>
      <point x="242" y="715"/>
      <point x="220" y="723"/>
      <point x="214.5" y="735.0" type="qcurve" smooth="yes" name="inserted"/>
      <point x="209" y="747"/>
      <point x="209" y="791"/>
      <point x="215" y="827" type="qcurve" smooth="yes"/>
      <point x="221" y="863"/>
      <point x="236" y="907"/>
      <point x="246.0" y="919.0" type="qcurve" smooth="yes" name="inserted"/>
      <point x="256" y="931"/>
      <point x="281" y="940"/>
      <point x="298" y="940" type="qcurve" smooth="yes"/>
    </contour>
    <contour>
      <point x="493" y="482" type="line"/>
      <point x="693" y="482" type="line"/>
      <point x="807" y="715" type="line"/>
      <point x="607" y="715" type="line"/>
    </contour>
  </outline>
</glyph>
<glyph name="ampersand" format="1">
  <advance width="1228"/>
  <unicode hex="0026"/>
  <outline>
    <contour>
      <point x="990" y="440" type="line"/>
      <point x="967.0" y="396.5" name="inserted"/>
      <point x="921.5" y="319.5"/>
      <point x="899" y="286" type="qcurve"/>
      <point x="963" y="205" type="line"/>
      <point x="1050" y="205" type="line" smooth="yes"/>
      <point x="1067" y="205"/>
      <point x="1089" y="197"/>
      <point x="1094.5" y="185.5" type="qcurve" smooth="yes" name="inserted"/>
      <point x="1100" y="174"/>
      <point x="1100" y="134"/>
      <point x="1094" y="102" type="qcurve" smooth="yes"/>
      <point x="1088" y="70"/>
      <point x="1075" y="30"/>
      <point x="1065.5" y="19.0" type="qcurve" smooth="yes" name="inserted"/>
      <point x="1056" y="8"/>
      <point x="1031" y="0"/>
      <point x="1014" y="0" type="qcurve" smooth="yes"/>
      <point x="853" y="0" type="line" smooth="yes"/>
      <point x="832.5" y="0.0" name="inserted"/>
      <point x="799.0" y="16.5"/>
      <point x="786" y="33" type="qcurve" smooth="yes"/>
      <point x="735" y="98" type="line"/>
      <point x="661.5" y="38.0" name="inserted"/>
      <point x="495.0" y="-22.0"/>
      <point x="402" y="-22" type="qcurve" smooth="yes"/>
      <point x="331" y="-22"/>
      <point x="216" y="22"/>
      <point x="175.0" y="60.5" type="qcurve" smooth="yes" name="inserted"/>
      <point x="134" y="99"/>
      <point x="90" y="206"/>
      <point x="90" y="269" type="qcurve" smooth="yes"/>
      <point x="90" y="387"/>
      <point x="214" y="568"/>
      <point x="329" y="635" type="qcurve"/>
      <point x="307" y="678"/>
      <point x="281" y="770"/>
      <point x="281" y="819" type="qcurve" smooth="yes"/>
      <point x="281" y="887"/>
      <point x="334" y="1026"/>
      <point x="387.5" y="1082.0" type="qcurve" smooth="yes" name="inserted"/>
      <point x="441" y="1138"/>
      <point x="605" y="1209"/>
      <point x="716" y="1209" type="qcurve" smooth="yes"/>
      <point x="793" y="1209"/>
      <point x="957" y="1160"/>
      <point x="1035" y="1109" type="qcurve" smooth="yes"/>
      <point x="1055" y="1096"/>
      <point x="1073" y="1067"/>
      <point x="1069" y="1046" type="qcurve" smooth="yes"/>
      <point x="1035" y="854" type="line" smooth="yes"/>
      <point x="1029" y="820"/>
      <point x="966" y="791"/>
      <point x="902" y="791" type="qcurve" smooth="yes"/>
      <point x="838" y="791"/>
      <point x="799" y="820"/>
      <point x="805" y="854" type="qcurve" smooth="yes"/>
      <point x="824" y="961" type="line"/>
      <point x="792.0" y="976.5" name="inserted"/>
      <point x="723.0" y="992.0"/>
      <point x="686" y="992" type="qcurve" smooth="yes"/>
      <point x="653" y="992"/>
      <point x="597" y="967"/>
      <point x="576.5" y="944.5" type="qcurve" smooth="yes" name="inserted"/>
      <point x="556" y="922"/>
      <point x="534" y="862"/>
      <point x="534" y="827" type="qcurve" smooth="yes"/>
      <point x="534" y="785"/>
      <point x="569" y="707"/>
      <point x="601" y="666" type="qcurve" smooth="yes"/>
      <point x="755" y="470" type="line"/>
      <point x="773" y="501"/>
      <point x="809" y="567"/>
      <point x="828" y="603" type="qcurve" smooth="yes"/>
      <point x="837" y="622"/>
      <point x="864" y="645"/>
      <point x="887" y="645" type="qcurve" smooth="yes"/>
      <point x="1107" y="645" type="line" smooth="yes"/>
      <point x="1124" y="645"/>
      <point x="1146" y="637"/>
      <point x="1152.0" y="626.0" type="qcurve" smooth="yes" name="inserted"/>
      <point x="1158" y="615"/>
      <point x="1158" y="575"/>
      <point x="1152" y="543" type="qcurve" smooth="yes"/>
      <point x="1146" y="511"/>
      <point x="1132" y="471"/>
      <point x="1122.5" y="459.5" type="qcurve" smooth="yes" name="inserted"/>
      <point x="1113" y="448"/>
      <point x="1088" y="440"/>
      <point x="1071" y="440" type="qcurve" smooth="yes"/>
    </contour>
    <contour>
      <point x="442" y="205" type="qcurve" smooth="yes"/>
      <point x="484" y="205"/>
      <point x="562" y="239"/>
      <point x="600" y="271" type="qcurve"/>
      <point x="441" y="474" type="line"/>
      <point x="392" y="437"/>
      <point x="340" y="352"/>
      <point x="340" y="301" type="qcurve" smooth="yes"/>
      <point x="340" y="256"/>
      <point x="394" y="205"/>
    </contour>
  </outline>
</glyph>
<glyph name="quotesingle" format="1">
  <advance width="1228"/>
  <unicode hex="0027"/>
  <outline>
    <contour>
      <point x="882" y="1209" type="line" smooth="yes"/>
      <point x="905" y="1209"/>
      <point x="922" y="1185"/>
      <point x="914" y="1159" type="qcurve" smooth="yes"/>
      <point x="756" y="679" type="line" smooth="yes"/>
      <point x="746" y="648"/>
      <point x="700" y="611"/>
      <point x="651" y="611" type="qcurve" smooth="yes"/>
      <point x="602" y="611"/>
      <point x="569" y="648"/>
      <point x="570" y="679" type="qcurve" smooth="yes"/>
      <point x="582" y="1159" type="line" smooth="yes"/>
      <point x="583" y="1185"/>
      <point x="609" y="1209"/>
      <point x="632" y="1209" type="qcurve" smooth="yes"/>
    </contour>
  </outline>
</glyph>
<glyph name="parenright" format="1">
  <advance width="1228"/>
  <unicode hex="0029"/>
  <outline>
    <contour>
      <point x="316" y="-397" type="qcurve" smooth="yes"/>
      <point x="299" y="-406"/>
      <point x="266" y="-400"/>
      <point x="251.0" y="-389.0" type="qcurve" smooth="yes" name="inserted"/>
      <point x="236" y="-378"/>
      <point x="210" y="-344"/>
      <point x="200" y="-324" type="qcurve" smooth="yes"/>
      <point x="190" y="-303"/>
      <point x="178" y="-260"/>
      <point x="177.5" y="-240.5" type="qcurve" smooth="yes" name="inserted"/>
      <point x="177" y="-221"/>
      <point x="189" y="-190"/>
      <point x="202" y="-183" type="qcurve" smooth="yes"/>
      <point x="330" y="-113"/>
      <point x="533" y="50"/>
      <point x="603.0" y="147.5" type="qcurve" smooth="yes" name="inserted"/>
      <point x="673" y="245"/>
      <point x="747" y="475"/>
      <point x="747" y="612" type="qcurve" smooth="yes"/>
      <point x="747" y="775"/>
      <point x="606" y="1031"/>
      <point x="465" y="1131" type="qcurve"/>
      <point x="454" y="1138"/>
      <point x="451" y="1167"/>
      <point x="455.5" y="1184.5" type="qcurve" smooth="yes" name="inserted"/>
      <point x="460" y="1202"/>
      <point x="481" y="1240"/>
      <point x="495" y="1258" type="qcurve" smooth="yes"/>
      <point x="508" y="1275"/>
      <point x="540" y="1304"/>
      <point x="556.0" y="1312.5" type="qcurve" smooth="yes" name="inserted"/>
      <point x="572" y="1321"/>
      <point x="604" y="1324"/>
      <point x="618" y="1315" type="qcurve" smooth="yes"/>
      <point x="691" y="1269"/>
      <point x="827" y="1134"/>
      <point x="879.0" y="1046.0" type="qcurve" smooth="yes" name="inserted"/>
      <point x="931" y="958"/>
      <point x="993" y="743"/>
      <point x="993" y="617" type="qcurve" smooth="yes"/>
      <point x="993" y="462"/>
      <point x="906" y="171"/>
      <point x="820.5" y="40.5" type="qcurve" smooth="yes" name="inserted"/>
      <point x="735" y="-90"/>
      <point x="482" y="-312"/>
    </contour>
  </outline>
</glyph>
<glyph name="asterisk" format="1">
  <advance width="1228"/>
  <unicode hex="002A"/>
  <outline>
    <contour>
      <point x="747" y="1209" type="qcurve" smooth="yes"/>
      <point x="781" y="1209"/>
      <point x="829" y="1184"/>
      <point x="841.5" y="1163.5" type="qcurve" smooth="yes" name="inserted"/>
      <point x="854" y="1143"/>
      <point x="856" y="1090"/>
      <point x="845" y="1062" type="qcurve" smooth="yes"/>
      <point x="763" y="859" type="line"/>
      <point x="955" y="964" type="line" smooth="yes"/>
      <point x="1009" y="993"/>
      <point x="1099" y="964"/>
      <point x="1115" y="899" type="qcurve" smooth="yes"/>
      <point x="1123" y="866"/>
      <point x="1111" y="813"/>
      <point x="1094.5" y="793.5" type="qcurve" smooth="yes" name="inserted"/>
      <point x="1078" y="774"/>
      <point x="1027" y="751"/>
      <point x="996" y="748" type="qcurve" smooth="yes"/>
      <point x="784" y="729" type="line"/>
      <point x="924" y="587" type="line" smooth="yes"/>
      <point x="942" y="568"/>
      <point x="960" y="521"/>
      <point x="956.5" y="496.5" type="qcurve" smooth="yes" name="inserted"/>
      <point x="953" y="472"/>
      <point x="920" y="426"/>
      <point x="887" y="409" type="qcurve" smooth="yes"/>
      <point x="824" y="376"/>
      <point x="738" y="408"/>
      <point x="723" y="460" type="qcurve" smooth="yes"/>
      <point x="665" y="658" type="line"/>
      <point x="554" y="466" type="line" smooth="yes"/>
      <point x="538" y="439"/>
      <point x="495" y="404"/>
      <point x="470.5" y="398.0" type="qcurve" smooth="yes" name="inserted"/>
      <point x="446" y="392"/>
      <point x="394" y="404"/>
      <point x="369" y="425" type="qcurve" smooth="yes"/>
      <point x="344" y="445"/>
      <point x="324" y="493"/>
      <point x="327.0" y="517.5" type="qcurve" smooth="yes" name="inserted"/>
      <point x="330" y="542"/>
      <point x="359" y="588"/>
      <point x="384" y="607" type="qcurve" smooth="yes"/>
      <point x="559" y="739" type="line"/>
      <point x="366" y="757" type="line" smooth="yes"/>
      <point x="309" y="762"/>
      <point x="260" y="842"/>
      <point x="286" y="911" type="qcurve" smooth="yes"/>
      <point x="299" y="944"/>
      <point x="342" y="984"/>
      <point x="367.5" y="992.0" type="qcurve" smooth="yes" name="inserted"/>
      <point x="393" y="1000"/>
      <point x="445" y="993"/>
      <point x="467" y="978" type="qcurve" smooth="yes"/>
      <point x="627" y="870" type="line"/>
      <point x="616" y="1075" type="line" smooth="yes"/>
      <point x="614" y="1103"/>
      <point x="629" y="1152"/>
      <point x="645.5" y="1170.0" type="qcurve" smooth="yes" name="inserted"/>
      <point x="662" y="1188"/>
      <point x="712" y="1209"/>
    </contour>
  </outline>
</glyph>
<glyph name="slash" format="2">
  <advance width="1228"/>
  <unicode hex="002F"/>
  <outline>
    <contour>
      <point x="297" y="-267" type="line" smooth="yes"/>
      <point x="286" y="-284"/>
      <point x="240" y="-300"/>
      <point x="211" y="-300" type="qcurve" smooth="yes"/>
      <point x="180" y="-300"/>
      <point x="116" y="-283"/>
      <point x="93.0" y="-267.5" type="qcurve" smooth="yes" name="inserted"/>
      <point x="70" y="-252"/>
      <point x="52" y="-209"/>
      <point x="68" y="-183" type="qcurve" smooth="yes"/>
      <point x="973" y="1305" type="line" smooth="yes"/>
      <point x="984" y="1322"/>
      <point x="1032" y="1339"/>
      <point x="1061" y="1339" type="qcurve" smooth="yes"/>
      <point x="1092" y="1339"/>
      <point x="1156" y="1322"/>
      <point x="1178.5" y="1306.5" type="qcurve" smooth="yes" name="inserted"/>
      <point x="1201" y="1291"/>
      <point x="1218" y="1248"/>
      <point x="1202" y="1221" type="qcurve" smooth="yes"/>
    </contour>
  </outline>
</glyph>
<glyph name="zero" format="2">
  <advance width="1228"/>
  <unicode hex="0030"/>
  <outline>
    <contour>
      <point x="580" y="205" type="qcurve" smooth="yes"/>
      <point x="641" y="205" name="inserted"/>
      <point x="740" y="272"/>
      <point x="778" y="338" type="qcurve" smooth="yes"/>
      <point x="802" y="380"/>
      <point x="839" y="487"/>
      <point x="852" y="543" type="qcurve" smooth="yes" name="inserted"/>
      <point x="865" y="599"/>
      <point x="878" y="709"/>
      <point x="878" y="753" type="qcurve" smooth="yes"/>
      <point x="878" y="868"/>
      <point x="796" y="982"/>
      <point x="717" y="982" type="qcurve" smooth="yes"/>
      <point x="657" y="982" name="inserted"/>
      <point x="558" y="916"/>
      <point x="519" y="849" type="qcurve" smooth="yes"/>
      <point x="495" y="807"/>
      <point x="458" y="700"/>
      <point x="445" y="644" type="qcurve" smooth="yes" name="inserted"/>
      <point x="432" y="588"/>
      <point x="419" y="478"/>
      <point x="419" y="434" type="qcurve" smooth="yes"/>
      <point x="419" y="319"/>
      <point x="501" y="205"/>
    </contour>
    <contour>
      <point x="555" y="-22" type="qcurve" smooth="yes"/>
      <point x="459" y="-22"/>
      <point x="310" y="46"/>
      <point x="259" y="108" type="qcurve" smooth="yes" name="inserted"/>
      <point x="208" y="170"/>
      <point x="155" y="343"/>
      <point x="155" y="447" type="qcurve" smooth="yes"/>
      <point x="155" y="512"/>
      <point x="176" y="652"/>
      <point x="196" y="721" type="qcurve" smooth="yes" name="inserted"/>
      <point x="216" y="789"/>
      <point x="274" y="918"/>
      <point x="312" y="972" type="qcurve" smooth="yes"/>
      <point x="390" y="1084"/>
      <point x="606" y="1209"/>
      <point x="742" y="1209" type="qcurve" smooth="yes"/>
      <point x="838" y="1209"/>
      <point x="987" y="1141"/>
      <point x="1038" y="1079" type="qcurve" smooth="yes" name="inserted"/>
      <point x="1089" y="1017"/>
      <point x="1142" y="844"/>
      <point x="1142" y="740" type="qcurve" smooth="yes"/>
      <point x="1142" y="675"/>
      <point x="1121" y="535"/>
      <point x="1101" y="467" type="qcurve" smooth="yes" name="inserted"/>
      <point x="1081" y="398"/>
      <point x="1023" y="269"/>
      <point x="985" y="215" type="qcurve" smooth="yes"/>
      <point x="907" y="103"/>
      <point x="691" y="-22"/>
    </contour>
    <contour>
      <point x="577" y="948" type="move"/>
      <point x="850" y="427" type="line"/>
      <point x="729" y="267" type="line"/>
      <point x="470" y="768" type="line"/>
    </contour>
  </outline>
</glyph>
<glyph name="three" format="1">
  <advance width="1228"/>
  <unicode hex="0033"/>
  <outline>
    <contour>
      <point x="530" y="205" type="qcurve" smooth="yes"/>
      <point x="600" y="205"/>
      <point x="694" y="238"/>
      <point x="722.5" y="264.5" type="qcurve" smooth="yes" name="inserted"/>
      <point x="751" y="291"/>
      <point x="774" y="358"/>
      <point x="774" y="391" type="qcurve" smooth="yes"/>
      <point x="774.0" y="447.0" name="inserted"/>
      <point x="700.0" y="503.0"/>
      <point x="626" y="503" type="qcurve" smooth="yes"/>
      <point x="523" y="503" type="line" smooth="yes"/>
      <point x="506" y="503"/>
      <point x="484" y="513"/>
      <point x="478.5" y="525.0" type="qcurve" smooth="yes" name="inserted"/>
      <point x="473" y="537"/>
      <point x="473" y="578"/>
      <point x="479" y="610" type="qcurve" smooth="yes"/>
      <point x="485" y="642"/>
      <point x="499" y="684"/>
      <point x="508.5" y="696.0" type="qcurve" smooth="yes" name="inserted"/>
      <point x="518" y="708"/>
      <point x="544" y="718"/>
      <point x="561" y="718" type="qcurve" smooth="yes"/>
      <point x="637" y="718" type="line" smooth="yes"/>
      <point x="700" y="718"/>
      <point x="783" y="750"/>
      <point x="806" y="779" type="qcurve" smooth="yes"/>
      <point x="823" y="802"/>
      <point x="840" y="856"/>
      <point x="840" y="886" type="qcurve" smooth="yes"/>
      <point x="840.0" y="939.0" name="inserted"/>
      <point x="767.5" y="992.0"/>
      <point x="695" y="992" type="qcurve" smooth="yes"/>
      <point x="650" y="992"/>
      <point x="573" y="979"/>
      <point x="538" y="969" type="qcurve"/>
      <point x="524" y="890" type="line" smooth="yes"/>
      <point x="521" y="873"/>
      <point x="507" y="849"/>
      <point x="493.5" y="841.5" type="qcurve" smooth="yes" name="inserted"/>
      <point x="480" y="834"/>
      <point x="437" y="827"/>
      <point x="405" y="827" type="qcurve" smooth="yes"/>
      <point x="341" y="827"/>
      <point x="288" y="856"/>
      <point x="294" y="890" type="qcurve" smooth="yes"/>
      <point x="329" y="1087" type="line" smooth="yes"/>
      <point x="333.5" y="1109.5" name="inserted"/>
      <point x="364.0" y="1141.5"/>
      <point x="390" y="1151" type="qcurve" smooth="yes"/>
      <point x="473" y="1183"/>
      <point x="638" y="1209"/>
      <point x="723" y="1209" type="qcurve" smooth="yes"/>
      <point x="812" y="1209"/>
      <point x="951" y="1169"/>
      <point x="999.0" y="1132.0" type="qcurve" smooth="yes" name="inserted"/>
      <point x="1047" y="1095"/>
      <point x="1097" y="987"/>
      <point x="1097" y="920" type="qcurve" smooth="yes"/>
      <point x="1097" y="817"/>
      <point x="1005" y="660"/>
      <point x="908" y="614" type="qcurve"/>
      <point x="970" y="583"/>
      <point x="1039" y="472"/>
      <point x="1039" y="396" type="qcurve" smooth="yes"/>
      <point x="1039" y="362"/>
      <point x="1026" y="289"/>
      <point x="1013.0" y="253.5" type="qcurve" smooth="yes" name="inserted"/>
      <point x="1000" y="218"/>
      <point x="961" y="151"/>
      <point x="935" y="122" type="qcurve" smooth="yes"/>
      <point x="874" y="55"/>
      <point x="667" y="-22"/>
      <point x="510" y="-22" type="qcurve" smooth="yes"/>
      <point x="417" y="-22"/>
      <point x="249" y="17"/>
      <point x="180" y="55" type="qcurve" smooth="yes"/>
      <point x="154" y="69"/>
      <point x="147" y="133"/>
      <point x="173" y="191" type="qcurve" smooth="yes"/>
      <point x="199" y="250"/>
      <point x="252" y="281"/>
      <point x="273" y="270" type="qcurve" smooth="yes"/>
      <point x="332" y="240"/>
      <point x="464" y="205"/>
    </contour>
  </outline>
</glyph>
<glyph name="eight" format="1">
  <advance width="1228"/>
  <unicode hex="0038"/>
  <outline>
    <contour>
      <point x="540" y="-22" type="qcurve" smooth="yes"/>
      <point x="451" y="-22"/>
      <point x="310" y="22"/>
      <point x="260.5" y="62.5" type="qcurve" smooth="yes" name="inserted"/>
      <point x="211" y="103"/>
      <point x="158" y="216"/>
      <point x="158" y="286" type="qcurve" smooth="yes"/>
      <point x="158" y="413"/>
      <point x="289" y="588"/>
      <point x="415" y="625" type="qcurve"/>
      <point x="357" y="657"/>
      <point x="291" y="759"/>
      <point x="291" y="832" type="qcurve" smooth="yes"/>
      <point x="291" y="901"/>
      <point x="350" y="1037"/>
      <point x="408.5" y="1090.0" type="qcurve" smooth="yes" name="inserted"/>
      <point x="467" y="1143"/>
      <point x="641" y="1209"/>
      <point x="757" y="1209" type="qcurve" smooth="yes"/>
      <point x="841" y="1209"/>
      <point x="970" y="1161"/>
      <point x="1013.5" y="1120.0" type="qcurve" smooth="yes" name="inserted"/>
      <point x="1057" y="1079"/>
      <point x="1102" y="970"/>
      <point x="1102" y="910" type="qcurve" smooth="yes"/>
      <point x="1102" y="853"/>
      <point x="1071" y="758"/>
      <point x="1043.0" y="720.5" type="qcurve" smooth="yes" name="inserted"/>
      <point x="1015" y="683"/>
      <point x="939" y="629"/>
      <point x="893" y="613" type="qcurve"/>
      <point x="965" y="580"/>
      <point x="1048" y="464"/>
      <point x="1048" y="379" type="qcurve" smooth="yes"/>
      <point x="1048" y="308"/>
      <point x="994" y="165"/>
      <point x="933.5" y="107.5" type="qcurve" smooth="yes" name="inserted"/>
      <point x="873" y="50"/>
      <point x="679" y="-22"/>
    </contour>
    <contour>
      <point x="578" y="196" type="qcurve" smooth="yes"/>
      <point x="633" y="196"/>
      <point x="712" y="230"/>
      <point x="737.5" y="258.0" type="qcurve" smooth="yes" name="inserted"/>
      <point x="763" y="286"/>
      <point x="787" y="356"/>
      <point x="787" y="391" type="qcurve" smooth="yes"/>
      <point x="787" y="449"/>
      <point x="712" y="518"/>
      <point x="635" y="518" type="qcurve" smooth="yes"/>
      <point x="580" y="518"/>
      <point x="501" y="483"/>
      <point x="475.5" y="455.0" type="qcurve" smooth="yes" name="inserted"/>
      <point x="450" y="427"/>
      <point x="425" y="357"/>
      <point x="425" y="321" type="qcurve" smooth="yes"/>
      <point x="425" y="264"/>
      <point x="501" y="196"/>
    </contour>
    <contour>
      <point x="669" y="712" type="qcurve" smooth="yes"/>
      <point x="716" y="712"/>
      <point x="784" y="742"/>
      <point x="806.5" y="766.0" type="qcurve" smooth="yes" name="inserted"/>
      <point x="829" y="790"/>
      <point x="851" y="849"/>
      <point x="851" y="878" type="qcurve" smooth="yes"/>
      <point x="851" y="930"/>
      <point x="781" y="991"/>
      <point x="718" y="991" type="qcurve" smooth="yes"/>
      <point x="674" y="991"/>
      <point x="607" y="963"/>
      <point x="583.5" y="939.5" type="qcurve" smooth="yes" name="inserted"/>
      <point x="560" y="916"/>
      <point x="536" y="855"/>
      <point x="536" y="822" type="qcurve" smooth="yes"/>
      <point x="536" y="771"/>
      <point x="604" y="712"/>
    </contour>
  </outline>
</glyph>
<glyph name="nine" format="1">
  <advance width="1228"/>
  <unicode hex="0039"/>
  <outline>
    <contour>
      <point x="835" y="553" type="qcurve"/>
      <point x="774" y="501"/>
      <point x="638" y="446"/>
      <point x="551" y="446" type="qcurve" smooth="yes"/>
      <point x="476" y="446"/>
      <point x="355" y="494"/>
      <point x="311.5" y="537.0" type="qcurve" smooth="yes" name="inserted"/>
      <point x="268" y="580"/>
      <point x="221" y="698"/>
      <point x="221" y="767" type="qcurve" smooth="yes"/>
      <point x="221" y="853"/>
      <point x="288" y="1013"/>
      <point x="353.0" y="1074.5" type="qcurve" smooth="yes" name="inserted"/>
      <point x="418" y="1136"/>
      <point x="608" y="1209"/>
      <point x="730" y="1209" type="qcurve" smooth="yes"/>
      <point x="864" y="1209"/>
      <point x="1040" y="1095"/>
      <point x="1085" y="1001" type="qcurve" smooth="yes"/>
      <point x="1105" y="961"/>
      <point x="1125" y="852"/>
      <point x="1125" y="789" type="qcurve" smooth="yes"/>
      <point x="1125" y="736"/>
      <point x="1103" y="584"/>
      <point x="1075.5" y="501.0" type="qcurve" smooth="yes" name="inserted"/>
      <point x="1048" y="418"/>
      <point x="955" y="254"/>
      <point x="885" y="189" type="qcurve" smooth="yes"/>
      <point x="781" y="93"/>
      <point x="471" y="-14"/>
      <point x="257" y="-22" type="qcurve" smooth="yes"/>
      <point x="230" y="-23"/>
      <point x="207" y="28"/>
      <point x="205" y="85" type="qcurve" smooth="yes"/>
      <point x="203" y="154"/>
      <point x="235" y="218"/>
      <point x="258" y="220" type="qcurve" smooth="yes"/>
      <point x="396" y="227"/>
      <point x="591" y="271"/>
      <point x="658.5" y="311.5" type="qcurve" smooth="yes" name="inserted"/>
      <point x="726" y="352"/>
      <point x="809" y="471"/>
    </contour>
    <contour>
      <point x="701" y="986" type="qcurve" smooth="yes"/>
      <point x="648" y="986"/>
      <point x="565" y="953"/>
      <point x="536.5" y="925.5" type="qcurve" smooth="yes" name="inserted"/>
      <point x="508" y="898"/>
      <point x="479" y="826"/>
      <point x="479" y="787" type="qcurve" smooth="yes"/>
      <point x="479" y="725"/>
      <point x="561" y="658"/>
      <point x="636" y="658" type="qcurve" smooth="yes"/>
      <point x="689" y="658"/>
      <point x="774" y="689"/>
      <point x="803.5" y="715.0" type="qcurve" smooth="yes" name="inserted"/>
      <point x="833" y="741"/>
      <point x="864" y="809"/>
      <point x="864" y="847" type="qcurve" smooth="yes"/>
      <point x="864" y="876"/>
      <point x="843" y="927"/>
      <point x="822.5" y="945.5" type="qcurve" smooth="yes" name="inserted"/>
      <point x="802" y="964"/>
      <point x="741" y="986"/>
    </contour>
  </outline>
</glyph>
<glyph name="colon" format="1">
  <advance width="1228"/>
  <unicode hex="003A"/>
  <outline>
    <contour>
      <point x="554" y="-22" type="qcurve" smooth="yes"/>
      <point x="516" y="-22"/>
      <point x="453" y="5"/>
      <point x="430.5" y="28.5" type="qcurve" smooth="yes" name="inserted"/>
      <point x="408" y="52"/>
      <point x="382" y="115"/>
      <point x="382" y="150" type="qcurve" smooth="yes"/>
      <point x="382" y="197"/>
      <point x="419" y="277"/>
      <point x="449.5" y="306.0" type="qcurve" smooth="yes" name="inserted"/>
      <point x="480" y="335"/>
      <point x="560" y="368"/>
      <point x="604" y="368" type="qcurve" smooth="yes"/>
      <point x="641" y="368"/>
      <point x="704" y="341"/>
      <point x="726.5" y="318.0" type="qcurve" smooth="yes" name="inserted"/>
      <point x="749" y="295"/>
      <point x="774" y="233"/>
      <point x="774" y="198" type="qcurve" smooth="yes"/>
      <point x="774" y="151"/>
      <point x="738" y="71"/>
      <point x="707.5" y="41.5" type="qcurve" smooth="yes" name="inserted"/>
      <point x="677" y="12"/>
      <point x="597" y="-22"/>
    </contour>
    <contour>
      <point x="646" y="556" type="qcurve" smooth="yes"/>
      <point x="608" y="556"/>
      <point x="545" y="583"/>
      <point x="522.5" y="606.5" type="qcurve" smooth="yes" name="inserted"/>
      <point x="500" y="630"/>
      <point x="474" y="693"/>
      <point x="474" y="728" type="qcurve" smooth="yes"/>
      <point x="474" y="775"/>
      <point x="511" y="855"/>
      <point x="541.5" y="884.0" type="qcurve" smooth="yes" name="inserted"/>
      <point x="572" y="913"/>
      <point x="652" y="946"/>
      <point x="696" y="946" type="qcurve" smooth="yes"/>
      <point x="733" y="946"/>
      <point x="796" y="919"/>
      <point x="818.5" y="896.0" type="qcurve" smooth="yes" name="inserted"/>
      <point x="841" y="873"/>
      <point x="866" y="811"/>
      <point x="866" y="776" type="qcurve" smooth="yes"/>
      <point x="866" y="729"/>
      <point x="830" y="649"/>
      <point x="799.5" y="619.5" type="qcurve" smooth="yes" name="inserted"/>
      <point x="769" y="590"/>
      <point x="689" y="556"/>
    </contour>
  </outline>
</glyph>
<glyph name="semicolon" format="1">
  <advance width="1228"/>
  <unicode hex="003B"/>
  <outline>
    <contour>
      <point x="646" y="556" type="qcurve" smooth="yes"/>
      <point x="608" y="556"/>
      <point x="545" y="583"/>
      <point x="522.5" y="606.5" type="qcurve" smooth="yes" name="inserted"/>
      <point x="500" y="630"/>
      <point x="474" y="693"/>
      <point x="474" y="728" type="qcurve" smooth="yes"/>
      <point x="474" y="775"/>
      <point x="511" y="855"/>
      <point x="541.5" y="884.0" type="qcurve" smooth="yes" name="inserted"/>
      <point x="572" y="913"/>
      <point x="652" y="946"/>
      <point x="696" y="946" type="qcurve" smooth="yes"/>
      <point x="733" y="946"/>
      <point x="796" y="919"/>
      <point x="818.5" y="896.0" type="qcurve" smooth="yes" name="inserted"/>
      <point x="841" y="873"/>
      <point x="866" y="811"/>
      <point x="866" y="776" type="qcurve" smooth="yes"/>
      <point x="866" y="729"/>
      <point x="830" y="649"/>
      <point x="799.5" y="619.5" type="qcurve" smooth="yes" name="inserted"/>
      <point x="769" y="590"/>
      <point x="689" y="556"/>
    </contour>
    <contour>
      <point x="420" y="-253" type="line" smooth="yes"/>
      <point x="406.0" y="-273.5" name="inserted"/>
      <point x="357.0" y="-294.0"/>
      <point x="322" y="-294" type="qcurve" smooth="yes"/>
      <point x="280" y="-294"/>
      <point x="238" y="-261"/>
      <point x="248" y="-228" type="qcurve" smooth="yes"/>
      <point x="413" y="314" type="line" smooth="yes"/>
      <point x="419" y="334"/>
      <point x="451" y="354"/>
      <point x="472" y="354" type="qcurve" smooth="yes"/>
      <point x="771" y="354" type="line" smooth="yes"/>
      <point x="796" y="354"/>
      <point x="805" y="317"/>
      <point x="788" y="291" type="qcurve" smooth="yes"/>
    </contour>
  </outline>
</glyph>
<glyph name="greater" format="1">
  <advance width="1228"/>
  <unicode hex="003E"/>
  <outline>
    <contour>
      <point x="280" y="878" type="line" smooth="yes"/>
      <point x="251" y="894"/>
      <point x="246" y="952"/>
      <point x="281" y="1012" type="qcurve" smooth="yes"/>
      <point x="316" y="1072"/>
      <point x="368" y="1098"/>
      <point x="396" y="1082" type="qcurve" smooth="yes"/>
      <point x="1110" y="677" type="line" smooth="yes"/>
      <point x="1132" y="665"/>
      <point x="1148" y="626"/>
      <point x="1140" y="583" type="qcurve" smooth="yes"/>
      <point x="1132" y="540"/>
      <point x="1103" y="502"/>
      <point x="1077" y="489" type="qcurve" smooth="yes"/>
      <point x="232" y="90" type="line" smooth="yes"/>
      <point x="215" y="82"/>
      <point x="188" y="79"/>
      <point x="175.5" y="86.5" type="qcurve" smooth="yes" name="inserted"/>
      <point x="163" y="94"/>
      <point x="140" y="129"/>
      <point x="128" y="159" type="qcurve" smooth="yes"/>
      <point x="104" y="219"/>
      <point x="119" y="280"/>
      <point x="153" y="296" type="qcurve" smooth="yes"/>
      <point x="801" y="593" type="line"/>
    </contour>
  </outline>
</glyph>
<glyph name="C" format="1">
  <advance width="1228"/>
  <unicode hex="0043"/>
  <outline>
    <contour>
      <point x="1016" y="1146" type="line" smooth="yes"/>
      <point x="1023" y="1180"/>
      <point x="1085" y="1209"/>
      <point x="1149" y="1209" type="qcurve" smooth="yes"/>
      <point x="1213" y="1209"/>
      <point x="1252" y="1180"/>
      <point x="1246" y="1146" type="qcurve" smooth="yes"/>
      <point x="1178" y="762" type="line" smooth="yes"/>
      <point x="1172" y="728"/>
      <point x="1107" y="699"/>
      <point x="1035" y="699" type="qcurve" smooth="yes"/>
      <point x="999" y="699"/>
      <point x="955" y="706"/>
      <point x="943.0" y="713.5" type="qcurve" smooth="yes" name="inserted"/>
      <point x="931" y="721"/>
      <point x="925" y="745"/>
      <point x="928" y="762" type="qcurve" smooth="yes"/>
      <point x="937" y="810"/>
      <point x="924" y="891"/>
      <point x="903.0" y="920.5" type="qcurve" smooth="yes" name="inserted"/>
      <point x="882" y="950"/>
      <point x="809" y="982"/>
      <point x="757" y="982" type="qcurve" smooth="yes"/>
      <point x="675" y="982"/>
      <point x="547" y="913"/>
      <point x="500" y="847" type="qcurve" smooth="yes"/>
      <point x="474" y="810"/>
      <point x="435" y="719"/>
      <point x="421.5" y="669.5" type="qcurve" smooth="yes" name="inserted"/>
      <point x="408" y="620"/>
      <point x="394" y="520"/>
      <point x="394" y="475" type="qcurve" smooth="yes"/>
      <point x="394" y="344"/>
      <point x="514" y="205"/>
      <point x="630" y="205" type="qcurve" smooth="yes"/>
      <point x="676" y="205"/>
      <point x="762" y="219"/>
      <point x="805.0" y="231.5" type="qcurve" smooth="yes" name="inserted"/>
      <point x="848" y="244"/>
      <point x="935" y="280"/>
      <point x="982" y="302" type="qcurve" smooth="yes"/>
      <point x="1015" y="317"/>
      <point x="1065" y="283"/>
      <point x="1082" y="225" type="qcurve" smooth="yes"/>
      <point x="1099" y="165"/>
      <point x="1080" y="100"/>
      <point x="1045" y="84" type="qcurve" smooth="yes"/>
      <point x="931" y="32"/>
      <point x="707" y="-22"/>
      <point x="600" y="-22" type="qcurve" smooth="yes"/>
      <point x="492" y="-22"/>
      <point x="318" y="48"/>
      <point x="256.5" y="112.0" type="qcurve" smooth="yes" name="inserted"/>
      <point x="195" y="176"/>
      <point x="128" y="358"/>
      <point x="128" y="471" type="qcurve" smooth="yes"/>
      <point x="128" y="542"/>
      <point x="153" y="691"/>
      <point x="178.5" y="763.0" type="qcurve" smooth="yes" name="inserted"/>
      <point x="204" y="835"/>
      <point x="278" y="966"/>
      <point x="328" y="1020" type="qcurve" smooth="yes"/>
      <point x="413" y="1113"/>
      <point x="632" y="1209"/>
      <point x="757" y="1209" type="qcurve" smooth="yes"/>
      <point x="851" y="1209"/>
      <point x="974" y="1136"/>
      <point x="1003" y="1078" type="qcurve"/>
    </contour>
  </outline>
</glyph>
<glyph name="L" format="2">
  <advance width="1228"/>
  <unicode hex="004C"/>
  <outline>
    <contour>
      <point x="372" y="982" type="line"/>
      <point x="226" y="982" type="line" smooth="yes"/>
      <point x="209" y="982"/>
      <point x="187" y="990"/>
      <point x="181.0" y="1001.0" type="qcurve" smooth="yes" name="inserted"/>
      <point x="175" y="1012"/>
      <point x="175" y="1052"/>
      <point x="181" y="1084" type="qcurve" smooth="yes"/>
      <point x="187" y="1116"/>
      <point x="201" y="1156"/>
      <point x="210.5" y="1167.5" type="qcurve" smooth="yes" name="inserted"/>
      <point x="220" y="1179"/>
      <point x="245" y="1187"/>
      <point x="262" y="1187" type="qcurve" smooth="yes"/>
      <point x="876" y="1187" type="line" smooth="yes"/>
      <point x="893" y="1187"/>
      <point x="915" y="1179"/>
      <point x="921.0" y="1167.5" type="qcurve" smooth="yes" name="inserted"/>
      <point x="927" y="1156"/>
      <point x="927" y="1116"/>
      <point x="921" y="1084" type="qcurve" smooth="yes"/>
      <point x="915" y="1052"/>
      <point x="901" y="1012"/>
      <point x="891.5" y="1001.0" type="qcurve" smooth="yes" name="inserted"/>
      <point x="882" y="990"/>
      <point x="857" y="982"/>
      <point x="840" y="982" type="qcurve" smooth="yes"/>
      <point x="622" y="982" type="line"/>
      <point x="486" y="215" type="line"/>
      <point x="837" y="215" type="line"/>
      <point x="892" y="527" type="line" smooth="yes"/>
      <point x="898" y="561"/>
      <point x="964" y="590"/>
      <point x="1036" y="590" type="qcurve" smooth="yes"/>
      <point x="1072" y="590"/>
      <point x="1116" y="583"/>
      <point x="1127.5" y="575.5" type="qcurve" smooth="yes" name="inserted"/>
      <point x="1139" y="568"/>
      <point x="1145" y="544"/>
      <point x="1142" y="527" type="qcurve" smooth="yes"/>
      <point x="1061" y="65" type="line" smooth="yes"/>
      <point x="1055" y="30"/>
      <point x="1020" y="0"/>
      <point x="985" y="0" type="qcurve" smooth="yes"/>
      <point x="53" y="0" type="line" smooth="yes"/>
      <point x="36" y="0"/>
      <point x="13" y="8"/>
      <point x="7.5" y="19.0" type="qcurve" smooth="yes" name="inserted"/>
      <point x="2" y="30"/>
      <point x="1" y="70"/>
      <point x="7" y="102" type="qcurve" smooth="yes"/>
      <point x="13" y="134"/>
      <point x="27" y="174"/>
      <point x="36.5" y="185.5" type="qcurve" smooth="yes" name="inserted"/>
      <point x="46" y="197"/>
      <point x="72" y="205"/>
      <point x="89" y="205" type="qcurve" smooth="yes"/>
      <point x="235" y="205" type="line"/>
    </contour>
  </outline>
</glyph>
<glyph name="P" format="1">
  <advance width="1228"/>
  <unicode hex="0050"/>
  <outline>
    <contour>
      <point x="373" y="982" type="line"/>
      <point x="226" y="982" type="line" smooth="yes"/>
      <point x="209" y="982"/>
      <point x="187" y="990"/>
      <point x="181.0" y="1001.0" type="qcurve" smooth="yes" name="inserted"/>
      <point x="175" y="1012"/>
      <point x="175" y="1052"/>
      <point x="181" y="1084" type="qcurve" smooth="yes"/>
      <point x="187" y="1116"/>
      <point x="201" y="1156"/>
      <point x="210.5" y="1167.5" type="qcurve" smooth="yes" name="inserted"/>
      <point x="220" y="1179"/>
      <point x="245" y="1187"/>
      <point x="262" y="1187" type="qcurve" smooth="yes"/>
      <point x="799" y="1187" type="line" smooth="yes"/>
      <point x="901" y="1187"/>
      <point x="1054" y="1141"/>
      <point x="1105.5" y="1098.5" type="qcurve" smooth="yes" name="inserted"/>
      <point x="1157" y="1056"/>
      <point x="1209" y="933"/>
      <point x="1209" y="857" type="qcurve" smooth="yes"/>
      <point x="1209" y="816"/>
      <point x="1196" y="729"/>
      <point x="1182.5" y="686.0" type="qcurve" smooth="yes" name="inserted"/>
      <point x="1169" y="643"/>
      <point x="1126" y="563"/>
      <point x="1096" y="529" type="qcurve" smooth="yes"/>
      <point x="1030.5" y="455.5" name="inserted"/>
      <point x="821.0" y="382.0"/>
      <point x="677" y="382" type="qcurve" smooth="yes"/>
      <point x="517" y="382" type="line"/>
      <point x="486" y="205" type="line"/>
      <point x="703" y="205" type="line" smooth="yes"/>
      <point x="720" y="205"/>
      <point x="742" y="197"/>
      <point x="747.5" y="185.5" type="qcurve" smooth="yes" name="inserted"/>
      <point x="753" y="174"/>
      <point x="753" y="134"/>
      <point x="747" y="102" type="qcurve" smooth="yes"/>
      <point x="741" y="70"/>
      <point x="728" y="30"/>
      <point x="718.5" y="19.0" type="qcurve" smooth="yes" name="inserted"/>
      <point x="709" y="8"/>
      <point x="684" y="0"/>
      <point x="667" y="0" type="qcurve" smooth="yes"/>
      <point x="53" y="0" type="line" smooth="yes"/>
      <point x="36" y="0"/>
      <point x="13" y="8"/>
      <point x="7.5" y="19.0" type="qcurve" smooth="yes" name="inserted"/>
      <point x="2" y="30"/>
      <point x="1" y="70"/>
      <point x="7" y="102" type="qcurve" smooth="yes"/>
      <point x="13" y="134"/>
      <point x="27" y="174"/>
      <point x="36.5" y="185.5" type="qcurve" smooth="yes" name="inserted"/>
      <point x="46" y="197"/>
      <point x="72" y="205"/>
      <point x="89" y="205" type="qcurve" smooth="yes"/>
      <point x="236" y="205" type="line"/>
    </contour>
    <contour>
      <point x="674" y="597" type="line" smooth="yes"/>
      <point x="750.0" y="597.0" name="inserted"/>
      <point x="860.5" y="634.5"/>
      <point x="895" y="672" type="qcurve" smooth="yes"/>
      <point x="923" y="702"/>
      <point x="951" y="787"/>
      <point x="951" y="829" type="qcurve" smooth="yes"/>
      <point x="951" y="903"/>
      <point x="844" y="972"/>
      <point x="740" y="972" type="qcurve" smooth="yes"/>
      <point x="621" y="972" type="line"/>
      <point x="555" y="597" type="line"/>
    </contour>
  </outline>
</glyph>
<glyph name="Q" format="1">
  <advance width="1228"/>
  <unicode hex="0051"/>
  <outline>
    <contour>
      <point x="594" y="285" type="qcurve" smooth="yes"/>
      <point x="671" y="285"/>
      <point x="793" y="341"/>
      <point x="838" y="395" type="qcurve" smooth="yes"/>
      <point x="865" y="428"/>
      <point x="907" y="510"/>
      <point x="921.0" y="555.5" type="qcurve" smooth="yes" name="inserted"/>
      <point x="935" y="601"/>
      <point x="949" y="694"/>
      <point x="949" y="738" type="qcurve" smooth="yes"/>
      <point x="949" y="854"/>
      <point x="834" y="982"/>
      <point x="717" y="982" type="qcurve" smooth="yes"/>
      <point x="640" y="982"/>
      <point x="518" y="926"/>
      <point x="473" y="872" type="qcurve" smooth="yes"/>
      <point x="446" y="839"/>
      <point x="404" y="757"/>
      <point x="390.0" y="711.5" type="qcurve" smooth="yes" name="inserted"/>
      <point x="376" y="666"/>
      <point x="362" y="572"/>
      <point x="362" y="529" type="qcurve" smooth="yes"/>
      <point x="362" y="412"/>
      <point x="477" y="285"/>
    </contour>
    <contour>
      <point x="564" y="58" type="qcurve" smooth="yes"/>
      <point x="551" y="58"/>
      <point x="527" y="59"/>
      <point x="519" y="60" type="qcurve"/>
      <point x="396" y="-46" type="line"/>
      <point x="444" y="-29"/>
      <point x="521" y="-17"/>
      <point x="555" y="-17" type="qcurve" smooth="yes"/>
      <point x="589" y="-17"/>
      <point x="647" y="-26"/>
      <point x="675.0" y="-31.5" type="qcurve" smooth="yes" name="inserted"/>
      <point x="703" y="-37"/>
      <point x="757" y="-46"/>
      <point x="786" y="-46" type="qcurve" smooth="yes"/>
      <point x="820" y="-46"/>
      <point x="896" y="-29"/>
      <point x="944" y="-6" type="qcurve" smooth="yes"/>
      <point x="959" y="1"/>
      <point x="990" y="-2"/>
      <point x="1004.0" y="-11.0" type="qcurve" smooth="yes" name="inserted"/>
      <point x="1018" y="-20"/>
      <point x="1041" y="-48"/>
      <point x="1049" y="-66" type="qcurve" smooth="yes"/>
      <point x="1057" y="-83"/>
      <point x="1063" y="-122"/>
      <point x="1060.0" y="-140.5" type="qcurve" smooth="yes" name="inserted"/>
      <point x="1057" y="-159"/>
      <point x="1037" y="-192"/>
      <point x="1019" y="-204" type="qcurve" smooth="yes"/>
      <point x="951" y="-248"/>
      <point x="835" y="-281"/>
      <point x="781" y="-281" type="qcurve" smooth="yes"/>
      <point x="739" y="-281"/>
      <point x="657" y="-267"/>
      <point x="615.0" y="-259.0" type="qcurve" smooth="yes" name="inserted"/>
      <point x="573" y="-251"/>
      <point x="483" y="-237"/>
      <point x="433" y="-237" type="qcurve" smooth="yes"/>
      <point x="381" y="-237"/>
      <point x="265" y="-258"/>
      <point x="196" y="-284" type="qcurve" smooth="yes"/>
      <point x="172" y="-293"/>
      <point x="122" y="-253"/>
      <point x="106" y="-221" type="qcurve" smooth="yes"/>
      <point x="91" y="-190"/>
      <point x="90" y="-123"/>
      <point x="114" y="-102" type="qcurve" smooth="yes"/>
      <point x="347" y="98" type="line"/>
      <point x="288" y="123"/>
      <point x="195" y="207"/>
      <point x="163.0" y="262.5" type="qcurve" smooth="yes" name="inserted"/>
      <point x="131" y="318"/>
      <point x="97" y="452"/>
      <point x="97" y="529" type="qcurve" smooth="yes"/>
      <point x="97" y="590"/>
      <point x="119" y="719"/>
      <point x="140.5" y="781.5" type="qcurve" smooth="yes" name="inserted"/>
      <point x="162" y="844"/>
      <point x="228" y="960"/>
      <point x="273" y="1010" type="qcurve" smooth="yes"/>
      <point x="361" y="1107"/>
      <point x="601" y="1209"/>
      <point x="747" y="1209" type="qcurve" smooth="yes"/>
      <point x="855" y="1209"/>
      <point x="1027" y="1142"/>
      <point x="1088.0" y="1080.5" type="qcurve" smooth="yes" name="inserted"/>
      <point x="1149" y="1019"/>
      <point x="1214" y="845"/>
      <point x="1214" y="738" type="qcurve" smooth="yes"/>
      <point x="1214" y="676"/>
      <point x="1192" y="548"/>
      <point x="1170.5" y="485.5" type="qcurve" smooth="yes" name="inserted"/>
      <point x="1149" y="423"/>
      <point x="1083" y="306"/>
      <point x="1038" y="257" type="qcurve" smooth="yes"/>
      <point x="950" y="160"/>
      <point x="710" y="58"/>
    </contour>
  </outline>
</glyph>
<glyph name="R" format="2">
  <advance width="1228"/>
  <unicode hex="0052"/>
  <outline>
    <contour>
      <point x="333" y="982" type="line"/>
      <point x="226" y="982" type="line" smooth="yes"/>
      <point x="209" y="982"/>
      <point x="187" y="990"/>
      <point x="181.0" y="1001.0" type="qcurve" smooth="yes" name="inserted"/>
      <point x="175" y="1012"/>
      <point x="175" y="1052"/>
      <point x="181" y="1084" type="qcurve" smooth="yes"/>
      <point x="187" y="1116"/>
      <point x="201" y="1156"/>
      <point x="210.5" y="1167.5" type="qcurve" smooth="yes" name="inserted"/>
      <point x="220" y="1179"/>
      <point x="245" y="1187"/>
      <point x="262" y="1187" type="qcurve" smooth="yes"/>
      <point x="779" y="1187" type="line" smooth="yes"/>
      <point x="965" y="1187"/>
      <point x="1166" y="1031"/>
      <point x="1166" y="888" type="qcurve" smooth="yes"/>
      <point x="1166" y="824"/>
      <point x="1134" y="710"/>
      <point x="1098.5" y="663.0" type="qcurve" smooth="yes" name="inserted"/>
      <point x="1063" y="616"/>
      <point x="948" y="546"/>
      <point x="866" y="526" type="qcurve"/>
      <point x="888.0" y="515.5" name="inserted"/>
      <point x="924.0" y="487.0"/>
      <point x="938" y="469" type="qcurve" smooth="yes"/>
      <point x="956" y="446"/>
      <point x="982" y="394"/>
      <point x="992.5" y="368.5" type="qcurve" smooth="yes" name="inserted"/>
      <point x="1003" y="343"/>
      <point x="1020" y="293"/>
      <point x="1030" y="271" type="qcurve" smooth="yes"/>
      <point x="1044" y="242"/>
      <point x="1080" y="205"/>
      <point x="1108" y="205" type="qcurve" smooth="yes"/>
      <point x="1131" y="205" type="line" smooth="yes"/>
      <point x="1148" y="205"/>
      <point x="1170" y="197"/>
      <point x="1175.5" y="185.5" type="qcurve" smooth="yes" name="inserted"/>
      <point x="1181" y="174"/>
      <point x="1181" y="134"/>
      <point x="1175" y="102" type="qcurve" smooth="yes"/>
      <point x="1169" y="70"/>
      <point x="1156" y="30"/>
      <point x="1146.5" y="19.0" type="qcurve" smooth="yes" name="inserted"/>
      <point x="1137" y="8"/>
      <point x="1112" y="0"/>
      <point x="1095" y="0" type="qcurve" smooth="yes"/>
      <point x="995" y="0" type="line" smooth="yes"/>
      <point x="929" y="0"/>
      <point x="843" y="67"/>
      <point x="812" y="139" type="qcurve" smooth="yes"/>
      <point x="800" y="165"/>
      <point x="782" y="222"/>
      <point x="772.5" y="251.0" type="qcurve" smooth="yes" name="inserted"/>
      <point x="763" y="280"/>
      <point x="741" y="337"/>
      <point x="727" y="364" type="qcurve" smooth="yes"/>
      <point x="713" y="390"/>
      <point x="679" y="427"/>
      <point x="656.5" y="438.5" type="qcurve" smooth="yes" name="inserted"/>
      <point x="634" y="450"/>
      <point x="574" y="461"/>
      <point x="534" y="461" type="qcurve" smooth="yes"/>
      <point x="491" y="461" type="line"/>
      <point x="446" y="205" type="line"/>
      <point x="573" y="205" type="line" smooth="yes"/>
      <point x="590" y="205"/>
      <point x="612" y="197"/>
      <point x="617.5" y="185.5" type="qcurve" smooth="yes" name="inserted"/>
      <point x="623" y="174"/>
      <point x="623" y="134"/>
      <point x="617" y="102" type="qcurve" smooth="yes"/>
      <point x="611" y="70"/>
      <point x="598" y="30"/>
      <point x="588.5" y="19.0" type="qcurve" smooth="yes" name="inserted"/>
      <point x="579" y="8"/>
      <point x="554" y="0"/>
      <point x="537" y="0" type="qcurve" smooth="yes"/>
      <point x="53" y="0" type="line" smooth="yes"/>
      <point x="36" y="0"/>
      <point x="13" y="8"/>
      <point x="7.5" y="19.0" type="qcurve" smooth="yes" name="inserted"/>
      <point x="2" y="30"/>
      <point x="1" y="70"/>
      <point x="7" y="102" type="qcurve" smooth="yes"/>
      <point x="13" y="134"/>
      <point x="27" y="174"/>
      <point x="36.5" y="185.5" type="qcurve" smooth="yes" name="inserted"/>
      <point x="46" y="197"/>
      <point x="72" y="205"/>
      <point x="89" y="205" type="qcurve" smooth="yes"/>
      <point x="196" y="205" type="line"/>
    </contour>
    <contour>
      <point x="678" y="676" type="line" smooth="yes"/>
      <point x="742.0" y="676.0" name="inserted"/>
      <point x="833.5" y="705.0"/>
      <point x="861" y="734" type="qcurve" smooth="yes"/>
      <point x="883" y="757"/>
      <point x="907" y="824"/>
      <point x="907" y="857" type="qcurve" smooth="yes"/>
      <point x="907" y="915"/>
      <point x="821" y="972"/>
      <point x="730" y="972" type="qcurve" smooth="yes"/>
      <point x="581" y="972" type="line"/>
      <point x="529" y="676" type="line"/>
    </contour>
  </outline>
</glyph>
<glyph name="S" format="2">
  <advance width="1228"/>
  <unicode hex="0053"/>
  <outline>
    <contour>
      <point x="326" y="41" type="line" smooth="yes"/>
      <point x="321" y="7"/>
      <point x="267" y="-22"/>
      <point x="203" y="-22" type="qcurve" smooth="yes"/>
      <point x="139" y="-22"/>
      <point x="90" y="7"/>
      <point x="96" y="41" type="qcurve" smooth="yes"/>
      <point x="155" y="375" type="line" smooth="yes"/>
      <point x="161" y="409"/>
      <point x="209" y="438"/>
      <point x="258" y="438" type="qcurve" smooth="yes"/>
      <point x="293" y="438"/>
      <point x="330" y="420"/>
      <point x="338" y="398" type="qcurve" smooth="yes"/>
      <point x="373" y="296"/>
      <point x="503" y="191"/>
      <point x="605" y="191" type="qcurve" smooth="yes"/>
      <point x="664" y="191"/>
      <point x="743" y="222"/>
      <point x="767.0" y="245.5" type="qcurve" smooth="yes" name="inserted"/>
      <point x="791" y="269"/>
      <point x="811" y="325"/>
      <point x="811" y="351" type="qcurve" smooth="yes"/>
      <point x="811" y="389"/>
      <point x="767" y="437"/>
      <point x="729" y="454" type="qcurve" smooth="yes"/>
      <point x="688" y="473"/>
      <point x="579" y="499"/>
      <point x="521.5" y="514.0" type="qcurve" smooth="yes" name="inserted"/>
      <point x="464" y="529"/>
      <point x="354" y="570"/>
      <point x="312" y="604" type="qcurve" smooth="yes"/>
      <point x="272" y="636"/>
      <point x="225" y="727"/>
      <point x="225" y="793" type="qcurve" smooth="yes"/>
      <point x="225" y="861"/>
      <point x="271" y="1000"/>
      <point x="319" y="1057" type="qcurve" smooth="yes"/>
      <point x="380" y="1130"/>
      <point x="562" y="1209"/>
      <point x="671" y="1209" type="qcurve" smooth="yes"/>
      <point x="752" y="1209"/>
      <point x="886" y="1152"/>
      <point x="928" y="1104" type="qcurve"/>
      <point x="936" y="1146" type="line" smooth="yes"/>
      <point x="943" y="1180"/>
      <point x="995" y="1209"/>
      <point x="1059" y="1209" type="qcurve" smooth="yes"/>
      <point x="1123" y="1209"/>
      <point x="1172" y="1180"/>
      <point x="1166" y="1146" type="qcurve" smooth="yes"/>
      <point x="1117" y="872" type="line" smooth="yes"/>
      <point x="1111" y="838"/>
      <point x="1063" y="809"/>
      <point x="1014" y="809" type="qcurve" smooth="yes"/>
      <point x="980" y="809"/>
      <point x="946" y="825"/>
      <point x="938" y="841" type="qcurve" smooth="yes"/>
      <point x="905" y="913"/>
      <point x="773" y="996"/>
      <point x="673" y="996" type="qcurve" smooth="yes"/>
      <point x="627" y="996"/>
      <point x="559" y="967"/>
      <point x="537.0" y="945.5" type="qcurve" smooth="yes" name="inserted"/>
      <point x="515" y="924"/>
      <point x="493" y="872"/>
      <point x="493" y="849" type="qcurve" smooth="yes"/>
      <point x="493" y="822"/>
      <point x="529" y="788"/>
      <point x="561" y="775" type="qcurve" smooth="yes"/>
      <point x="599" y="760"/>
      <point x="703" y="738"/>
      <point x="759.5" y="724.5" type="qcurve" smooth="yes" name="inserted"/>
      <point x="816" y="711"/>
      <point x="927" y="672"/>
      <point x="972" y="639" type="qcurve" smooth="yes"/>
      <point x="1020" y="604"/>
      <point x="1081" y="495"/>
      <point x="1081" y="413" type="qcurve" smooth="yes"/>
      <point x="1081" y="341"/>
      <point x="1036" y="188"/>
      <point x="986" y="127" type="qcurve" smooth="yes"/>
      <point x="926" y="55"/>
      <point x="738" y="-22"/>
      <point x="608" y="-22" type="qcurve" smooth="yes"/>
      <point x="524" y="-22"/>
      <point x="382" y="34"/>
      <point x="333" y="84" type="qcurve"/>
    </contour>
  </outline>
</glyph>
<glyph name="U" format="1">
  <advance width="1228"/>
  <unicode hex="0055"/>
  <outline>
    <contour>
      <point x="216" y="982" type="line" smooth="yes"/>
      <point x="199" y="982"/>
      <point x="177" y="990"/>
      <point x="171.0" y="1001.0" type="qcurve" smooth="yes" name="inserted"/>
      <point x="165" y="1012"/>
      <point x="165" y="1052"/>
      <point x="171" y="1084" type="qcurve" smooth="yes"/>
      <point x="177" y="1116"/>
      <point x="191" y="1156"/>
      <point x="200.5" y="1167.5" type="qcurve" smooth="yes" name="inserted"/>
      <point x="210" y="1179"/>
      <point x="235" y="1187"/>
      <point x="252" y="1187" type="qcurve" smooth="yes"/>
      <point x="626" y="1187" type="line" smooth="yes"/>
      <point x="643" y="1187"/>
      <point x="665" y="1179"/>
      <point x="671.0" y="1167.5" type="qcurve" smooth="yes" name="inserted"/>
      <point x="677" y="1156"/>
      <point x="677" y="1116"/>
      <point x="671" y="1084" type="qcurve" smooth="yes"/>
      <point x="665" y="1052"/>
      <point x="651" y="1012"/>
      <point x="641.5" y="1001.0" type="qcurve" smooth="yes" name="inserted"/>
      <point x="632" y="990"/>
      <point x="607" y="982"/>
      <point x="590" y="982" type="qcurve" smooth="yes"/>
      <point x="513" y="982" type="line"/>
      <point x="416" y="433" type="line" smooth="yes"/>
      <point x="413.0" y="415.5" name="inserted"/>
      <point x="410.0" y="384.0"/>
      <point x="410" y="370" type="qcurve" smooth="yes"/>
      <point x="410" y="284"/>
      <point x="503" y="205"/>
      <point x="580" y="205" type="qcurve" smooth="yes"/>
      <point x="625" y="205"/>
      <point x="704" y="231"/>
      <point x="736.0" y="259.0" type="qcurve" smooth="yes" name="inserted"/>
      <point x="768" y="287"/>
      <point x="813" y="373"/>
      <point x="824" y="433" type="qcurve" smooth="yes"/>
      <point x="921" y="982" type="line"/>
      <point x="844" y="982" type="line" smooth="yes"/>
      <point x="827" y="982"/>
      <point x="805" y="990"/>
      <point x="799.0" y="1001.0" type="qcurve" smooth="yes" name="inserted"/>
      <point x="793" y="1012"/>
      <point x="793" y="1052"/>
      <point x="799" y="1084" type="qcurve" smooth="yes"/>
      <point x="805" y="1116"/>
      <point x="819" y="1156"/>
      <point x="828.5" y="1167.5" type="qcurve" smooth="yes" name="inserted"/>
      <point x="838" y="1179"/>
      <point x="863" y="1187"/>
      <point x="880" y="1187" type="qcurve" smooth="yes"/>
      <point x="1254" y="1187" type="line" smooth="yes"/>
      <point x="1271" y="1187"/>
      <point x="1293" y="1179"/>
      <point x="1299.0" y="1167.5" type="qcurve" smooth="yes" name="inserted"/>
      <point x="1305" y="1156"/>
      <point x="1305" y="1116"/>
      <point x="1299" y="1084" type="qcurve" smooth="yes"/>
      <point x="1293" y="1052"/>
      <point x="1279" y="1012"/>
      <point x="1269.5" y="1001.0" type="qcurve" smooth="yes" name="inserted"/>
      <point x="1260" y="990"/>
      <point x="1235" y="982"/>
      <point x="1218" y="982" type="qcurve" smooth="yes"/>
      <point x="1171" y="982" type="line"/>
      <point x="1068" y="403" type="line" smooth="yes"/>
      <point x="1030" y="192"/>
      <point x="771" y="-22"/>
      <point x="560" y="-22" type="qcurve" smooth="yes"/>
      <point x="467" y="-22"/>
      <point x="318" y="27"/>
      <point x="265.5" y="73.5" type="qcurve" smooth="yes" name="inserted"/>
      <point x="213" y="120"/>
      <point x="157" y="254"/>
      <point x="157" y="338" type="qcurve" smooth="yes"/>
      <point x="157.0" y="360.5" name="inserted"/>
      <point x="161.5" y="408.0"/>
      <point x="166" y="433" type="qcurve" smooth="yes"/>
      <point x="263" y="982" type="line"/>
    </contour>
  </outline>
</glyph>
<glyph name="V" format="1">
  <advance width="1228"/>
  <unicode hex="0056"/>
  <outline>
    <contour>
      <point x="156" y="982" type="line" smooth="yes"/>
      <point x="139" y="982"/>
      <point x="117" y="990"/>
      <point x="111.0" y="1001.0" type="qcurve" smooth="yes" name="inserted"/>
      <point x="105" y="1012"/>
      <point x="105" y="1052"/>
      <point x="111" y="1084" type="qcurve" smooth="yes"/>
      <point x="117" y="1116"/>
      <point x="131" y="1156"/>
      <point x="140.5" y="1167.5" type="qcurve" smooth="yes" name="inserted"/>
      <point x="150" y="1179"/>
      <point x="175" y="1187"/>
      <point x="192" y="1187" type="qcurve" smooth="yes"/>
      <point x="618" y="1187" type="line" smooth="yes"/>
      <point x="635" y="1187"/>
      <point x="657" y="1179"/>
      <point x="663.0" y="1167.5" type="qcurve" smooth="yes" name="inserted"/>
      <point x="669" y="1156"/>
      <point x="669" y="1116"/>
      <point x="663" y="1084" type="qcurve" smooth="yes"/>
      <point x="657" y="1052"/>
      <point x="643" y="1012"/>
      <point x="633.5" y="1001.0" type="qcurve" smooth="yes" name="inserted"/>
      <point x="624" y="990"/>
      <point x="599" y="982"/>
      <point x="582" y="982" type="qcurve" smooth="yes"/>
      <point x="493" y="982" type="line"/>
      <point x="600" y="369" type="line"/>
      <point x="937" y="982" type="line"/>
      <point x="866" y="982" type="line" smooth="yes"/>
      <point x="849" y="982"/>
      <point x="827" y="990"/>
      <point x="821.0" y="1001.0" type="qcurve" smooth="yes" name="inserted"/>
      <point x="815" y="1012"/>
      <point x="815" y="1052"/>
      <point x="821" y="1084" type="qcurve" smooth="yes"/>
      <point x="827" y="1116"/>
      <point x="841" y="1156"/>
      <point x="850.5" y="1167.5" type="qcurve" smooth="yes" name="inserted"/>
      <point x="860" y="1179"/>
      <point x="885" y="1187"/>
      <point x="902" y="1187" type="qcurve" smooth="yes"/>
      <point x="1314" y="1187" type="line" smooth="yes"/>
      <point x="1331" y="1187"/>
      <point x="1353" y="1179"/>
      <point x="1359.0" y="1167.5" type="qcurve" smooth="yes" name="inserted"/>
      <point x="1365" y="1156"/>
      <point x="1365" y="1116"/>
      <point x="1359" y="1084" type="qcurve" smooth="yes"/>
      <point x="1353" y="1052"/>
      <point x="1339" y="1012"/>
      <point x="1329.5" y="1001.0" type="qcurve" smooth="yes" name="inserted"/>
      <point x="1320" y="990"/>
      <point x="1295" y="982"/>
      <point x="1278" y="982" type="qcurve" smooth="yes"/>
      <point x="1210" y="982" type="line"/>
      <point x="681" y="43" type="line" smooth="yes"/>
      <point x="671" y="25"/>
      <point x="647" y="1"/>
      <point x="630.5" y="-7.0" type="qcurve" smooth="yes" name="inserted"/>
      <point x="614" y="-15"/>
      <point x="568" y="-22"/>
      <point x="537" y="-22" type="qcurve" smooth="yes"/>
      <point x="506" y="-22"/>
      <point x="463" y="-15"/>
      <point x="449.0" y="-7.0" type="qcurve" smooth="yes" name="inserted"/>
      <point x="435" y="1"/>
      <point x="420" y="26"/>
      <point x="417" y="43" type="qcurve" smooth="yes"/>
      <point x="233" y="982" type="line"/>
    </contour>
  </outline>
</glyph>
<glyph name="W" format="2">
  <advance width="1228"/>
  <unicode hex="0057"/>
  <outline>
    <contour>
      <point x="146" y="982" type="line" smooth="yes"/>
      <point x="129" y="982"/>
      <point x="107" y="990"/>
      <point x="101.0" y="1001.0" type="qcurve" smooth="yes" name="inserted"/>
      <point x="95" y="1012"/>
      <point x="95" y="1052"/>
      <point x="101" y="1084" type="qcurve" smooth="yes"/>
      <point x="107" y="1116"/>
      <point x="121" y="1156"/>
      <point x="130.5" y="1167.5" type="qcurve" smooth="yes" name="inserted"/>
      <point x="140" y="1179"/>
      <point x="165" y="1187"/>
      <point x="182" y="1187" type="qcurve" smooth="yes"/>
      <point x="566" y="1187" type="line" smooth="yes"/>
      <point x="583" y="1187"/>
      <point x="605" y="1179"/>
      <point x="611.0" y="1167.5" type="qcurve" smooth="yes" name="inserted"/>
      <point x="617" y="1156"/>
      <point x="617" y="1116"/>
      <point x="611" y="1084" type="qcurve" smooth="yes"/>
      <point x="605" y="1052"/>
      <point x="591" y="1012"/>
      <point x="581.5" y="1001.0" type="qcurve" smooth="yes" name="inserted"/>
      <point x="572" y="990"/>
      <point x="547" y="982"/>
      <point x="530" y="982" type="qcurve" smooth="yes"/>
      <point x="412" y="982" type="line"/>
      <point x="366" y="408" type="line"/>
      <point x="584" y="826" type="line" smooth="yes"/>
      <point x="589" y="836"/>
      <point x="603" y="853"/>
      <point x="614.5" y="859.5" type="qcurve" smooth="yes" name="inserted"/>
      <point x="626" y="866"/>
      <point x="660" y="873"/>
      <point x="686" y="873" type="qcurve" smooth="yes"/>
      <point x="738" y="873"/>
      <point x="776" y="853"/>
      <point x="779" y="833" type="qcurve" smooth="yes"/>
      <point x="849" y="408" type="line"/>
      <point x="1008" y="982" type="line"/>
      <point x="904" y="982" type="line" smooth="yes"/>
      <point x="887" y="982"/>
      <point x="865" y="990"/>
      <point x="859.0" y="1001.0" type="qcurve" smooth="yes" name="inserted"/>
      <point x="853" y="1012"/>
      <point x="853" y="1052"/>
      <point x="859" y="1084" type="qcurve" smooth="yes"/>
      <point x="865" y="1116"/>
      <point x="879" y="1156"/>
      <point x="888.5" y="1167.5" type="qcurve" smooth="yes" name="inserted"/>
      <point x="898" y="1179"/>
      <point x="923" y="1187"/>
      <point x="940" y="1187" type="qcurve" smooth="yes"/>
      <point x="1324" y="1187" type="line" smooth="yes"/>
      <point x="1341" y="1187"/>
      <point x="1363" y="1179"/>
      <point x="1369.0" y="1167.5" type="qcurve" smooth="yes" name="inserted"/>
      <point x="1375" y="1156"/>
      <point x="1375" y="1116"/>
      <point x="1369" y="1084" type="qcurve" smooth="yes"/>
      <point x="1363" y="1052"/>
      <point x="1349" y="1012"/>
      <point x="1339.5" y="1001.0" type="qcurve" smooth="yes" name="inserted"/>
      <point x="1330" y="990"/>
      <point x="1305" y="982"/>
      <point x="1288" y="982" type="qcurve" smooth="yes"/>
      <point x="1233" y="982" type="line"/>
      <point x="965" y="43" type="line" smooth="yes"/>
      <point x="960" y="25"/>
      <point x="943" y="0"/>
      <point x="928.0" y="-7.5" type="qcurve" smooth="yes" name="inserted"/>
      <point x="913" y="-15"/>
      <point x="867" y="-22"/>
      <point x="833" y="-22" type="qcurve" smooth="yes"/>
      <point x="799" y="-22"/>
      <point x="753" y="-14"/>
      <point x="739.0" y="-6.0" type="qcurve" smooth="yes" name="inserted"/>
      <point x="725" y="2"/>
      <point x="710" y="26"/>
      <point x="707" y="43" type="qcurve" smooth="yes"/>
      <point x="630" y="514" type="line"/>
      <point x="385" y="43" type="line" smooth="yes"/>
      <point x="376" y="26"/>
      <point x="352" y="1"/>
      <point x="335.0" y="-7.0" type="qcurve" smooth="yes" name="inserted"/>
      <point x="318" y="-15"/>
      <point x="269" y="-22"/>
      <point x="235" y="-22" type="qcurve" smooth="yes"/>
      <point x="201" y="-22"/>
      <point x="158" y="-15"/>
      <point x="146.0" y="-7.5" type="qcurve" smooth="yes" name="inserted"/>
      <point x="134" y="0"/>
      <point x="126" y="25"/>
      <point x="127" y="43" type="qcurve" smooth="yes"/>
      <point x="195" y="982" type="line"/>
    </contour>
  </outline>
</glyph>
<glyph name="Y" format="1">
  <advance width="1228"/>
  <unicode hex="0059"/>
  <outline>
    <contour>
      <point x="626" y="1187" type="line" smooth="yes"/>
      <point x="643" y="1187"/>
      <point x="665" y="1179"/>
      <point x="671.0" y="1167.5" type="qcurve" smooth="yes" name="inserted"/>
      <point x="677" y="1156"/>
      <point x="677" y="1116"/>
      <point x="671" y="1084" type="qcurve" smooth="yes"/>
      <point x="665" y="1052"/>
      <point x="651" y="1012"/>
      <point x="641.5" y="1001.0" type="qcurve" smooth="yes" name="inserted"/>
      <point x="632" y="990"/>
      <point x="607" y="982"/>
      <point x="590" y="982" type="qcurve" smooth="yes"/>
      <point x="523" y="982" type="line"/>
      <point x="657" y="690" type="line"/>
      <point x="896" y="982" type="line"/>
      <point x="844" y="982" type="line" smooth="yes"/>
      <point x="827" y="982"/>
      <point x="805" y="990"/>
      <point x="799.0" y="1001.0" type="qcurve" smooth="yes" name="inserted"/>
      <point x="793" y="1012"/>
      <point x="793" y="1052"/>
      <point x="799" y="1084" type="qcurve" smooth="yes"/>
      <point x="805" y="1116"/>
      <point x="819" y="1156"/>
      <point x="828.5" y="1167.5" type="qcurve" smooth="yes" name="inserted"/>
      <point x="838" y="1179"/>
      <point x="863" y="1187"/>
      <point x="880" y="1187" type="qcurve" smooth="yes"/>
      <point x="1264" y="1187" type="line" smooth="yes"/>
      <point x="1281" y="1187"/>
      <point x="1303" y="1179"/>
      <point x="1309.0" y="1167.5" type="qcurve" smooth="yes" name="inserted"/>
      <point x="1315" y="1156"/>
      <point x="1315" y="1116"/>
      <point x="1309" y="1084" type="qcurve" smooth="yes"/>
      <point x="1303" y="1052"/>
      <point x="1289" y="1012"/>
      <point x="1279.5" y="1001.0" type="qcurve" smooth="yes" name="inserted"/>
      <point x="1270" y="990"/>
      <point x="1245" y="982"/>
      <point x="1228" y="982" type="qcurve" smooth="yes"/>
      <point x="1183" y="982" type="line"/>
      <point x="750" y="460" type="line"/>
      <point x="705" y="205" type="line"/>
      <point x="911" y="205" type="line" smooth="yes"/>
      <point x="928" y="205"/>
      <point x="950" y="197"/>
      <point x="955.5" y="185.5" type="qcurve" smooth="yes" name="inserted"/>
      <point x="961" y="174"/>
      <point x="961" y="134"/>
      <point x="955" y="102" type="qcurve" smooth="yes"/>
      <point x="949" y="70"/>
      <point x="936" y="30"/>
      <point x="926.5" y="19.0" type="qcurve" smooth="yes" name="inserted"/>
      <point x="917" y="8"/>
      <point x="892" y="0"/>
      <point x="875" y="0" type="qcurve" smooth="yes"/>
      <point x="233" y="0" type="line" smooth="yes"/>
      <point x="216" y="0"/>
      <point x="193" y="8"/>
      <point x="187.5" y="19.0" type="qcurve" smooth="yes" name="inserted"/>
      <point x="182" y="30"/>
      <point x="181" y="70"/>
      <point x="187" y="102" type="qcurve" smooth="yes"/>
      <point x="193" y="134"/>
      <point x="207" y="174"/>
      <point x="216.5" y="185.5" type="qcurve" smooth="yes" name="inserted"/>
      <point x="226" y="197"/>
      <point x="252" y="205"/>
      <point x="269" y="205" type="qcurve" smooth="yes"/>
      <point x="455" y="205" type="line"/>
      <point x="501" y="467" type="line"/>
      <point x="256" y="982" type="line"/>
      <point x="206" y="982" type="line" smooth="yes"/>
      <point x="189" y="982"/>
      <point x="167" y="990"/>
      <point x="161.0" y="1001.0" type="qcurve" smooth="yes" name="inserted"/>
      <point x="155" y="1012"/>
      <point x="155" y="1052"/>
      <point x="161" y="1084" type="qcurve" smooth="yes"/>
      <point x="167" y="1116"/>
      <point x="181" y="1156"/>
      <point x="190.5" y="1167.5" type="qcurve" smooth="yes" name="inserted"/>
      <point x="200" y="1179"/>
      <point x="225" y="1187"/>
      <point x="242" y="1187" type="qcurve" smooth="yes"/>
    </contour>
  </outline>
</glyph>
<glyph name="bracketleft" format="2">
  <advance width="1228"/>
  <unicode hex="005B"/>
  <outline>
    <contour>
      <point x="759" y="-188" type="line" smooth="yes"/>
      <point x="776" y="-188"/>
      <point x="798" y="-196"/>
      <point x="804.0" y="-207.0" type="qcurve" smooth="yes" name="inserted"/>
      <point x="810" y="-218"/>
      <point x="810" y="-258"/>
      <point x="804" y="-290" type="qcurve" smooth="yes"/>
      <point x="798" y="-322"/>
      <point x="784" y="-362"/>
      <point x="774.5" y="-373.5" type="qcurve" smooth="yes" name="inserted"/>
      <point x="765" y="-385"/>
      <point x="740" y="-393"/>
      <point x="723" y="-393" type="qcurve" smooth="yes"/>
      <point x="213" y="-393" type="line" smooth="yes"/>
      <point x="179" y="-393"/>
      <point x="155" y="-364"/>
      <point x="161" y="-330" type="qcurve" smooth="yes"/>
      <point x="440" y="1249" type="line" smooth="yes"/>
      <point x="446" y="1283"/>
      <point x="480" y="1312"/>
      <point x="514" y="1312" type="qcurve" smooth="yes"/>
      <point x="1024" y="1312" type="line" smooth="yes"/>
      <point x="1041" y="1312"/>
      <point x="1063" y="1304"/>
      <point x="1069.0" y="1292.5" type="qcurve" smooth="yes" name="inserted"/>
      <point x="1075" y="1281"/>
      <point x="1075" y="1241"/>
      <point x="1069" y="1209" type="qcurve" smooth="yes"/>
      <point x="1063" y="1177"/>
      <point x="1049" y="1137"/>
      <point x="1039.5" y="1126.0" type="qcurve" smooth="yes" name="inserted"/>
      <point x="1030" y="1115"/>
      <point x="1005" y="1107"/>
      <point x="988" y="1107" type="qcurve" smooth="yes"/>
      <point x="665" y="1107" type="line"/>
      <point x="436" y="-188" type="line"/>
    </contour>
  </outline>
</glyph>
<glyph name="backslash" format="1">
  <advance width="1228"/>
  <unicode hex="005C"/>
  <outline>
    <contour>
      <point x="316" y="1221" type="line" smooth="yes"/>
      <point x="308" y="1248"/>
      <point x="334" y="1291"/>
      <point x="357.0" y="1306.5" type="qcurve" smooth="yes" name="inserted"/>
      <point x="380" y="1322"/>
      <point x="440" y="1339"/>
      <point x="467" y="1339" type="qcurve" smooth="yes"/>
      <point x="493" y="1339"/>
      <point x="530" y="1322"/>
      <point x="535" y="1305" type="qcurve" smooth="yes"/>
      <point x="954" y="-183" type="line" smooth="yes"/>
      <point x="961" y="-209"/>
      <point x="935" y="-252"/>
      <point x="911.5" y="-267.5" type="qcurve" smooth="yes" name="inserted"/>
      <point x="888" y="-283"/>
      <point x="828" y="-300"/>
      <point x="801" y="-300" type="qcurve" smooth="yes"/>
      <point x="776" y="-300"/>
      <point x="740" y="-284"/>
      <point x="735" y="-267" type="qcurve" smooth="yes"/>
    </contour>
  </outline>
</glyph>
<glyph name="asciicircum" format="1">
  <advance width="1228"/>
  <unicode hex="005E"/>
  <outline>
    <contour>
      <point x="710" y="887" type="line"/>
      <point x="457" y="497" type="line" smooth="yes"/>
      <point x="450" y="486"/>
      <point x="421" y="472"/>
      <point x="402.0" y="469.5" type="qcurve" smooth="yes" name="inserted"/>
      <point x="383" y="467"/>
      <point x="340" y="469"/>
      <point x="319" y="473" type="qcurve" smooth="yes"/>
      <point x="295" y="478"/>
      <point x="252" y="495"/>
      <point x="238.0" y="506.5" type="qcurve" smooth="yes" name="inserted"/>
      <point x="224" y="518"/>
      <point x="216" y="546"/>
      <point x="227" y="562" type="qcurve" smooth="yes"/>
      <point x="652" y="1172" type="line" smooth="yes"/>
      <point x="665" y="1190"/>
      <point x="712" y="1209"/>
      <point x="757" y="1209" type="qcurve" smooth="yes"/>
      <point x="801" y="1209"/>
      <point x="842" y="1190"/>
      <point x="848" y="1172" type="qcurve" smooth="yes"/>
      <point x="1059" y="562" type="line" smooth="yes"/>
      <point x="1064" y="548"/>
      <point x="1052" y="522"/>
      <point x="1039.0" y="511.0" type="qcurve" smooth="yes" name="inserted"/>
      <point x="1026" y="500"/>
      <point x="988" y="483"/>
      <point x="967" y="477" type="qcurve" smooth="yes"/>
      <point x="945" y="471"/>
      <point x="900" y="466"/>
      <point x="881.0" y="468.5" type="qcurve" smooth="yes" name="inserted"/>
      <point x="862" y="471"/>
      <point x="835" y="485"/>
      <point x="831" y="497" type="qcurve" smooth="yes"/>
    </contour>
  </outline>
</glyph>
<glyph name="a" format="2">
  <advance width="1228"/>
  <unicode hex="0061"/>
  <outline>
    <contour>
      <point x="785" y="127" type="qcurve"/>
      <point x="711" y="50"/>
      <point x="542" y="-22"/>
      <point x="454" y="-22" type="qcurve" smooth="yes"/>
      <point x="366" y="-22"/>
      <point x="228" y="41"/>
      <point x="180.5" y="95.0" type="qcurve" smooth="yes" name="inserted"/>
      <point x="133" y="149"/>
      <point x="83" y="296"/>
      <point x="83" y="380" type="qcurve" smooth="yes"/>
      <point x="83" y="443"/>
      <point x="111" y="576"/>
      <point x="139.0" y="639.0" type="qcurve" smooth="yes" name="inserted"/>
      <point x="167" y="702"/>
      <point x="251" y="813"/>
      <point x="308.0" y="855.0" type="qcurve" smooth="yes" name="inserted"/>
      <point x="365" y="897"/>
      <point x="507" y="946"/>
      <point x="594" y="946" type="qcurve" smooth="yes"/>
      <point x="691" y="946"/>
      <point x="840" y="856"/>
      <point x="878" y="777" type="qcurve"/>
      <point x="894" y="871" type="line" smooth="yes"/>
      <point x="900" y="905"/>
      <point x="960" y="934"/>
      <point x="1017" y="934" type="qcurve" smooth="yes"/>
      <point x="1073" y="934"/>
      <point x="1110" y="905"/>
      <point x="1104" y="871" type="qcurve" smooth="yes"/>
      <point x="1002" y="290" type="line" smooth="yes"/>
      <point x="994" y="250"/>
      <point x="1021" y="205"/>
      <point x="1053" y="205" type="qcurve" smooth="yes"/>
      <point x="1082" y="205" type="line" smooth="yes"/>
      <point x="1099" y="205"/>
      <point x="1121" y="197"/>
      <point x="1126.5" y="185.5" type="qcurve" smooth="yes" name="inserted"/>
      <point x="1132" y="174"/>
      <point x="1132" y="134"/>
      <point x="1126" y="102" type="qcurve" smooth="yes"/>
      <point x="1120" y="70"/>
      <point x="1107" y="30"/>
      <point x="1097.5" y="19.0" type="qcurve" smooth="yes" name="inserted"/>
      <point x="1088" y="8"/>
      <point x="1063" y="0"/>
      <point x="1046" y="0" type="qcurve" smooth="yes"/>
      <point x="951" y="0" type="line" smooth="yes"/>
      <point x="921" y="0"/>
      <point x="866" y="13"/>
      <point x="844.0" y="28.0" type="qcurve" smooth="yes" name="inserted"/>
      <point x="822" y="43"/>
      <point x="791" y="92"/>
    </contour>
    <contour>
      <point x="514" y="205" type="qcurve" smooth="yes"/>
      <point x="581" y="205"/>
      <point x="686" y="263"/>
      <point x="722.0" y="308.5" type="qcurve" smooth="yes" name="inserted"/>
      <point x="758" y="354"/>
      <point x="795" y="467"/>
      <point x="795" y="522" type="qcurve" smooth="yes"/>
      <point x="795" y="570"/>
      <point x="766" y="644"/>
      <point x="740.5" y="668.5" type="qcurve" smooth="yes" name="inserted"/>
      <point x="715" y="693"/>
      <point x="645" y="719"/>
      <point x="604" y="719" type="qcurve" smooth="yes"/>
      <point x="536" y="719"/>
      <point x="439" y="653"/>
      <point x="408.0" y="603.5" type="qcurve" smooth="yes" name="inserted"/>
      <point x="377" y="554"/>
      <point x="349" y="439"/>
      <point x="349" y="391" type="qcurve" smooth="yes"/>
      <point x="349" y="304"/>
      <point x="435" y="205"/>
    </contour>
  </outline>
</glyph>
<glyph name="b" format="2">
  <advance width="1228"/>
  <unicode hex="0062"/>
  <outline>
    <contour>
      <point x="776" y="946" type="qcurve" smooth="yes"/>
      <point x="859" y="946"/>
      <point x="993" y="887"/>
      <point x="1040.0" y="833.5" type="qcurve" smooth="yes" name="inserted"/>
      <point x="1087" y="780"/>
      <point x="1137" y="632"/>
      <point x="1137" y="544" type="qcurve" smooth="yes"/>
      <point x="1137" y="481"/>
      <point x="1109" y="348"/>
      <point x="1081.0" y="285.0" type="qcurve" smooth="yes" name="inserted"/>
      <point x="1053" y="222"/>
      <point x="969" y="111"/>
      <point x="912.0" y="69.0" type="qcurve" smooth="yes" name="inserted"/>
      <point x="855" y="27"/>
      <point x="712" y="-22"/>
      <point x="626" y="-22" type="qcurve" smooth="yes"/>
      <point x="529" y="-22"/>
      <point x="381" y="73"/>
      <point x="343" y="152" type="qcurve"/>
      <point x="326" y="53" type="line" smooth="yes"/>
      <point x="320" y="19"/>
      <point x="260" y="-10"/>
      <point x="203" y="-10" type="qcurve" smooth="yes"/>
      <point x="147" y="-10"/>
      <point x="110" y="19"/>
      <point x="116" y="53" type="qcurve" smooth="yes"/>
      <point x="302" y="1107" type="line"/>
      <point x="205" y="1107" type="line" smooth="yes"/>
      <point x="188" y="1107"/>
      <point x="166" y="1115"/>
      <point x="160.0" y="1126.0" type="qcurve" smooth="yes" name="inserted"/>
      <point x="154" y="1137"/>
      <point x="154" y="1177"/>
      <point x="160" y="1209" type="qcurve" smooth="yes"/>
      <point x="166" y="1241"/>
      <point x="180" y="1281"/>
      <point x="189.5" y="1292.5" type="qcurve" smooth="yes" name="inserted"/>
      <point x="199" y="1304"/>
      <point x="224" y="1312"/>
      <point x="241" y="1312" type="qcurve" smooth="yes"/>
      <point x="525" y="1312" type="line" smooth="yes"/>
      <point x="559" y="1312"/>
      <point x="583" y="1283"/>
      <point x="577" y="1249" type="qcurve" smooth="yes"/>
      <point x="503" y="833" type="line"/>
      <point x="563" y="886"/>
      <point x="698" y="946"/>
    </contour>
    <contour>
      <point x="706" y="719" type="qcurve" smooth="yes"/>
      <point x="638" y="719"/>
      <point x="534" y="661"/>
      <point x="498.0" y="615.5" type="qcurve" smooth="yes" name="inserted"/>
      <point x="462" y="570"/>
      <point x="425" y="457"/>
      <point x="425" y="402" type="qcurve" smooth="yes"/>
      <point x="425" y="354"/>
      <point x="454" y="280"/>
      <point x="479.5" y="255.5" type="qcurve" smooth="yes" name="inserted"/>
      <point x="505" y="231"/>
      <point x="575" y="205"/>
      <point x="616" y="205" type="qcurve" smooth="yes"/>
      <point x="684" y="205"/>
      <point x="781" y="271"/>
      <point x="811.5" y="320.5" type="qcurve" smooth="yes" name="inserted"/>
      <point x="842" y="370"/>
      <point x="871" y="485"/>
      <point x="871" y="533" type="qcurve" smooth="yes"/>
      <point x="871" y="620"/>
      <point x="785" y="719"/>
    </contour>
  </outline>
</glyph>
<glyph name="e" format="2">
  <advance width="1228"/>
  <unicode hex="0065"/>
  <outline>
    <contour>
      <point x="385" y="329" type="line"/>
      <point x="400" y="267"/>
      <point x="494" y="205"/>
      <point x="570" y="205" type="qcurve" smooth="yes"/>
      <point x="651" y="205"/>
      <point x="830" y="230"/>
      <point x="935" y="260" type="qcurve" smooth="yes"/>
      <point x="952" y="265"/>
      <point x="978" y="263"/>
      <point x="988.0" y="253.5" type="qcurve" smooth="yes" name="inserted"/>
      <point x="998" y="244"/>
      <point x="1013" y="206"/>
      <point x="1019" y="176" type="qcurve" smooth="yes"/>
      <point x="1025" y="145"/>
      <point x="1026" y="102"/>
      <point x="1020.0" y="87.5" type="qcurve" smooth="yes" name="inserted"/>
      <point x="1014" y="73"/>
      <point x="989" y="55"/>
      <point x="970" y="49" type="qcurve" smooth="yes"/>
      <point x="864" y="16"/>
      <point x="638" y="-22"/>
      <point x="530" y="-22" type="qcurve" smooth="yes"/>
      <point x="432" y="-22"/>
      <point x="280" y="39"/>
      <point x="228.5" y="92.5" type="qcurve" smooth="yes" name="inserted"/>
      <point x="177" y="146"/>
      <point x="123" y="293"/>
      <point x="123" y="379" type="qcurve" smooth="yes"/>
      <point x="123" y="431"/>
      <point x="141" y="536"/>
      <point x="159.0" y="586.5" type="qcurve" smooth="yes" name="inserted"/>
      <point x="177" y="637"/>
      <point x="232" y="731"/>
      <point x="269" y="772" type="qcurve" smooth="yes"/>
      <point x="345" y="855"/>
      <point x="562" y="946"/>
      <point x="700" y="946" type="qcurve" smooth="yes"/>
      <point x="788" y="946"/>
      <point x="932" y="901"/>
      <point x="983.0" y="860.0" type="qcurve" smooth="yes" name="inserted"/>
      <point x="1034" y="819"/>
      <point x="1089" y="706"/>
      <point x="1089" y="637" type="qcurve" smooth="yes"/>
      <point x="1089" y="599"/>
      <point x="1069" y="512"/>
      <point x="1044" y="475" type="qcurve" smooth="yes"/>
      <point x="1015" y="432"/>
      <point x="913" y="382"/>
      <point x="838" y="374" type="qcurve" smooth="yes"/>
    </contour>
    <contour>
      <point x="670" y="719" type="qcurve" smooth="yes"/>
      <point x="567" y="719"/>
      <point x="429" y="619"/>
      <point x="398" y="516" type="qcurve"/>
      <point x="747" y="551" type="line" smooth="yes"/>
      <point x="792" y="556"/>
      <point x="825" y="598"/>
      <point x="825" y="624" type="qcurve" smooth="yes"/>
      <point x="825" y="641"/>
      <point x="807" y="675"/>
      <point x="788.0" y="688.5" type="qcurve" smooth="yes" name="inserted"/>
      <point x="769" y="702"/>
      <point x="710" y="719"/>
    </contour>
  </outline>
</glyph>
<glyph name="g" format="2">
  <advance width="1228"/>
  <unicode hex="0067"/>
  <outline>
    <contour>
      <point x="494" y="8" type="qcurve" smooth="yes"/>
      <point x="408" y="8"/>
      <point x="272" y="67"/>
      <point x="225.5" y="118.5" type="qcurve" smooth="yes" name="inserted"/>
      <point x="179" y="170"/>
      <point x="130" y="312"/>
      <point x="130" y="395" type="qcurve" smooth="yes"/>
      <point x="130" y="459"/>
      <point x="158" y="591"/>
      <point x="186.0" y="652.0" type="qcurve" smooth="yes" name="inserted"/>
      <point x="214" y="713"/>
      <point x="298" y="820"/>
      <point x="355.0" y="860.0" type="qcurve" smooth="yes" name="inserted"/>
      <point x="412" y="900"/>
      <point x="553" y="946"/>
      <point x="639" y="946" type="qcurve" smooth="yes"/>
      <point x="736" y="946"/>
      <point x="880" y="867"/>
      <point x="925" y="791" type="qcurve"/>
      <point x="939" y="871" type="line" smooth="yes"/>
      <point x="945" y="905"/>
      <point x="1005" y="934"/>
      <point x="1062" y="934" type="qcurve" smooth="yes"/>
      <point x="1118" y="934"/>
      <point x="1155" y="905"/>
      <point x="1149" y="871" type="qcurve" smooth="yes"/>
      <point x="995" y="-4" type="line" smooth="yes"/>
      <point x="978" y="-100"/>
      <point x="901" y="-252"/>
      <point x="837.5" y="-305.5" type="qcurve" smooth="yes" name="inserted"/>
      <point x="774" y="-359"/>
      <point x="596" y="-415"/>
      <point x="478" y="-415" type="qcurve" smooth="yes"/>
      <point x="405" y="-415"/>
      <point x="231" y="-385"/>
      <point x="136" y="-356" type="qcurve" smooth="yes"/>
      <point x="102" y="-345"/>
      <point x="88" y="-285"/>
      <point x="112" y="-221" type="qcurve" smooth="yes"/>
      <point x="124" y="-190"/>
      <point x="149" y="-154"/>
      <point x="162.5" y="-145.5" type="qcurve" smooth="yes" name="inserted"/>
      <point x="176" y="-137"/>
      <point x="205" y="-137"/>
      <point x="220" y="-141" type="qcurve" smooth="yes"/>
      <point x="286" y="-161"/>
      <point x="428" y="-188"/>
      <point x="488" y="-188" type="qcurve" smooth="yes"/>
      <point x="609" y="-188"/>
      <point x="731" y="-85"/>
      <point x="748" y="16" type="qcurve" smooth="yes"/>
      <point x="767" y="123" type="line"/>
      <point x="708" y="69"/>
      <point x="569" y="8"/>
    </contour>
    <contour>
      <point x="564" y="235" type="qcurve" smooth="yes"/>
      <point x="633" y="235"/>
      <point x="737" y="288"/>
      <point x="771.5" y="330.5" type="qcurve" smooth="yes" name="inserted"/>
      <point x="806" y="373"/>
      <point x="841" y="480"/>
      <point x="841" y="534" type="qcurve" smooth="yes"/>
      <point x="841" y="580"/>
      <point x="812" y="650"/>
      <point x="786.0" y="673.0" type="qcurve" smooth="yes" name="inserted"/>
      <point x="760" y="696"/>
      <point x="690" y="719"/>
      <point x="649" y="719" type="qcurve" smooth="yes"/>
      <point x="584" y="719"/>
      <point x="489" y="662"/>
      <point x="458.0" y="617.5" type="qcurve" smooth="yes" name="inserted"/>
      <point x="427" y="573"/>
      <point x="397" y="464"/>
      <point x="397" y="412" type="qcurve" smooth="yes"/>
      <point x="397" y="325"/>
      <point x="486" y="235"/>
    </contour>
  </outline>
</glyph>
<glyph name="i" format="2">
  <advance width="1228"/>
  <unicode hex="0069"/>
  <outline>
    <contour>
      <point x="826" y="1156" type="line" smooth="yes"/>
      <point x="823" y="1139"/>
      <point x="807" y="1115"/>
      <point x="791.5" y="1107.5" type="qcurve" smooth="yes"/>
      <point x="776" y="1100"/>
      <point x="728" y="1093"/>
      <point x="692" y="1093" type="qcurve" smooth="yes"/>
      <point x="621" y="1093"/>
      <point x="570" y="1122"/>
      <point x="576" y="1156" type="qcurve" smooth="yes"/>
      <point x="605" y="1320" type="line" smooth="yes"/>
      <point x="608" y="1337"/>
      <point x="624" y="1361"/>
      <point x="639.0" y="1368.5" type="qcurve" smooth="yes"/>
      <point x="654" y="1376"/>
      <point x="702" y="1383"/>
      <point x="738" y="1383" type="qcurve" smooth="yes"/>
      <point x="809" y="1383"/>
      <point x="861" y="1354"/>
      <point x="855" y="1320" type="qcurve" smooth="yes"/>
    </contour>
    <contour>
      <point x="306" y="719" type="line" smooth="yes"/>
      <point x="289" y="719"/>
      <point x="267" y="727"/>
      <point x="261.0" y="738.0" type="qcurve" smooth="yes"/>
      <point x="255" y="749"/>
      <point x="255" y="789"/>
      <point x="261" y="821" type="qcurve" smooth="yes"/>
      <point x="267" y="853"/>
      <point x="281" y="893"/>
      <point x="290.5" y="904.5" type="qcurve" smooth="yes"/>
      <point x="300" y="916"/>
      <point x="325" y="924"/>
      <point x="342" y="924" type="qcurve" smooth="yes"/>
      <point x="722" y="924" type="line" smooth="yes"/>
      <point x="756" y="924"/>
      <point x="780" y="895"/>
      <point x="774" y="861" type="qcurve" smooth="yes"/>
      <point x="686" y="361" type="line" smooth="yes"/>
      <point x="684" y="347"/>
      <point x="681" y="320"/>
      <point x="681" y="308" type="qcurve" smooth="yes"/>
      <point x="681" y="254"/>
      <point x="730" y="205"/>
      <point x="778" y="205" type="qcurve" smooth="yes"/>
      <point x="803" y="205"/>
      <point x="849" y="212"/>
      <point x="873.5" y="219.5" type="qcurve" smooth="yes"/>
      <point x="898" y="227"/>
      <point x="950" y="250"/>
      <point x="981" y="267" type="qcurve" smooth="yes"/>
      <point x="1019" y="287"/>
      <point x="1067" y="253"/>
      <point x="1090" y="204" type="qcurve" smooth="yes"/>
      <point x="1100" y="182"/>
      <point x="1112" y="145"/>
      <point x="1110.5" y="129.0" type="qcurve" smooth="yes"/>
      <point x="1109" y="113"/>
      <point x="1090" y="86"/>
      <point x="1070" y="74" type="qcurve" smooth="yes"/>
      <point x="1022" y="47"/>
      <point x="938" y="10"/>
      <point x="898.0" y="-1.0" type="qcurve" smooth="yes"/>
      <point x="858" y="-12"/>
      <point x="779" y="-22"/>
      <point x="736" y="-22" type="qcurve" smooth="yes"/>
      <point x="589" y="-22"/>
      <point x="429" y="132"/>
      <point x="429" y="272" type="qcurve" smooth="yes"/>
      <point x="429.0" y="294.5"/>
      <point x="433.5" y="342.5"/>
      <point x="438" y="368" type="qcurve" smooth="yes"/>
      <point x="499" y="719" type="line"/>
    </contour>
  </outline>
</glyph>
<glyph name="n" format="1">
  <advance width="1228"/>
  <unicode hex="006E"/>
  <outline>
    <contour>
      <point x="273" y="719" type="line"/>
      <point x="176" y="719" type="line" smooth="yes"/>
      <point x="159" y="719"/>
      <point x="137" y="727"/>
      <point x="131.0" y="738.0" type="qcurve" smooth="yes" name="inserted"/>
      <point x="125" y="749"/>
      <point x="125" y="789"/>
      <point x="131" y="821" type="qcurve" smooth="yes"/>
      <point x="137" y="853"/>
      <point x="151" y="893"/>
      <point x="160.5" y="904.5" type="qcurve" smooth="yes" name="inserted"/>
      <point x="170" y="916"/>
      <point x="195" y="924"/>
      <point x="212" y="924" type="qcurve" smooth="yes"/>
      <point x="456" y="924" type="line" smooth="yes"/>
      <point x="490" y="924"/>
      <point x="514" y="895"/>
      <point x="508" y="861" type="qcurve" smooth="yes"/>
      <point x="483" y="716" type="line"/>
      <point x="571" y="838"/>
      <point x="749" y="946"/>
      <point x="843" y="946" type="qcurve" smooth="yes"/>
      <point x="903" y="946"/>
      <point x="999" y="906"/>
      <point x="1032.0" y="870.5" type="qcurve" smooth="yes" name="inserted"/>
      <point x="1065" y="835"/>
      <point x="1101" y="735"/>
      <point x="1101" y="675" type="qcurve" smooth="yes"/>
      <point x="1101" y="657"/>
      <point x="1097" y="619"/>
      <point x="1094" y="600" type="qcurve" smooth="yes"/>
      <point x="1025" y="205" type="line"/>
      <point x="1102" y="205" type="line" smooth="yes"/>
      <point x="1119" y="205"/>
      <point x="1141" y="197"/>
      <point x="1146.5" y="185.5" type="qcurve" smooth="yes" name="inserted"/>
      <point x="1152" y="174"/>
      <point x="1152" y="134"/>
      <point x="1146" y="102" type="qcurve" smooth="yes"/>
      <point x="1140" y="70"/>
      <point x="1127" y="30"/>
      <point x="1117.5" y="19.0" type="qcurve" smooth="yes" name="inserted"/>
      <point x="1108" y="8"/>
      <point x="1083" y="0"/>
      <point x="1066" y="0" type="qcurve" smooth="yes"/>
      <point x="802" y="0" type="line" smooth="yes"/>
      <point x="768" y="0"/>
      <point x="744" y="29"/>
      <point x="750" y="63" type="qcurve" smooth="yes"/>
      <point x="837" y="561" type="line" smooth="yes"/>
      <point x="840.0" y="577.5" name="inserted"/>
      <point x="843.0" y="607.5"/>
      <point x="843" y="621" type="qcurve" smooth="yes"/>
      <point x="843" y="668"/>
      <point x="799" y="719"/>
      <point x="748" y="719" type="qcurve" smooth="yes"/>
      <point x="703" y="719"/>
      <point x="610" y="653"/>
      <point x="569.0" y="599.0" type="qcurve" smooth="yes" name="inserted"/>
      <point x="528" y="545"/>
      <point x="467" y="408"/>
      <point x="455" y="338" type="qcurve" smooth="yes"/>
      <point x="408" y="63" type="line" smooth="yes"/>
      <point x="402" y="29"/>
      <point x="368" y="0"/>
      <point x="334" y="0" type="qcurve" smooth="yes"/>
      <point x="210" y="0" type="line" smooth="yes"/>
      <point x="176" y="0"/>
      <point x="152" y="29"/>
      <point x="158" y="63" type="qcurve" smooth="yes"/>
    </contour>
  </outline>
</glyph>
<glyph name="o" format="2">
  <advance width="1228"/>
  <unicode hex="006F"/>
  <outline>
    <contour>
      <point x="550" y="-22" type="qcurve" smooth="yes"/>
      <point x="447" y="-22"/>
      <point x="285" y="40"/>
      <point x="228.5" y="95.0" type="qcurve" smooth="yes"/>
      <point x="172" y="150"/>
      <point x="113" y="300"/>
      <point x="113" y="388" type="qcurve" smooth="yes"/>
      <point x="113" y="453"/>
      <point x="144" y="587"/>
      <point x="176.0" y="649.0" type="qcurve" smooth="yes"/>
      <point x="208" y="711"/>
      <point x="305" y="819"/>
      <point x="370.0" y="859.5" type="qcurve" smooth="yes"/>
      <point x="435" y="900"/>
      <point x="600" y="946"/>
      <point x="700" y="946" type="qcurve" smooth="yes"/>
      <point x="802" y="946"/>
      <point x="964" y="884"/>
      <point x="1020.5" y="829.0" type="qcurve" smooth="yes"/>
      <point x="1077" y="774"/>
      <point x="1136" y="624"/>
      <point x="1136" y="536" type="qcurve" smooth="yes"/>
      <point x="1136" y="473"/>
      <point x="1106" y="342"/>
      <point x="1075.0" y="280.0" type="qcurve" smooth="yes"/>
      <point x="1044" y="218"/>
      <point x="949" y="108"/>
      <point x="884.0" y="67.0" type="qcurve" smooth="yes"/>
      <point x="819" y="26"/>
      <point x="652" y="-22"/>
    </contour>
    <contour>
      <point x="670" y="719" type="qcurve" smooth="yes"/>
      <point x="601" y="719"/>
      <point x="494" y="665"/>
      <point x="456.5" y="620.5" type="qcurve" smooth="yes"/>
      <point x="419" y="576"/>
      <point x="380" y="462"/>
      <point x="380" y="401" type="qcurve" smooth="yes"/>
      <point x="380" y="310"/>
      <point x="486" y="205"/>
      <point x="580" y="205" type="qcurve" smooth="yes"/>
      <point x="648" y="205"/>
      <point x="756" y="258"/>
      <point x="793.0" y="302.5" type="qcurve" smooth="yes"/>
      <point x="830" y="347"/>
      <point x="869" y="461"/>
      <point x="869" y="522" type="qcurve" smooth="yes"/>
      <point x="869" y="613"/>
      <point x="764" y="719"/>
    </contour>
  </outline>
</glyph>
<glyph name="p" format="2">
  <advance width="1228"/>
  <unicode hex="0070"/>
  <outline>
    <contour>
      <point x="651" y="8" type="qcurve" smooth="yes"/>
      <point x="568" y="8"/>
      <point x="441" y="78"/>
      <point x="400" y="133" type="qcurve"/>
      <point x="343" y="-188" type="line"/>
      <point x="590" y="-188" type="line" smooth="yes"/>
      <point x="607" y="-188"/>
      <point x="629" y="-196"/>
      <point x="635.0" y="-207.5" type="qcurve" smooth="yes"/>
      <point x="641" y="-219"/>
      <point x="641" y="-259"/>
      <point x="635" y="-291" type="qcurve" smooth="yes"/>
      <point x="629" y="-323"/>
      <point x="615" y="-363"/>
      <point x="605.5" y="-374.0" type="qcurve" smooth="yes"/>
      <point x="596" y="-385"/>
      <point x="571" y="-393"/>
      <point x="554" y="-393" type="qcurve" smooth="yes"/>
      <point x="-30" y="-393" type="line" smooth="yes"/>
      <point x="-47" y="-393"/>
      <point x="-69" y="-385"/>
      <point x="-74.5" y="-374.0" type="qcurve" smooth="yes"/>
      <point x="-80" y="-363"/>
      <point x="-80" y="-323"/>
      <point x="-74" y="-291" type="qcurve" smooth="yes"/>
      <point x="-69" y="-259"/>
      <point x="-55" y="-219"/>
      <point x="-45.5" y="-207.5" type="qcurve" smooth="yes"/>
      <point x="-36" y="-196"/>
      <point x="-11" y="-188"/>
      <point x="6" y="-188" type="qcurve" smooth="yes"/>
      <point x="93" y="-188" type="line"/>
      <point x="253" y="719" type="line"/>
      <point x="166" y="719" type="line" smooth="yes"/>
      <point x="149" y="719"/>
      <point x="127" y="727"/>
      <point x="121.0" y="738.0" type="qcurve" smooth="yes"/>
      <point x="115" y="749"/>
      <point x="115" y="789"/>
      <point x="121" y="821" type="qcurve" smooth="yes"/>
      <point x="127" y="853"/>
      <point x="141" y="893"/>
      <point x="150.5" y="904.5" type="qcurve" smooth="yes"/>
      <point x="160" y="916"/>
      <point x="185" y="924"/>
      <point x="202" y="924" type="qcurve" smooth="yes"/>
      <point x="436" y="924" type="line" smooth="yes"/>
      <point x="470" y="924"/>
      <point x="494" y="895"/>
      <point x="488" y="861" type="qcurve" smooth="yes"/>
      <point x="476" y="791" type="line"/>
      <point x="541" y="864"/>
      <point x="707" y="946"/>
      <point x="796" y="946" type="qcurve" smooth="yes"/>
      <point x="882" y="946"/>
      <point x="1018" y="887"/>
      <point x="1064.5" y="835.5" type="qcurve" smooth="yes"/>
      <point x="1111" y="784"/>
      <point x="1160" y="642"/>
      <point x="1160" y="559" type="qcurve" smooth="yes"/>
      <point x="1160" y="495"/>
      <point x="1132" y="363"/>
      <point x="1104.0" y="302.0" type="qcurve" smooth="yes"/>
      <point x="1076" y="241"/>
      <point x="992" y="134"/>
      <point x="935.0" y="94.0" type="qcurve" smooth="yes"/>
      <point x="878" y="54"/>
      <point x="736" y="8"/>
    </contour>
    <contour>
      <point x="726" y="719" type="qcurve" smooth="yes"/>
      <point x="657" y="719"/>
      <point x="553" y="666"/>
      <point x="518.5" y="623.5" type="qcurve" smooth="yes"/>
      <point x="484" y="581"/>
      <point x="449" y="474"/>
      <point x="449" y="420" type="qcurve" smooth="yes"/>
      <point x="449" y="373"/>
      <point x="478" y="304"/>
      <point x="504.0" y="281.0" type="qcurve" smooth="yes"/>
      <point x="530" y="258"/>
      <point x="600" y="235"/>
      <point x="641" y="235" type="qcurve" smooth="yes"/>
      <point x="706" y="235"/>
      <point x="801" y="292"/>
      <point x="832.0" y="336.5" type="qcurve" smooth="yes"/>
      <point x="863" y="381"/>
      <point x="893" y="490"/>
      <point x="893" y="542" type="qcurve" smooth="yes"/>
      <point x="893" y="629"/>
      <point x="804" y="719"/>
    </contour>
  </outline>
</glyph>
<glyph name="s" format="1">
  <advance width="1228"/>
  <unicode hex="0073"/>
  <outline>
    <contour>
      <point x="351" y="41" type="line" smooth="yes"/>
      <point x="346" y="7"/>
      <point x="282" y="-22"/>
      <point x="218" y="-22" type="qcurve" smooth="yes"/>
      <point x="154" y="-22"/>
      <point x="105" y="7"/>
      <point x="111" y="41" type="qcurve" smooth="yes"/>
      <point x="150" y="264" type="line" smooth="yes"/>
      <point x="156" y="298"/>
      <point x="208" y="327"/>
      <point x="257" y="327" type="qcurve" smooth="yes"/>
      <point x="290" y="327"/>
      <point x="327" y="313"/>
      <point x="335" y="299" type="qcurve" smooth="yes"/>
      <point x="356" y="266"/>
      <point x="416" y="219"/>
      <point x="452.0" y="205.0" type="qcurve" smooth="yes" name="inserted"/>
      <point x="488" y="191"/>
      <point x="570" y="178"/>
      <point x="613" y="178" type="qcurve" smooth="yes"/>
      <point x="665" y="178"/>
      <point x="736" y="195"/>
      <point x="757" y="211" type="qcurve" smooth="yes"/>
      <point x="775" y="225"/>
      <point x="789" y="258"/>
      <point x="789" y="269" type="qcurve" smooth="yes"/>
      <point x="789" y="291"/>
      <point x="750" y="318"/>
      <point x="716" y="328" type="qcurve" smooth="yes"/>
      <point x="678" y="338"/>
      <point x="577" y="354"/>
      <point x="522.5" y="364.0" type="qcurve" smooth="yes" name="inserted"/>
      <point x="468" y="374"/>
      <point x="361" y="405"/>
      <point x="317" y="431" type="qcurve" smooth="yes"/>
      <point x="269" y="460"/>
      <point x="208" y="551"/>
      <point x="208" y="620" type="qcurve" smooth="yes"/>
      <point x="208" y="686"/>
      <point x="261" y="809"/>
      <point x="315" y="854" type="qcurve" smooth="yes"/>
      <point x="372" y="901"/>
      <point x="530" y="946"/>
      <point x="622" y="946" type="qcurve" smooth="yes"/>
      <point x="703" y="946"/>
      <point x="827" y="903"/>
      <point x="876" y="868" type="qcurve"/>
      <point x="879" y="883" type="line" smooth="yes"/>
      <point x="886" y="917"/>
      <point x="938" y="946"/>
      <point x="1002" y="946" type="qcurve" smooth="yes"/>
      <point x="1066" y="946"/>
      <point x="1115" y="917"/>
      <point x="1109" y="883" type="qcurve" smooth="yes"/>
      <point x="1072" y="672" type="line" smooth="yes"/>
      <point x="1066" y="638"/>
      <point x="1018" y="609"/>
      <point x="969" y="609" type="qcurve" smooth="yes"/>
      <point x="942.0" y="609.0" name="inserted"/>
      <point x="907.5" y="619.5"/>
      <point x="900" y="630" type="qcurve" smooth="yes"/>
      <point x="850" y="695"/>
      <point x="704" y="746"/>
      <point x="609" y="746" type="qcurve" smooth="yes"/>
      <point x="571" y="746"/>
      <point x="516" y="729"/>
      <point x="498" y="715" type="qcurve" smooth="yes"/>
      <point x="483.0" y="703.0" name="inserted"/>
      <point x="468.0" y="675.5"/>
      <point x="468" y="660" type="qcurve" smooth="yes"/>
      <point x="468" y="639"/>
      <point x="507" y="614"/>
      <point x="539" y="605" type="qcurve" smooth="yes"/>
      <point x="576" y="595"/>
      <point x="679" y="581"/>
      <point x="734.0" y="572.0" type="qcurve" smooth="yes" name="inserted"/>
      <point x="789" y="563"/>
      <point x="898" y="534"/>
      <point x="942" y="509" type="qcurve" smooth="yes"/>
      <point x="990" y="481"/>
      <point x="1051" y="394"/>
      <point x="1051" y="325" type="qcurve" smooth="yes"/>
      <point x="1051" y="262"/>
      <point x="1005" y="138"/>
      <point x="956" y="91" type="qcurve" smooth="yes"/>
      <point x="898" y="34"/>
      <point x="718" y="-22"/>
      <point x="598" y="-22" type="qcurve" smooth="yes"/>
      <point x="520" y="-22"/>
      <point x="402" y="22"/>
      <point x="353" y="54" type="qcurve"/>
    </contour>
  </outline>
</glyph>
<glyph name="t" format="2">
  <advance width="1228"/>
  <unicode hex="0074"/>
  <outline>
    <contour>
      <point x="685" y="864" type="line"/>
      <point x="1056" y="864" type="line" smooth="yes"/>
      <point x="1073" y="864"/>
      <point x="1095" y="854"/>
      <point x="1100.5" y="842.0" type="qcurve" smooth="yes"/>
      <point x="1106" y="830"/>
      <point x="1106" y="788"/>
      <point x="1100" y="756" type="qcurve" smooth="yes"/>
      <point x="1094" y="724"/>
      <point x="1080" y="683"/>
      <point x="1070.0" y="671.0" type="qcurve" smooth="yes"/>
      <point x="1060" y="659"/>
      <point x="1035" y="649"/>
      <point x="1018" y="649" type="qcurve" smooth="yes"/>
      <point x="647" y="649" type="line"/>
      <point x="598" y="371" type="line" smooth="yes"/>
      <point x="595" y="356"/>
      <point x="593" y="328"/>
      <point x="593" y="316" type="qcurve" smooth="yes"/>
      <point x="593" y="258"/>
      <point x="647" y="205"/>
      <point x="698" y="205" type="qcurve" smooth="yes"/>
      <point x="723" y="205"/>
      <point x="786" y="218"/>
      <point x="820.5" y="229.0" type="qcurve" smooth="yes"/>
      <point x="855" y="240"/>
      <point x="927" y="268"/>
      <point x="962" y="283" type="qcurve" smooth="yes"/>
      <point x="979" y="290"/>
      <point x="1007" y="291"/>
      <point x="1019.5" y="282.5" type="qcurve" smooth="yes"/>
      <point x="1032" y="274"/>
      <point x="1054" y="239"/>
      <point x="1065" y="209" type="qcurve" smooth="yes"/>
      <point x="1085" y="153"/>
      <point x="1067" y="99"/>
      <point x="1031" y="82" type="qcurve" smooth="yes"/>
      <point x="931" y="36"/>
      <point x="743" y="-22"/>
      <point x="656" y="-22" type="qcurve" smooth="yes"/>
      <point x="504" y="-22"/>
      <point x="339" y="130"/>
      <point x="339" y="273" type="qcurve" smooth="yes"/>
      <point x="339.0" y="295.0"/>
      <point x="343.5" y="342.5"/>
      <point x="348" y="368" type="qcurve" smooth="yes"/>
      <point x="397" y="649" type="line"/>
      <point x="204" y="649" type="line" smooth="yes"/>
      <point x="187" y="649"/>
      <point x="165" y="659"/>
      <point x="159.5" y="671.0" type="qcurve" smooth="yes"/>
      <point x="154" y="683"/>
      <point x="154" y="724"/>
      <point x="160" y="756" type="qcurve" smooth="yes"/>
      <point x="166" y="788"/>
      <point x="180" y="830"/>
      <point x="189.5" y="842.0" type="qcurve" smooth="yes"/>
      <point x="199" y="854"/>
      <point x="225" y="864"/>
      <point x="242" y="864" type="qcurve" smooth="yes"/>
      <point x="435" y="864" type="line"/>
      <point x="485" y="1146" type="line" smooth="yes"/>
      <point x="491" y="1180"/>
      <point x="556" y="1209"/>
      <point x="628" y="1209" type="qcurve" smooth="yes"/>
      <point x="664" y="1209"/>
      <point x="708" y="1202"/>
      <point x="720.0" y="1194.5" type="qcurve" smooth="yes"/>
      <point x="732" y="1187"/>
      <point x="738" y="1163"/>
      <point x="735" y="1146" type="qcurve" smooth="yes"/>
    </contour>
  </outline>
</glyph>
<glyph name="y" format="1">
  <advance width="1228"/>
  <unicode hex="0079"/>
  <outline>
    <contour>
      <point x="159" y="719" type="line" smooth="yes"/>
      <point x="142" y="719"/>
      <point x="120" y="727"/>
      <point x="114.0" y="738.0" type="qcurve" smooth="yes" name="inserted"/>
      <point x="108" y="749"/>
      <point x="108" y="789"/>
      <point x="114" y="821" type="qcurve" smooth="yes"/>
      <point x="120" y="853"/>
      <point x="134" y="893"/>
      <point x="143.5" y="904.5" type="qcurve" smooth="yes" name="inserted"/>
      <point x="153" y="916"/>
      <point x="178" y="924"/>
      <point x="195" y="924" type="qcurve" smooth="yes"/>
      <point x="589" y="924" type="line" smooth="yes"/>
      <point x="606" y="924"/>
      <point x="628" y="916"/>
      <point x="634.0" y="904.5" type="qcurve" smooth="yes" name="inserted"/>
      <point x="640" y="893"/>
      <point x="640" y="853"/>
      <point x="634" y="821" type="qcurve" smooth="yes"/>
      <point x="628" y="789"/>
      <point x="614" y="749"/>
      <point x="604.5" y="738.0" type="qcurve" smooth="yes" name="inserted"/>
      <point x="595" y="727"/>
      <point x="570" y="719"/>
      <point x="553" y="719" type="qcurve" smooth="yes"/>
      <point x="493" y="719" type="line"/>
      <point x="600" y="339" type="line"/>
      <point x="841" y="719" type="line"/>
      <point x="787" y="719" type="line" smooth="yes"/>
      <point x="770" y="719"/>
      <point x="748" y="727"/>
      <point x="742.0" y="738.0" type="qcurve" smooth="yes" name="inserted"/>
      <point x="736" y="749"/>
      <point x="736" y="789"/>
      <point x="742" y="821" type="qcurve" smooth="yes"/>
      <point x="748" y="853"/>
      <point x="762" y="893"/>
      <point x="771.5" y="904.5" type="qcurve" smooth="yes" name="inserted"/>
      <point x="781" y="916"/>
      <point x="806" y="924"/>
      <point x="823" y="924" type="qcurve" smooth="yes"/>
      <point x="1217" y="924" type="line" smooth="yes"/>
      <point x="1234" y="924"/>
      <point x="1256" y="916"/>
      <point x="1262.0" y="904.5" type="qcurve" smooth="yes" name="inserted"/>
      <point x="1268" y="893"/>
      <point x="1268" y="853"/>
      <point x="1262" y="821" type="qcurve" smooth="yes"/>
      <point x="1256" y="789"/>
      <point x="1242" y="749"/>
      <point x="1232.5" y="738.0" type="qcurve" smooth="yes" name="inserted"/>
      <point x="1223" y="727"/>
      <point x="1198" y="719"/>
      <point x="1181" y="719" type="qcurve" smooth="yes"/>
      <point x="1122" y="719" type="line"/>
      <point x="602" y="-57" type="line" smooth="yes"/>
      <point x="532" y="-162"/>
      <point x="413" y="-297"/>
      <point x="351.0" y="-337.0" type="qcurve" smooth="yes" name="inserted"/>
      <point x="289" y="-377"/>
      <point x="148" y="-411"/>
      <point x="56" y="-414" type="qcurve" smooth="yes"/>
      <point x="26" y="-415"/>
      <point x="-8" y="-373"/>
      <point x="-8" y="-311" type="qcurve" smooth="yes"/>
      <point x="-8" y="-277"/>
      <point x="2" y="-230"/>
      <point x="10.5" y="-216.0" type="qcurve" smooth="yes" name="inserted"/>
      <point x="19" y="-202"/>
      <point x="42" y="-189"/>
      <point x="56" y="-188" type="qcurve" smooth="yes"/>
      <point x="116" y="-185"/>
      <point x="206" y="-153"/>
      <point x="247.0" y="-119.0" type="qcurve" smooth="yes" name="inserted"/>
      <point x="288" y="-85"/>
      <point x="372" y="22"/>
      <point x="426" y="100" type="qcurve"/>
      <point x="234" y="719" type="line"/>
    </contour>
  </outline>
</glyph>
<glyph name="braceright" format="1">
  <advance width="1228"/>
  <unicode hex="007D"/>
  <outline>
    <contour>
      <point x="705" y="491" type="qcurve"/>
      <point x="640" y="530"/>
      <point x="580" y="677"/>
      <point x="598" y="780" type="qcurve" smooth="yes"/>
      <point x="621" y="917" type="line" smooth="yes"/>
      <point x="638" y="1017"/>
      <point x="576" y="1107"/>
      <point x="498" y="1107" type="qcurve" smooth="yes"/>
      <point x="481" y="1107"/>
      <point x="459" y="1115"/>
      <point x="453.0" y="1126.0" type="qcurve" smooth="yes" name="inserted"/>
      <point x="447" y="1137"/>
      <point x="447" y="1177"/>
      <point x="453" y="1209" type="qcurve" smooth="yes"/>
      <point x="459" y="1241"/>
      <point x="473" y="1281"/>
      <point x="482.5" y="1292.5" type="qcurve" smooth="yes" name="inserted"/>
      <point x="492" y="1304"/>
      <point x="517" y="1312"/>
      <point x="534" y="1312" type="qcurve" smooth="yes"/>
      <point x="734" y="1312"/>
      <point x="903" y="1102"/>
      <point x="869" y="909" type="qcurve" smooth="yes"/>
      <point x="845" y="770" type="line" smooth="yes"/>
      <point x="829" y="680"/>
      <point x="898" y="584"/>
      <point x="993" y="584" type="qcurve" smooth="yes"/>
      <point x="1010" y="584"/>
      <point x="1032" y="576"/>
      <point x="1037.5" y="564.5" type="qcurve" smooth="yes" name="inserted"/>
      <point x="1043" y="553"/>
      <point x="1043" y="513"/>
      <point x="1038" y="481" type="qcurve" smooth="yes"/>
      <point x="1032" y="449"/>
      <point x="1018" y="409"/>
      <point x="1008.5" y="398.0" type="qcurve" smooth="yes" name="inserted"/>
      <point x="999" y="387"/>
      <point x="974" y="379"/>
      <point x="957" y="379" type="qcurve" smooth="yes"/>
      <point x="861" y="379"/>
      <point x="760" y="284"/>
      <point x="744" y="193" type="qcurve" smooth="yes"/>
      <point x="704" y="-30" type="line" smooth="yes"/>
      <point x="687" y="-127"/>
      <point x="610" y="-265"/>
      <point x="551.0" y="-308.5" type="qcurve" smooth="yes" name="inserted"/>
      <point x="492" y="-352"/>
      <point x="333" y="-393"/>
      <point x="233" y="-393" type="qcurve" smooth="yes"/>
      <point x="216" y="-393"/>
      <point x="194" y="-385"/>
      <point x="188.0" y="-373.5" type="qcurve" smooth="yes" name="inserted"/>
      <point x="182" y="-362"/>
      <point x="182" y="-322"/>
      <point x="188" y="-290" type="qcurve" smooth="yes"/>
      <point x="194" y="-258"/>
      <point x="208" y="-218"/>
      <point x="217.5" y="-207.0" type="qcurve" smooth="yes" name="inserted"/>
      <point x="227" y="-196"/>
      <point x="252" y="-188"/>
      <point x="269" y="-188" type="qcurve" smooth="yes"/>
      <point x="347" y="-188"/>
      <point x="443" y="-98"/>
      <point x="460" y="2" type="qcurve" smooth="yes"/>
      <point x="499" y="223" type="line" smooth="yes"/>
      <point x="508" y="274"/>
      <point x="546" y="357"/>
      <point x="573.0" y="389.5" type="qcurve" smooth="yes" name="inserted"/>
      <point x="600" y="422"/>
      <point x="667" y="472"/>
    </contour>
  </outline>
</glyph>
<glyph name="exclamdown" format="2">
  <advance width="1228"/>
  <unicode hex="00A1"/>
  <outline>
    <contour>
      <point x="414" y="-22" type="line" smooth="yes"/>
      <point x="391.0" y="-22.0"/>
      <point x="375.0" y="3.0"/>
      <point x="382" y="28" type="qcurve" smooth="yes"/>
      <point x="557" y="605" type="line" smooth="yes"/>
      <point x="568" y="643"/>
      <point x="625" y="683"/>
      <point x="664" y="683" type="qcurve" smooth="yes"/>
      <point x="703" y="683"/>
      <point x="745" y="643"/>
      <point x="743" y="605" type="qcurve" smooth="yes"/>
      <point x="714" y="28" type="line" smooth="yes"/>
      <point x="712.5" y="3.0"/>
      <point x="687.5" y="-22.0"/>
      <point x="664" y="-22" type="qcurve" smooth="yes"/>
    </contour>
    <contour>
      <point x="732" y="1209" type="qcurve" smooth="yes"/>
      <point x="768" y="1209"/>
      <point x="829" y="1182"/>
      <point x="851.0" y="1159.5" type="qcurve" smooth="yes"/>
      <point x="873" y="1137"/>
      <point x="898" y="1076"/>
      <point x="898" y="1042" type="qcurve" smooth="yes"/>
      <point x="898" y="997"/>
      <point x="862" y="919"/>
      <point x="832.5" y="890.5" type="qcurve" smooth="yes"/>
      <point x="803" y="862"/>
      <point x="725" y="830"/>
      <point x="683" y="830" type="qcurve" smooth="yes"/>
      <point x="647" y="830"/>
      <point x="586" y="856"/>
      <point x="564.0" y="878.5" type="qcurve" smooth="yes"/>
      <point x="542" y="901"/>
      <point x="517" y="962"/>
      <point x="517" y="996" type="qcurve" smooth="yes"/>
      <point x="517" y="1041"/>
      <point x="552" y="1119"/>
      <point x="582.0" y="1147.5" type="qcurve" smooth="yes"/>
      <point x="612" y="1176"/>
      <point x="690" y="1209"/>
    </contour>
  </outline>
</glyph>
<glyph name="cent" format="1">
  <advance width="1228"/>
  <unicode hex="00A2"/>
  <outline>
    <contour>
      <point x="943" y="1023" type="line" smooth="yes"/>
      <point x="949" y="1057"/>
      <point x="1012" y="1086"/>
      <point x="1076" y="1086" type="qcurve" smooth="yes"/>
      <point x="1140" y="1086"/>
      <point x="1179" y="1057"/>
      <point x="1173" y="1023" type="qcurve" smooth="yes"/>
      <point x="1117" y="702" type="line" smooth="yes"/>
      <point x="1111" y="668"/>
      <point x="1045" y="639"/>
      <point x="973" y="639" type="qcurve" smooth="yes"/>
      <point x="937" y="639"/>
      <point x="893" y="646"/>
      <point x="881.5" y="653.5" type="qcurve" smooth="yes" name="inserted"/>
      <point x="870" y="661"/>
      <point x="864" y="685"/>
      <point x="867" y="702" type="qcurve" smooth="yes"/>
      <point x="875" y="749"/>
      <point x="838" y="828"/>
      <point x="790" y="846" type="qcurve"/>
      <point x="702" y="351" type="line"/>
      <point x="765" y="360"/>
      <point x="893" y="406"/>
      <point x="955" y="439" type="qcurve" smooth="yes"/>
      <point x="987" y="456"/>
      <point x="1039" y="422"/>
      <point x="1060" y="365" type="qcurve" smooth="yes"/>
      <point x="1082" y="306"/>
      <point x="1064" y="240"/>
      <point x="1030" y="223" type="qcurve" smooth="yes"/>
      <point x="945" y="181"/>
      <point x="755" y="128"/>
      <point x="662" y="120" type="qcurve"/>
      <point x="630" y="-62" type="line" smooth="yes"/>
      <point x="624" y="-96"/>
      <point x="581" y="-125"/>
      <point x="525" y="-125" type="qcurve" smooth="yes"/>
      <point x="469" y="-125"/>
      <point x="438" y="-96"/>
      <point x="444" y="-62" type="qcurve" smooth="yes"/>
      <point x="478" y="131" type="line"/>
      <point x="403" y="147"/>
      <point x="284" y="220"/>
      <point x="243.0" y="272.0" type="qcurve" smooth="yes" name="inserted"/>
      <point x="202" y="324"/>
      <point x="159" y="455"/>
      <point x="159" y="529" type="qcurve" smooth="yes"/>
      <point x="159" y="623"/>
      <point x="222" y="811"/>
      <point x="283.5" y="888.5" type="qcurve" smooth="yes" name="inserted"/>
      <point x="345" y="966"/>
      <point x="527" y="1071"/>
      <point x="646" y="1083" type="qcurve"/>
      <point x="675" y="1249" type="line" smooth="yes"/>
      <point x="678" y="1266"/>
      <point x="690" y="1290"/>
      <point x="702.0" y="1297.5" type="qcurve" smooth="yes" name="inserted"/>
      <point x="714" y="1305"/>
      <point x="751" y="1312"/>
      <point x="779" y="1312" type="qcurve" smooth="yes"/>
      <point x="835" y="1312"/>
      <point x="867" y="1283"/>
      <point x="861" y="1249" type="qcurve" smooth="yes"/>
      <point x="828" y="1063" type="line"/>
      <point x="865" y="1048"/>
      <point x="919" y="999"/>
      <point x="933" y="964" type="qcurve"/>
    </contour>
    <contour>
      <point x="425" y="542" type="qcurve" smooth="yes"/>
      <point x="425" y="479"/>
      <point x="474" y="391"/>
      <point x="519" y="368" type="qcurve"/>
      <point x="602" y="837" type="line"/>
      <point x="557" y="818"/>
      <point x="490" y="753"/>
      <point x="468.5" y="713.0" type="qcurve" smooth="yes" name="inserted"/>
      <point x="447" y="673"/>
      <point x="425" y="584"/>
    </contour>
  </outline>
</glyph>
<glyph name="yen" format="1">
  <advance width="1228"/>
  <unicode hex="00A5"/>
  <outline>
    <contour>
      <point x="626" y="1187" type="line" smooth="yes"/>
      <point x="643" y="1187"/>
      <point x="665" y="1179"/>
      <point x="671.0" y="1167.5" type="qcurve" smooth="yes" name="inserted"/>
      <point x="677" y="1156"/>
      <point x="677" y="1116"/>
      <point x="671" y="1084" type="qcurve" smooth="yes"/>
      <point x="665" y="1052"/>
      <point x="651" y="1012"/>
      <point x="641.5" y="1001.0" type="qcurve" smooth="yes" name="inserted"/>
      <point x="632" y="990"/>
      <point x="607" y="982"/>
      <point x="590" y="982" type="qcurve" smooth="yes"/>
      <point x="523" y="982" type="line"/>
      <point x="657" y="690" type="line"/>
      <point x="896" y="982" type="line"/>
      <point x="844" y="982" type="line" smooth="yes"/>
      <point x="827" y="982"/>
      <point x="805" y="990"/>
      <point x="799.0" y="1001.0" type="qcurve" smooth="yes" name="inserted"/>
      <point x="793" y="1012"/>
      <point x="793" y="1052"/>
      <point x="799" y="1084" type="qcurve" smooth="yes"/>
      <point x="805" y="1116"/>
      <point x="819" y="1156"/>
      <point x="828.5" y="1167.5" type="qcurve" smooth="yes" name="inserted"/>
      <point x="838" y="1179"/>
      <point x="863" y="1187"/>
      <point x="880" y="1187" type="qcurve" smooth="yes"/>
      <point x="1264" y="1187" type="line" smooth="yes"/>
      <point x="1281" y="1187"/>
      <point x="1303" y="1179"/>
      <point x="1309.0" y="1167.5" type="qcurve" smooth="yes" name="inserted"/>
      <point x="1315" y="1156"/>
      <point x="1315" y="1116"/>
      <point x="1309" y="1084" type="qcurve" smooth="yes"/>
      <point x="1303" y="1052"/>
      <point x="1289" y="1012"/>
      <point x="1279.5" y="1001.0" type="qcurve" smooth="yes" name="inserted"/>
      <point x="1270" y="990"/>
      <point x="1245" y="982"/>
      <point x="1228" y="982" type="qcurve" smooth="yes"/>
      <point x="1183" y="982" type="line"/>
      <point x="1065" y="840" type="line"/>
      <point x="1123" y="840" type="line" smooth="yes"/>
      <point x="1157" y="840"/>
      <point x="1179" y="803"/>
      <point x="1169" y="747" type="qcurve" smooth="yes"/>
      <point x="1164" y="719"/>
      <point x="1151" y="683"/>
      <point x="1141.5" y="673.0" type="qcurve" smooth="yes" name="inserted"/>
      <point x="1132" y="663"/>
      <point x="1107" y="655"/>
      <point x="1090" y="655" type="qcurve" smooth="yes"/>
      <point x="911" y="655" type="line"/>
      <point x="793" y="512" type="line"/>
      <point x="1045" y="512" type="line" smooth="yes"/>
      <point x="1079" y="512"/>
      <point x="1101" y="475"/>
      <point x="1091" y="419" type="qcurve" smooth="yes"/>
      <point x="1086" y="391"/>
      <point x="1073" y="355"/>
      <point x="1063.5" y="345.0" type="qcurve" smooth="yes" name="inserted"/>
      <point x="1054" y="335"/>
      <point x="1029" y="327"/>
      <point x="1012" y="327" type="qcurve" smooth="yes"/>
      <point x="726" y="327" type="line"/>
      <point x="705" y="205" type="line"/>
      <point x="911" y="205" type="line" smooth="yes"/>
      <point x="928" y="205"/>
      <point x="950" y="197"/>
      <point x="955.5" y="185.5" type="qcurve" smooth="yes" name="inserted"/>
      <point x="961" y="174"/>
      <point x="961" y="134"/>
      <point x="955" y="102" type="qcurve" smooth="yes"/>
      <point x="949" y="70"/>
      <point x="936" y="30"/>
      <point x="926.5" y="19.0" type="qcurve" smooth="yes" name="inserted"/>
      <point x="917" y="8"/>
      <point x="892" y="0"/>
      <point x="875" y="0" type="qcurve" smooth="yes"/>
      <point x="233" y="0" type="line" smooth="yes"/>
      <point x="216" y="0"/>
      <point x="193" y="8"/>
      <point x="187.5" y="19.0" type="qcurve" smooth="yes" name="inserted"/>
      <point x="182" y="30"/>
      <point x="181" y="70"/>
      <point x="187" y="102" type="qcurve" smooth="yes"/>
      <point x="193" y="134"/>
      <point x="207" y="174"/>
      <point x="216.5" y="185.5" type="qcurve" smooth="yes" name="inserted"/>
      <point x="226" y="197"/>
      <point x="252" y="205"/>
      <point x="269" y="205" type="qcurve" smooth="yes"/>
      <point x="455" y="205" type="line"/>
      <point x="476" y="327" type="line"/>
      <point x="190" y="327" type="line" smooth="yes"/>
      <point x="156" y="327"/>
      <point x="133" y="363"/>
      <point x="143" y="419" type="qcurve" smooth="yes"/>
      <point x="148" y="447"/>
      <point x="162" y="483"/>
      <point x="171.5" y="493.5" type="qcurve" smooth="yes" name="inserted"/>
      <point x="181" y="504"/>
      <point x="206" y="512"/>
      <point x="223" y="512" type="qcurve" smooth="yes"/>
      <point x="479" y="512" type="line"/>
      <point x="411" y="655" type="line"/>
      <point x="228" y="655" type="line" smooth="yes"/>
      <point x="194" y="655"/>
      <point x="171" y="691"/>
      <point x="181" y="747" type="qcurve" smooth="yes"/>
      <point x="191" y="803"/>
      <point x="227" y="840"/>
      <point x="261" y="840" type="qcurve" smooth="yes"/>
      <point x="323" y="840" type="line"/>
      <point x="256" y="982" type="line"/>
      <point x="206" y="982" type="line" smooth="yes"/>
      <point x="189" y="982"/>
      <point x="167" y="990"/>
      <point x="161.0" y="1001.0" type="qcurve" smooth="yes" name="inserted"/>
      <point x="155" y="1012"/>
      <point x="155" y="1052"/>
      <point x="161" y="1084" type="qcurve" smooth="yes"/>
      <point x="167" y="1116"/>
      <point x="181" y="1156"/>
      <point x="190.5" y="1167.5" type="qcurve" smooth="yes" name="inserted"/>
      <point x="200" y="1179"/>
      <point x="225" y="1187"/>
      <point x="242" y="1187" type="qcurve" smooth="yes"/>
    </contour>
  </outline>
</glyph>
<glyph name="section" format="1">
  <advance width="1228"/>
  <unicode hex="00A7"/>
  <outline>
    <contour>
      <point x="557" y="-35" type="line" smooth="yes"/>
      <point x="586" y="-35"/>
      <point x="625" y="-19"/>
      <point x="637.0" y="-6.0" type="qcurve" smooth="yes" name="inserted"/>
      <point x="649" y="7"/>
      <point x="660" y="42"/>
      <point x="660" y="62" type="qcurve" smooth="yes"/>
      <point x="660" y="88"/>
      <point x="635" y="130"/>
      <point x="602" y="148" type="qcurve" smooth="yes"/>
      <point x="336" y="293" type="line" smooth="yes"/>
      <point x="267" y="331"/>
      <point x="189" y="455"/>
      <point x="189" y="534" type="qcurve" smooth="yes"/>
      <point x="189" y="627"/>
      <point x="274" y="774"/>
      <point x="348" y="828" type="qcurve"/>
      <point x="346" y="838"/>
      <point x="346" y="857"/>
      <point x="346" y="868" type="qcurve" smooth="yes"/>
      <point x="346" y="922"/>
      <point x="383" y="1036"/>
      <point x="423.5" y="1082.0" type="qcurve" smooth="yes" name="inserted"/>
      <point x="464" y="1128"/>
      <point x="595" y="1187"/>
      <point x="688" y="1187" type="qcurve" smooth="yes"/>
      <point x="1092" y="1187" type="line" smooth="yes"/>
      <point x="1127" y="1187"/>
      <point x="1151" y="1157"/>
      <point x="1145" y="1122" type="qcurve" smooth="yes"/>
      <point x="1099" y="860" type="line" smooth="yes"/>
      <point x="1093" y="826"/>
      <point x="1030" y="797"/>
      <point x="966" y="797" type="qcurve" smooth="yes"/>
      <point x="902" y="797"/>
      <point x="863" y="826"/>
      <point x="869" y="860" type="qcurve" smooth="yes"/>
      <point x="892" y="992" type="line"/>
      <point x="699" y="992" type="line" smooth="yes"/>
      <point x="670" y="992"/>
      <point x="631" y="976"/>
      <point x="619.0" y="963.0" type="qcurve" smooth="yes" name="inserted"/>
      <point x="607" y="950"/>
      <point x="596" y="914"/>
      <point x="596" y="895" type="qcurve" smooth="yes"/>
      <point x="596" y="869"/>
      <point x="621" y="827"/>
      <point x="654" y="809" type="qcurve" smooth="yes"/>
      <point x="920" y="664" type="line" smooth="yes"/>
      <point x="989" y="626"/>
      <point x="1067" y="502"/>
      <point x="1067" y="423" type="qcurve" smooth="yes"/>
      <point x="1067" y="330"/>
      <point x="982" y="182"/>
      <point x="907" y="128" type="qcurve"/>
      <point x="908.5" y="118.0" name="inserted"/>
      <point x="910.0" y="98.5"/>
      <point x="910" y="89" type="qcurve" smooth="yes"/>
      <point x="910" y="35"/>
      <point x="873" y="-79"/>
      <point x="832.5" y="-125.0" type="qcurve" smooth="yes" name="inserted"/>
      <point x="792" y="-171"/>
      <point x="661" y="-230"/>
      <point x="568" y="-230" type="qcurve" smooth="yes"/>
      <point x="164" y="-230" type="line" smooth="yes"/>
      <point x="129" y="-230"/>
      <point x="105" y="-200"/>
      <point x="111" y="-165" type="qcurve" smooth="yes"/>
      <point x="157" y="97" type="line" smooth="yes"/>
      <point x="163" y="131"/>
      <point x="226" y="160"/>
      <point x="290" y="160" type="qcurve" smooth="yes"/>
      <point x="354" y="160"/>
      <point x="393" y="131"/>
      <point x="387" y="97" type="qcurve" smooth="yes"/>
      <point x="364" y="-35" type="line"/>
    </contour>
    <contour>
      <point x="505" y="622" type="line"/>
      <point x="494.5" y="627.0" name="inserted"/>
      <point x="475.0" y="639.0"/>
      <point x="466" y="646" type="qcurve"/>
      <point x="452.5" y="629.5" name="inserted"/>
      <point x="439.0" y="589.0"/>
      <point x="439" y="565" type="qcurve" smooth="yes"/>
      <point x="439" y="535"/>
      <point x="471" y="488"/>
      <point x="509" y="467" type="qcurve" smooth="yes"/>
      <point x="751" y="335" type="line" smooth="yes"/>
      <point x="761.5" y="329.0" name="inserted"/>
      <point x="781.0" y="317.0"/>
      <point x="790" y="311" type="qcurve"/>
      <point x="803.5" y="328.0" name="inserted"/>
      <point x="817.0" y="368.5"/>
      <point x="817" y="392" type="qcurve" smooth="yes"/>
      <point x="817" y="422"/>
      <point x="785" y="469"/>
      <point x="747" y="490" type="qcurve" smooth="yes"/>
    </contour>
  </outline>
</glyph>
<glyph name="dieresis" format="1">
  <advance width="1228"/>
  <unicode hex="00A8"/>
  <outline>
    <contour>
      <point x="375" y="1202" type="qcurve" smooth="yes"/>
      <point x="381" y="1233"/>
      <point x="411" y="1286"/>
      <point x="433.5" y="1305.0" type="qcurve" smooth="yes" name="inserted"/>
      <point x="456" y="1324"/>
      <point x="513" y="1345"/>
      <point x="544" y="1345" type="qcurve" smooth="yes"/>
      <point x="576" y="1345"/>
      <point x="629" y="1319"/>
      <point x="646.5" y="1297.5" type="qcurve" smooth="yes" name="inserted"/>
      <point x="664" y="1276"/>
      <point x="679" y="1219"/>
      <point x="673" y="1188" type="qcurve" smooth="yes"/>
      <point x="667" y="1157"/>
      <point x="637" y="1104"/>
      <point x="614.5" y="1085.0" type="qcurve" smooth="yes" name="inserted"/>
      <point x="592" y="1066"/>
      <point x="536" y="1045"/>
      <point x="505" y="1045" type="qcurve" smooth="yes"/>
      <point x="473" y="1045"/>
      <point x="420" y="1071"/>
      <point x="402.0" y="1092.5" type="qcurve" smooth="yes" name="inserted"/>
      <point x="384" y="1114"/>
      <point x="369" y="1171"/>
    </contour>
    <contour>
      <point x="835" y="1202" type="qcurve" smooth="yes"/>
      <point x="841" y="1233"/>
      <point x="871" y="1286"/>
      <point x="893.5" y="1305.0" type="qcurve" smooth="yes" name="inserted"/>
      <point x="916" y="1324"/>
      <point x="973" y="1345"/>
      <point x="1004" y="1345" type="qcurve" smooth="yes"/>
      <point x="1036" y="1345"/>
      <point x="1089" y="1319"/>
      <point x="1106.5" y="1297.5" type="qcurve" smooth="yes" name="inserted"/>
      <point x="1124" y="1276"/>
      <point x="1139" y="1219"/>
      <point x="1133" y="1188" type="qcurve" smooth="yes"/>
      <point x="1127" y="1157"/>
      <point x="1097" y="1104"/>
      <point x="1074.5" y="1085.0" type="qcurve" smooth="yes" name="inserted"/>
      <point x="1052" y="1066"/>
      <point x="996" y="1045"/>
      <point x="965" y="1045" type="qcurve" smooth="yes"/>
      <point x="933" y="1045"/>
      <point x="880" y="1071"/>
      <point x="862.0" y="1092.5" type="qcurve" smooth="yes" name="inserted"/>
      <point x="844" y="1114"/>
      <point x="829" y="1171"/>
    </contour>
  </outline>
</glyph>
<glyph name="logicalnot" format="2">
  <advance width="1228"/>
  <unicode hex="00AC"/>
  <outline>
    <contour>
      <point x="224" y="630" type="line" smooth="yes"/>
      <point x="207" y="630"/>
      <point x="185" y="638"/>
      <point x="179.5" y="650.0" type="qcurve" smooth="yes"/>
      <point x="174" y="662"/>
      <point x="174" y="704"/>
      <point x="180" y="738" type="qcurve" smooth="yes"/>
      <point x="186" y="772"/>
      <point x="200" y="814"/>
      <point x="209.5" y="825.5" type="qcurve" smooth="yes"/>
      <point x="219" y="837"/>
      <point x="244" y="845"/>
      <point x="261" y="845" type="qcurve" smooth="yes"/>
      <point x="1111" y="845" type="line" smooth="yes"/>
      <point x="1146" y="845"/>
      <point x="1171" y="815"/>
      <point x="1165" y="780" type="qcurve" smooth="yes"/>
      <point x="1089" y="348" type="line" smooth="yes"/>
      <point x="1083" y="314"/>
      <point x="1018" y="285"/>
      <point x="946" y="285" type="qcurve" smooth="yes"/>
      <point x="910" y="285"/>
      <point x="866" y="292"/>
      <point x="854.0" y="299.5" type="qcurve" smooth="yes"/>
      <point x="842" y="307"/>
      <point x="836" y="331"/>
      <point x="839" y="348" type="qcurve" smooth="yes"/>
      <point x="889" y="630" type="line"/>
    </contour>
  </outline>
</glyph>
<glyph name="registered" format="2">
  <advance width="1228"/>
  <unicode hex="00AE"/>
  <outline>
    <contour>
      <point x="446" y="854" type="line" smooth="yes"/>
      <point x="452" y="888"/>
      <point x="486" y="917"/>
      <point x="520" y="917" type="qcurve" smooth="yes"/>
      <point x="746" y="917" type="line" smooth="yes"/>
      <point x="795" y="917"/>
      <point x="874" y="883"/>
      <point x="901.5" y="854.0" type="qcurve" smooth="yes"/>
      <point x="929" y="825"/>
      <point x="958" y="748"/>
      <point x="958" y="706" type="qcurve" smooth="yes"/>
      <point x="958" y="634"/>
      <point x="878" y="515"/>
      <point x="795" y="478" type="qcurve"/>
      <point x="860" y="385" type="line" smooth="yes"/>
      <point x="878" y="359"/>
      <point x="862" y="314"/>
      <point x="816" y="288" type="qcurve" smooth="yes"/>
      <point x="793" y="275"/>
      <point x="761" y="263"/>
      <point x="749.5" y="264.0" type="qcurve" smooth="yes"/>
      <point x="738" y="265"/>
      <point x="720" y="280"/>
      <point x="712" y="294" type="qcurve" smooth="yes"/>
      <point x="623" y="443" type="line"/>
      <point x="544" y="443" type="line"/>
      <point x="525" y="335" type="line" smooth="yes"/>
      <point x="522" y="318"/>
      <point x="511" y="293"/>
      <point x="500.0" y="285.0" type="qcurve" smooth="yes"/>
      <point x="489" y="277"/>
      <point x="455" y="270"/>
      <point x="428" y="270" type="qcurve" smooth="yes"/>
      <point x="375" y="270"/>
      <point x="348" y="300"/>
      <point x="355" y="335" type="qcurve" smooth="yes"/>
    </contour>
    <contour>
      <point x="598" y="752" type="line"/>
      <point x="571" y="598" type="line"/>
      <point x="670" y="598" type="line" smooth="yes"/>
      <point x="702" y="598"/>
      <point x="744" y="616"/>
      <point x="756.5" y="630.0" type="qcurve" smooth="yes"/>
      <point x="769" y="644"/>
      <point x="779" y="675"/>
      <point x="779" y="689" type="qcurve" smooth="yes"/>
      <point x="779" y="718"/>
      <point x="742" y="752"/>
      <point x="706" y="752" type="qcurve" smooth="yes"/>
    </contour>
    <contour>
      <point x="566" y="131" type="qcurve" smooth="yes"/>
      <point x="645" y="131"/>
      <point x="783" y="175"/>
      <point x="841.0" y="214.0" type="qcurve" smooth="yes"/>
      <point x="899" y="253"/>
      <point x="991" y="360"/>
      <point x="1022.5" y="422.0" type="qcurve" smooth="yes"/>
      <point x="1054" y="484"/>
      <point x="1088" y="622"/>
      <point x="1088" y="692" type="qcurve" smooth="yes"/>
      <point x="1088" y="773"/>
      <point x="1040" y="907"/>
      <point x="994.0" y="955.0" type="qcurve" smooth="yes"/>
      <point x="948" y="1003"/>
      <point x="814" y="1056"/>
      <point x="729" y="1056" type="qcurve" smooth="yes"/>
      <point x="650" y="1056"/>
      <point x="512" y="1012"/>
      <point x="453.5" y="973.0" type="qcurve" smooth="yes"/>
      <point x="395" y="934"/>
      <point x="303" y="827"/>
      <point x="271.5" y="765.0" type="qcurve" smooth="yes"/>
      <point x="240" y="703"/>
      <point x="206" y="565"/>
      <point x="206" y="495" type="qcurve" smooth="yes"/>
      <point x="206" y="415"/>
      <point x="254" y="281"/>
      <point x="300.0" y="233.0" type="qcurve" smooth="yes"/>
      <point x="346" y="185"/>
      <point x="480" y="131"/>
    </contour>
    <contour>
      <point x="549" y="-22" type="qcurve" smooth="yes"/>
      <point x="436" y="-22"/>
      <point x="254" y="57"/>
      <point x="189.5" y="126.0" type="qcurve" smooth="yes"/>
      <point x="125" y="195"/>
      <point x="55" y="383"/>
      <point x="55" y="493" type="qcurve" smooth="yes"/>
      <point x="55" y="583"/>
      <point x="99" y="759"/>
      <point x="141.5" y="838.5" type="qcurve" smooth="yes"/>
      <point x="184" y="918"/>
      <point x="305" y="1054"/>
      <point x="381.5" y="1103.5" type="qcurve" smooth="yes"/>
      <point x="458" y="1153"/>
      <point x="642" y="1209"/>
      <point x="746" y="1209" type="qcurve" smooth="yes"/>
      <point x="858" y="1209"/>
      <point x="1040" y="1131"/>
      <point x="1104.5" y="1062.5" type="qcurve" smooth="yes"/>
      <point x="1169" y="994"/>
      <point x="1239" y="805"/>
      <point x="1239" y="694" type="qcurve" smooth="yes"/>
      <point x="1239" y="604"/>
      <point x="1195" y="428"/>
      <point x="1153.0" y="348.5" type="qcurve" smooth="yes"/>
      <point x="1111" y="269"/>
      <point x="990" y="133"/>
      <point x="913.5" y="83.5" type="qcurve" smooth="yes"/>
      <point x="837" y="34"/>
      <point x="653" y="-22"/>
    </contour>
  </outline>
</glyph>
<glyph name="macron" format="1">
  <advance width="1228"/>
  <unicode hex="00AF"/>
  <outline>
    <contour>
      <point x="1049" y="1275" type="line" smooth="yes"/>
      <point x="1066" y="1275"/>
      <point x="1088" y="1267"/>
      <point x="1094.0" y="1255.5" type="qcurve" smooth="yes" name="inserted"/>
      <point x="1100" y="1244"/>
      <point x="1100" y="1204"/>
      <point x="1094" y="1172" type="qcurve" smooth="yes"/>
      <point x="1088" y="1140"/>
      <point x="1074" y="1100"/>
      <point x="1064.5" y="1089.0" type="qcurve" smooth="yes" name="inserted"/>
      <point x="1055" y="1078"/>
      <point x="1030" y="1070"/>
      <point x="1013" y="1070" type="qcurve" smooth="yes"/>
      <point x="451" y="1070" type="line" smooth="yes"/>
      <point x="434" y="1070"/>
      <point x="412" y="1078"/>
      <point x="406.0" y="1089.0" type="qcurve" smooth="yes" name="inserted"/>
      <point x="400" y="1100"/>
      <point x="400" y="1140"/>
      <point x="406" y="1172" type="qcurve" smooth="yes"/>
      <point x="412" y="1204"/>
      <point x="426" y="1244"/>
      <point x="435.5" y="1255.5" type="qcurve" smooth="yes" name="inserted"/>
      <point x="445" y="1267"/>
      <point x="470" y="1275"/>
      <point x="487" y="1275" type="qcurve" smooth="yes"/>
    </contour>
  </outline>
</glyph>
<glyph name="degree" format="1">
  <advance width="1228"/>
  <unicode hex="00B0"/>
  <outline>
    <contour>
      <point x="581" y="565" type="qcurve" smooth="yes"/>
      <point x="521" y="565"/>
      <point x="420" y="609"/>
      <point x="382.5" y="647.0" type="qcurve" smooth="yes" name="inserted"/>
      <point x="345" y="685"/>
      <point x="303" y="786"/>
      <point x="303" y="844" type="qcurve" smooth="yes"/>
      <point x="303" y="910"/>
      <point x="358" y="1041"/>
      <point x="407.5" y="1092.5" type="qcurve" smooth="yes" name="inserted"/>
      <point x="457" y="1144"/>
      <point x="594" y="1209"/>
      <point x="675" y="1209" type="qcurve" smooth="yes"/>
      <point x="735" y="1209"/>
      <point x="836" y="1165"/>
      <point x="873.5" y="1127.0" type="qcurve" smooth="yes" name="inserted"/>
      <point x="911" y="1089"/>
      <point x="953" y="988"/>
      <point x="953" y="930" type="qcurve" smooth="yes"/>
      <point x="953" y="860"/>
      <point x="895" y="728"/>
      <point x="844.5" y="677.0" type="qcurve" smooth="yes" name="inserted"/>
      <point x="794" y="626"/>
      <point x="658" y="565"/>
    </contour>
    <contour>
      <point x="608" y="776" type="qcurve" smooth="yes"/>
      <point x="633" y="776"/>
      <point x="681" y="797"/>
      <point x="699.5" y="815.0" type="qcurve" smooth="yes" name="inserted"/>
      <point x="718" y="833"/>
      <point x="741" y="880"/>
      <point x="741" y="906" type="qcurve" smooth="yes"/>
      <point x="741" y="945"/>
      <point x="688" y="998"/>
      <point x="647" y="998" type="qcurve" smooth="yes"/>
      <point x="622" y="998"/>
      <point x="574" y="977"/>
      <point x="555.5" y="959.0" type="qcurve" smooth="yes" name="inserted"/>
      <point x="537" y="941"/>
      <point x="515" y="893"/>
      <point x="515" y="867" type="qcurve" smooth="yes"/>
      <point x="515" y="829"/>
      <point x="567" y="776"/>
    </contour>
  </outline>
</glyph>
<glyph name="plusminus" format="1">
  <advance width="1228"/>
  <unicode hex="00B1"/>
  <outline>
    <contour>
      <point x="272" y="620" type="line" smooth="yes"/>
      <point x="255" y="620"/>
      <point x="233" y="628"/>
      <point x="227.5" y="640.0" type="qcurve" smooth="yes" name="inserted"/>
      <point x="222" y="652"/>
      <point x="223" y="696"/>
      <point x="229" y="732" type="qcurve" smooth="yes"/>
      <point x="235" y="768"/>
      <point x="249" y="812"/>
      <point x="259.0" y="824.0" type="qcurve" smooth="yes" name="inserted"/>
      <point x="269" y="836"/>
      <point x="294" y="845"/>
      <point x="311" y="845" type="qcurve" smooth="yes"/>
      <point x="579" y="845" type="line"/>
      <point x="618" y="1063" type="line" smooth="yes"/>
      <point x="621" y="1080"/>
      <point x="634" y="1104"/>
      <point x="647.5" y="1111.5" type="qcurve" smooth="yes" name="inserted"/>
      <point x="661" y="1119"/>
      <point x="706" y="1126"/>
      <point x="742" y="1126" type="qcurve" smooth="yes"/>
      <point x="778" y="1126"/>
      <point x="820" y="1119"/>
      <point x="831.0" y="1111.5" type="qcurve" smooth="yes" name="inserted"/>
      <point x="842" y="1104"/>
      <point x="846" y="1080"/>
      <point x="843" y="1063" type="qcurve" smooth="yes"/>
      <point x="804" y="845" type="line"/>
      <point x="1073" y="845" type="line" smooth="yes"/>
      <point x="1090" y="845"/>
      <point x="1112" y="836"/>
      <point x="1117.5" y="824.0" type="qcurve" smooth="yes" name="inserted"/>
      <point x="1123" y="812"/>
      <point x="1123" y="768"/>
      <point x="1117" y="732" type="qcurve" smooth="yes"/>
      <point x="1111" y="696"/>
      <point x="1096" y="652"/>
      <point x="1086.0" y="640.0" type="qcurve" smooth="yes" name="inserted"/>
      <point x="1076" y="628"/>
      <point x="1051" y="620"/>
      <point x="1034" y="620" type="qcurve" smooth="yes"/>
      <point x="765" y="620" type="line"/>
      <point x="726" y="401" type="line" smooth="yes"/>
      <point x="723" y="384"/>
      <point x="711" y="360"/>
      <point x="697.5" y="352.5" type="qcurve" smooth="yes" name="inserted"/>
      <point x="684" y="345"/>
      <point x="639" y="338"/>
      <point x="603" y="338" type="qcurve" smooth="yes"/>
      <point x="567" y="338"/>
      <point x="524" y="345"/>
      <point x="513.0" y="352.5" type="qcurve" smooth="yes" name="inserted"/>
      <point x="502" y="360"/>
      <point x="498" y="384"/>
      <point x="501" y="401" type="qcurve" smooth="yes"/>
      <point x="540" y="620" type="line"/>
    </contour>
    <contour>
      <point x="964" y="225" type="line" smooth="yes"/>
      <point x="981" y="225"/>
      <point x="1003" y="216"/>
      <point x="1008.5" y="204.0" type="qcurve" smooth="yes" name="inserted"/>
      <point x="1014" y="192"/>
      <point x="1013" y="148"/>
      <point x="1007" y="112" type="qcurve" smooth="yes"/>
      <point x="1001" y="76"/>
      <point x="986" y="32"/>
      <point x="976.5" y="20.0" type="qcurve" smooth="yes" name="inserted"/>
      <point x="967" y="8"/>
      <point x="942" y="0"/>
      <point x="925" y="0" type="qcurve" smooth="yes"/>
      <point x="163" y="0" type="line" smooth="yes"/>
      <point x="146" y="0"/>
      <point x="123" y="8"/>
      <point x="117.5" y="20.0" type="qcurve" smooth="yes" name="inserted"/>
      <point x="112" y="32"/>
      <point x="113" y="76"/>
      <point x="119" y="112" type="qcurve" smooth="yes"/>
      <point x="125" y="148"/>
      <point x="140" y="192"/>
      <point x="150.0" y="204.0" type="qcurve" smooth="yes" name="inserted"/>
      <point x="160" y="216"/>
      <point x="185" y="225"/>
      <point x="202" y="225" type="qcurve" smooth="yes"/>
    </contour>
  </outline>
</glyph>
<glyph name="cedilla" format="2">
  <advance width="1228"/>
  <unicode hex="00B8"/>
  <outline>
    <contour>
      <point x="618" y="28" type="line"/>
      <point x="597" y="-93" type="line"/>
      <point x="646" y="-92"/>
      <point x="720" y="-114"/>
      <point x="744.0" y="-135.0" type="qcurve" smooth="yes"/>
      <point x="768" y="-156"/>
      <point x="792" y="-215"/>
      <point x="792" y="-250" type="qcurve" smooth="yes"/>
      <point x="792" y="-282"/>
      <point x="770" y="-360"/>
      <point x="744" y="-389" type="qcurve" smooth="yes"/>
      <point x="708.5" y="-430.5"/>
      <point x="580.0" y="-472.0"/>
      <point x="487" y="-472" type="qcurve" smooth="yes"/>
      <point x="415" y="-472"/>
      <point x="288" y="-451"/>
      <point x="239" y="-431" type="qcurve" smooth="yes"/>
      <point x="219" y="-423"/>
      <point x="221" y="-376"/>
      <point x="235" y="-346" type="qcurve" smooth="yes"/>
      <point x="248" y="-317"/>
      <point x="284" y="-280"/>
      <point x="304" y="-288" type="qcurve" smooth="yes"/>
      <point x="340" y="-303"/>
      <point x="411" y="-322"/>
      <point x="461" y="-322" type="qcurve" smooth="yes"/>
      <point x="517" y="-322"/>
      <point x="557" y="-283"/>
      <point x="557" y="-258" type="qcurve" smooth="yes"/>
      <point x="557" y="-226"/>
      <point x="489" y="-212"/>
      <point x="439" y="-221" type="qcurve" smooth="yes"/>
      <point x="425" y="-223"/>
      <point x="402" y="-206"/>
      <point x="407" y="-180" type="qcurve" smooth="yes"/>
      <point x="443" y="28" type="line"/>
    </contour>
  </outline>
</glyph>
<glyph name="onesuperior" format="2">
  <advance width="1228"/>
  <unicode hex="00B9"/>
  <outline>
    <contour>
      <point x="667" y="1108" type="line"/>
      <point x="509" y="1058" type="line" smooth="yes"/>
      <point x="480" y="1049"/>
      <point x="441" y="1069"/>
      <point x="428" y="1117" type="qcurve" smooth="yes"/>
      <point x="417.0" y="1157.5"/>
      <point x="439.0" y="1208.5"/>
      <point x="472" y="1219" type="qcurve" smooth="yes"/>
      <point x="817" y="1329" type="line" smooth="yes"/>
      <point x="834" y="1334"/>
      <point x="864" y="1334"/>
      <point x="874.5" y="1328.0" type="qcurve" smooth="yes"/>
      <point x="885" y="1322"/>
      <point x="895" y="1296"/>
      <point x="891" y="1275" type="qcurve" smooth="yes"/>
      <point x="782" y="653" type="line"/>
      <point x="973" y="653" type="line" smooth="yes"/>
      <point x="1001" y="653"/>
      <point x="1018" y="613"/>
      <point x="1010" y="568" type="qcurve" smooth="yes"/>
      <point x="1002" y="523"/>
      <point x="971" y="483"/>
      <point x="943" y="483" type="qcurve" smooth="yes"/>
      <point x="379" y="483" type="line" smooth="yes"/>
      <point x="350" y="483"/>
      <point x="335" y="523"/>
      <point x="343" y="568" type="qcurve" smooth="yes"/>
      <point x="351" y="613"/>
      <point x="381" y="653"/>
      <point x="409" y="653" type="qcurve" smooth="yes"/>
      <point x="587" y="653" type="line"/>
    </contour>
  </outline>
</glyph>
<glyph name="AE" format="2">
  <advance width="1228"/>
  <unicode hex="00C6"/>
  <outline>
    <contour>
      <point x="388" y="982" type="line"/>
      <point x="286" y="982" type="line" smooth="yes"/>
      <point x="269" y="982"/>
      <point x="247" y="990"/>
      <point x="241.0" y="1001.0" type="qcurve" smooth="yes"/>
      <point x="235" y="1012"/>
      <point x="235" y="1052"/>
      <point x="241" y="1084" type="qcurve" smooth="yes"/>
      <point x="247" y="1116"/>
      <point x="261" y="1156"/>
      <point x="270.5" y="1167.5" type="qcurve" smooth="yes"/>
      <point x="280" y="1179"/>
      <point x="305" y="1187"/>
      <point x="322" y="1187" type="qcurve" smooth="yes"/>
      <point x="1234" y="1187" type="line" smooth="yes"/>
      <point x="1269" y="1187"/>
      <point x="1293" y="1157"/>
      <point x="1287" y="1122" type="qcurve" smooth="yes"/>
      <point x="1239" y="850" type="line" smooth="yes"/>
      <point x="1233" y="816"/>
      <point x="1176" y="787"/>
      <point x="1116" y="787" type="qcurve" smooth="yes"/>
      <point x="1056" y="787"/>
      <point x="1023" y="816"/>
      <point x="1029" y="850" type="qcurve" smooth="yes"/>
      <point x="1051" y="972" type="line"/>
      <point x="881" y="972" type="line"/>
      <point x="838" y="729" type="line"/>
      <point x="952" y="729" type="line" smooth="yes"/>
      <point x="969" y="729"/>
      <point x="991" y="719"/>
      <point x="996.5" y="707.0" type="qcurve" smooth="yes"/>
      <point x="1002" y="695"/>
      <point x="1002" y="653"/>
      <point x="996" y="621" type="qcurve" smooth="yes"/>
      <point x="990" y="589"/>
      <point x="976" y="548"/>
      <point x="966.0" y="536.0" type="qcurve" smooth="yes"/>
      <point x="956" y="524"/>
      <point x="931" y="514"/>
      <point x="914" y="514" type="qcurve" smooth="yes"/>
      <point x="800" y="514" type="line"/>
      <point x="747" y="215" type="line"/>
      <point x="927" y="215" type="line"/>
      <point x="958" y="387" type="line" smooth="yes"/>
      <point x="964" y="421"/>
      <point x="1021" y="450"/>
      <point x="1085" y="450" type="qcurve" smooth="yes"/>
      <point x="1117" y="450"/>
      <point x="1156" y="443"/>
      <point x="1166.5" y="435.5" type="qcurve" smooth="yes"/>
      <point x="1177" y="428"/>
      <point x="1181" y="404"/>
      <point x="1178" y="387" type="qcurve" smooth="yes"/>
      <point x="1121" y="65" type="line" smooth="yes"/>
      <point x="1115" y="30"/>
      <point x="1080" y="0"/>
      <point x="1045" y="0" type="qcurve" smooth="yes"/>
      <point x="545" y="0" type="line" smooth="yes"/>
      <point x="510" y="0"/>
      <point x="485" y="30"/>
      <point x="491" y="65" type="qcurve" smooth="yes"/>
      <point x="538" y="330" type="line"/>
      <point x="341" y="330" type="line"/>
      <point x="287" y="205" type="line"/>
      <point x="328" y="205" type="line" smooth="yes"/>
      <point x="345" y="205"/>
      <point x="367" y="197"/>
      <point x="372.5" y="185.5" type="qcurve" smooth="yes"/>
      <point x="378" y="174"/>
      <point x="378" y="134"/>
      <point x="372" y="102" type="qcurve" smooth="yes"/>
      <point x="366" y="70"/>
      <point x="353" y="30"/>
      <point x="343.5" y="19.0" type="qcurve" smooth="yes"/>
      <point x="334" y="8"/>
      <point x="309" y="0"/>
      <point x="292" y="0" type="qcurve" smooth="yes"/>
      <point x="-37" y="0" type="line" smooth="yes"/>
      <point x="-54" y="0"/>
      <point x="-76" y="8"/>
      <point x="-82.0" y="19.0" type="qcurve" smooth="yes"/>
      <point x="-88" y="30"/>
      <point x="-88" y="70"/>
      <point x="-82" y="102" type="qcurve" smooth="yes"/>
      <point x="-77" y="134"/>
      <point x="-63" y="174"/>
      <point x="-53.0" y="185.5" type="qcurve" smooth="yes"/>
      <point x="-43" y="197"/>
      <point x="-18" y="205"/>
      <point x="-1" y="205" type="qcurve" smooth="yes"/>
      <point x="52" y="205" type="line"/>
    </contour>
    <contour>
      <point x="576" y="545" type="line"/>
      <point x="651" y="972" type="line"/>
      <point x="599" y="972" type="line"/>
      <point x="431" y="545" type="line"/>
    </contour>
  </outline>
</glyph>
<glyph name="multiply" format="2">
  <advance width="1228"/>
  <unicode hex="00D7"/>
  <outline>
    <contour>
      <point x="486" y="597" type="line"/>
      <point x="314" y="803" type="line" smooth="yes"/>
      <point x="303" y="816"/>
      <point x="294" y="839"/>
      <point x="298.5" y="852.5" type="qcurve" smooth="yes"/>
      <point x="303" y="866"/>
      <point x="332" y="900"/>
      <point x="359" y="923" type="qcurve" smooth="yes"/>
      <point x="386" y="946"/>
      <point x="425" y="969"/>
      <point x="439.5" y="971.0" type="qcurve" smooth="yes"/>
      <point x="454" y="973"/>
      <point x="476" y="960"/>
      <point x="487" y="947" type="qcurve" smooth="yes"/>
      <point x="658" y="742" type="line"/>
      <point x="896" y="943" type="line" smooth="yes"/>
      <point x="909" y="954"/>
      <point x="933" y="962"/>
      <point x="946.5" y="957.5" type="qcurve" smooth="yes"/>
      <point x="960" y="953"/>
      <point x="994" y="924"/>
      <point x="1017" y="897" type="qcurve" smooth="yes"/>
      <point x="1040" y="870"/>
      <point x="1063" y="831"/>
      <point x="1064.5" y="817.0" type="qcurve" smooth="yes"/>
      <point x="1066" y="803"/>
      <point x="1053" y="781"/>
      <point x="1040" y="770" type="qcurve" smooth="yes"/>
      <point x="802" y="569" type="line"/>
      <point x="975" y="362" type="line" smooth="yes"/>
      <point x="986" y="349"/>
      <point x="994" y="325"/>
      <point x="989.5" y="311.5" type="qcurve" smooth="yes"/>
      <point x="985" y="298"/>
      <point x="956" y="264"/>
      <point x="929" y="241" type="qcurve" smooth="yes"/>
      <point x="902" y="218"/>
      <point x="863" y="195"/>
      <point x="849.0" y="193.5" type="qcurve" smooth="yes"/>
      <point x="835" y="192"/>
      <point x="813" y="205"/>
      <point x="802" y="218" type="qcurve" smooth="yes"/>
      <point x="630" y="424" type="line"/>
      <point x="391" y="222" type="line" smooth="yes"/>
      <point x="378" y="211"/>
      <point x="355" y="202"/>
      <point x="341.5" y="206.5" type="qcurve" smooth="yes"/>
      <point x="328" y="211"/>
      <point x="294" y="240"/>
      <point x="271" y="267" type="qcurve" smooth="yes"/>
      <point x="248" y="294"/>
      <point x="225" y="333"/>
      <point x="223.0" y="347.5" type="qcurve" smooth="yes"/>
      <point x="221" y="362"/>
      <point x="234" y="384"/>
      <point x="247" y="395" type="qcurve" smooth="yes"/>
    </contour>
  </outline>
</glyph>
<glyph name="Oslash" format="2">
  <advance width="1228"/>
  <unicode hex="00D8"/>
  <outline>
    <contour>
      <point x="560" y="-22" type="qcurve" smooth="yes"/>
      <point x="480" y="-22"/>
      <point x="344" y="16"/>
      <point x="288" y="52" type="qcurve"/>
      <point x="249" y="7" type="line" smooth="yes"/>
      <point x="237" y="-7"/>
      <point x="214" y="-22"/>
      <point x="201.0" y="-22.0" type="qcurve" smooth="yes"/>
      <point x="188" y="-22"/>
      <point x="157" y="-7"/>
      <point x="137" y="9" type="qcurve" smooth="yes"/>
      <point x="96" y="41"/>
      <point x="91" y="86"/>
      <point x="115" y="114" type="qcurve" smooth="yes"/>
      <point x="167" y="174" type="line"/>
      <point x="129" y="234"/>
      <point x="88" y="383"/>
      <point x="88" y="471" type="qcurve" smooth="yes"/>
      <point x="88" y="530"/>
      <point x="107" y="658"/>
      <point x="125.5" y="721.0" type="qcurve" smooth="yes"/>
      <point x="144" y="784"/>
      <point x="199" y="904"/>
      <point x="235" y="956" type="qcurve" smooth="yes"/>
      <point x="322" y="1080"/>
      <point x="577" y="1209"/>
      <point x="737" y="1209" type="qcurve" smooth="yes"/>
      <point x="817" y="1209"/>
      <point x="953" y="1170"/>
      <point x="1009" y="1134" type="qcurve"/>
      <point x="1049" y="1180" type="line" smooth="yes"/>
      <point x="1061" y="1193"/>
      <point x="1083" y="1208"/>
      <point x="1096.0" y="1208.5" type="qcurve" smooth="yes"/>
      <point x="1109" y="1209"/>
      <point x="1140" y="1194"/>
      <point x="1160" y="1178" type="qcurve" smooth="yes"/>
      <point x="1201" y="1146"/>
      <point x="1206" y="1101"/>
      <point x="1182" y="1073" type="qcurve" smooth="yes"/>
      <point x="1129" y="1013" type="line"/>
      <point x="1168" y="953"/>
      <point x="1209" y="804"/>
      <point x="1209" y="716" type="qcurve" smooth="yes"/>
      <point x="1209" y="657"/>
      <point x="1190" y="529"/>
      <point x="1171.5" y="466.0" type="qcurve" smooth="yes"/>
      <point x="1153" y="403"/>
      <point x="1098" y="283"/>
      <point x="1062" y="231" type="qcurve" smooth="yes"/>
      <point x="975" y="107"/>
      <point x="720" y="-22"/>
    </contour>
    <contour>
      <point x="353" y="467" type="qcurve" smooth="yes"/>
      <point x="353.0" y="446.5"/>
      <point x="356.0" y="409.0"/>
      <point x="359" y="392" type="qcurve"/>
      <point x="847" y="949" type="line"/>
      <point x="821.5" y="965.5"/>
      <point x="756.5" y="982.0"/>
      <point x="717" y="982" type="qcurve" smooth="yes"/>
      <point x="636" y="982"/>
      <point x="509" y="914"/>
      <point x="462" y="849" type="qcurve" smooth="yes"/>
      <point x="435" y="811"/>
      <point x="394" y="717"/>
      <point x="380.5" y="666.5" type="qcurve" smooth="yes"/>
      <point x="367" y="616"/>
      <point x="353" y="513"/>
    </contour>
    <contour>
      <point x="580" y="205" type="qcurve" smooth="yes"/>
      <point x="661" y="205"/>
      <point x="788" y="273"/>
      <point x="835" y="338" type="qcurve" smooth="yes"/>
      <point x="862" y="376"/>
      <point x="903" y="470"/>
      <point x="916.5" y="520.5" type="qcurve" smooth="yes"/>
      <point x="930" y="571"/>
      <point x="944" y="673"/>
      <point x="944" y="720" type="qcurve" smooth="yes"/>
      <point x="944.0" y="739.5"/>
      <point x="941.0" y="776.5"/>
      <point x="938" y="794" type="qcurve"/>
      <point x="450" y="237" type="line"/>
      <point x="476.0" y="221.0"/>
      <point x="541.0" y="205.0"/>
    </contour>
  </outline>
</glyph>
<glyph name="Thorn" format="2">
  <advance width="1228"/>
  <unicode hex="00DE"/>
  <outline>
    <contour>
      <point x="433" y="982" type="line"/>
      <point x="286" y="982" type="line" smooth="yes"/>
      <point x="269" y="982"/>
      <point x="247" y="990"/>
      <point x="241.0" y="1001.0" type="qcurve" smooth="yes"/>
      <point x="235" y="1012"/>
      <point x="235" y="1052"/>
      <point x="241" y="1084" type="qcurve" smooth="yes"/>
      <point x="247" y="1116"/>
      <point x="261" y="1156"/>
      <point x="270.5" y="1167.5" type="qcurve" smooth="yes"/>
      <point x="280" y="1179"/>
      <point x="305" y="1187"/>
      <point x="322" y="1187" type="qcurve" smooth="yes"/>
      <point x="906" y="1187" type="line" smooth="yes"/>
      <point x="923" y="1187"/>
      <point x="945" y="1179"/>
      <point x="951.0" y="1167.5" type="qcurve" smooth="yes"/>
      <point x="957" y="1156"/>
      <point x="957" y="1116"/>
      <point x="951" y="1084" type="qcurve" smooth="yes"/>
      <point x="945" y="1052"/>
      <point x="931" y="1012"/>
      <point x="921.5" y="1001.0" type="qcurve" smooth="yes"/>
      <point x="912" y="990"/>
      <point x="887" y="982"/>
      <point x="870" y="982" type="qcurve" smooth="yes"/>
      <point x="683" y="982" type="line"/>
      <point x="667" y="896" type="line"/>
      <point x="807" y="896" type="line" smooth="yes"/>
      <point x="889" y="896"/>
      <point x="1008" y="859"/>
      <point x="1047.0" y="825.5" type="qcurve" smooth="yes"/>
      <point x="1086" y="792"/>
      <point x="1123" y="699"/>
      <point x="1123" y="643" type="qcurve" smooth="yes"/>
      <point x="1123" y="614"/>
      <point x="1114" y="550"/>
      <point x="1103.5" y="518.5" type="qcurve" smooth="yes"/>
      <point x="1093" y="487"/>
      <point x="1061" y="427"/>
      <point x="1038" y="403" type="qcurve" smooth="yes"/>
      <point x="986.0" y="347.0"/>
      <point x="817.5" y="291.0"/>
      <point x="701" y="291" type="qcurve" smooth="yes"/>
      <point x="561" y="291" type="line"/>
      <point x="546" y="205" type="line"/>
      <point x="733" y="205" type="line" smooth="yes"/>
      <point x="750" y="205"/>
      <point x="772" y="197"/>
      <point x="777.5" y="185.5" type="qcurve" smooth="yes"/>
      <point x="783" y="174"/>
      <point x="783" y="134"/>
      <point x="777" y="102" type="qcurve" smooth="yes"/>
      <point x="771" y="70"/>
      <point x="758" y="30"/>
      <point x="748.5" y="19.0" type="qcurve" smooth="yes"/>
      <point x="739" y="8"/>
      <point x="714" y="0"/>
      <point x="697" y="0" type="qcurve" smooth="yes"/>
      <point x="113" y="0" type="line" smooth="yes"/>
      <point x="96" y="0"/>
      <point x="73" y="8"/>
      <point x="67.5" y="19.0" type="qcurve" smooth="yes"/>
      <point x="62" y="30"/>
      <point x="61" y="70"/>
      <point x="67" y="102" type="qcurve" smooth="yes"/>
      <point x="73" y="134"/>
      <point x="87" y="174"/>
      <point x="96.5" y="185.5" type="qcurve" smooth="yes"/>
      <point x="106" y="197"/>
      <point x="132" y="205"/>
      <point x="149" y="205" type="qcurve" smooth="yes"/>
      <point x="296" y="205" type="line"/>
    </contour>
    <contour>
      <point x="706" y="496" type="line" smooth="yes"/>
      <point x="753.0" y="496.0"/>
      <point x="818.0" y="515.5"/>
      <point x="836" y="535" type="qcurve" smooth="yes"/>
      <point x="850" y="550"/>
      <point x="865" y="595"/>
      <point x="865" y="617" type="qcurve" smooth="yes"/>
      <point x="865" y="656"/>
      <point x="804" y="691"/>
      <point x="740" y="691" type="qcurve" smooth="yes"/>
      <point x="631" y="691" type="line"/>
      <point x="597" y="496" type="line"/>
    </contour>
  </outline>
</glyph>
<glyph name="germandbls" format="2">
  <advance width="1228"/>
  <unicode hex="00DF"/>
  <outline>
    <contour>
      <point x="282" y="877" type="line" smooth="yes"/>
      <point x="300" y="977"/>
      <point x="380" y="1140"/>
      <point x="441.5" y="1197.5" type="qcurve" smooth="yes"/>
      <point x="503" y="1255"/>
      <point x="666" y="1317"/>
      <point x="765" y="1317" type="qcurve" smooth="yes"/>
      <point x="852" y="1317"/>
      <point x="985" y="1269"/>
      <point x="1029.5" y="1227.0" type="qcurve" smooth="yes"/>
      <point x="1074" y="1185"/>
      <point x="1120" y="1069"/>
      <point x="1120" y="1002" type="qcurve" smooth="yes"/>
      <point x="1120" y="889"/>
      <point x="1021" y="721"/>
      <point x="912" y="668" type="qcurve"/>
      <point x="993" y="636"/>
      <point x="1076" y="507"/>
      <point x="1076" y="418" type="qcurve" smooth="yes"/>
      <point x="1076" y="378"/>
      <point x="1060" y="293"/>
      <point x="1044.0" y="252.0" type="qcurve" smooth="yes"/>
      <point x="1028" y="211"/>
      <point x="980" y="135"/>
      <point x="948" y="104" type="qcurve" smooth="yes"/>
      <point x="880" y="38"/>
      <point x="690" y="-22"/>
      <point x="575" y="-22" type="qcurve" smooth="yes"/>
      <point x="537" y="-22"/>
      <point x="508" y="27"/>
      <point x="513" y="91" type="qcurve" smooth="yes"/>
      <point x="518" y="155"/>
      <point x="551" y="205"/>
      <point x="585" y="205" type="qcurve" smooth="yes"/>
      <point x="646.0" y="205.0"/>
      <point x="735.5" y="241.0"/>
      <point x="764" y="277" type="qcurve" smooth="yes"/>
      <point x="787" y="306"/>
      <point x="813" y="386"/>
      <point x="813" y="422" type="qcurve" smooth="yes"/>
      <point x="813" y="484"/>
      <point x="733" y="549"/>
      <point x="658" y="549" type="qcurve" smooth="yes"/>
      <point x="624" y="549"/>
      <point x="604" y="597"/>
      <point x="615" y="661" type="qcurve" smooth="yes"/>
      <point x="621" y="693"/>
      <point x="635" y="735"/>
      <point x="645.0" y="748.0" type="qcurve" smooth="yes"/>
      <point x="655" y="761"/>
      <point x="681" y="773"/>
      <point x="698" y="774" type="qcurve" smooth="yes"/>
      <point x="748" y="778"/>
      <point x="814" y="818"/>
      <point x="834.0" y="847.0" type="qcurve" smooth="yes"/>
      <point x="854" y="876"/>
      <point x="871" y="943"/>
      <point x="871" y="973" type="qcurve" smooth="yes"/>
      <point x="871" y="1024"/>
      <point x="808" y="1090"/>
      <point x="737" y="1090" type="qcurve" smooth="yes"/>
      <point x="656" y="1090"/>
      <point x="550" y="980"/>
      <point x="532" y="874" type="qcurve" smooth="yes"/>
      <point x="389" y="63" type="line" smooth="yes"/>
      <point x="383" y="29"/>
      <point x="349" y="0"/>
      <point x="315" y="0" type="qcurve" smooth="yes"/>
      <point x="191" y="0" type="line" smooth="yes"/>
      <point x="157" y="0"/>
      <point x="133" y="29"/>
      <point x="139" y="63" type="qcurve" smooth="yes"/>
    </contour>
  </outline>
</glyph>
<glyph name="ae" format="2">
  <advance width="1228"/>
  <unicode hex="00E6"/>
  <outline>
    <contour>
      <point x="507" y="390" type="line"/>
      <point x="488.0" y="391.5"/>
      <point x="453.5" y="393.0"/>
      <point x="438" y="393" type="qcurve" smooth="yes"/>
      <point x="339" y="393"/>
      <point x="238" y="332"/>
      <point x="238" y="260" type="qcurve" smooth="yes"/>
      <point x="238" y="227"/>
      <point x="279" y="189"/>
      <point x="321" y="189" type="qcurve" smooth="yes"/>
      <point x="357" y="189"/>
      <point x="417" y="215"/>
      <point x="440.5" y="237.5" type="qcurve" smooth="yes"/>
      <point x="464" y="260"/>
      <point x="496" y="322"/>
      <point x="502" y="358" type="qcurve" smooth="yes"/>
    </contour>
    <contour>
      <point x="997" y="565" type="line"/>
      <point x="1005" y="637"/>
      <point x="965" y="719"/>
      <point x="914" y="719" type="qcurve" smooth="yes"/>
      <point x="853" y="719"/>
      <point x="777" y="643"/>
      <point x="753" y="565" type="qcurve"/>
    </contour>
    <contour>
      <point x="1093" y="49" type="qcurve" smooth="yes"/>
      <point x="1020" y="20"/>
      <point x="870" y="-22"/>
      <point x="789" y="-22" type="qcurve" smooth="yes"/>
      <point x="706" y="-22"/>
      <point x="599" y="43"/>
      <point x="570" y="102" type="qcurve"/>
      <point x="511" y="39"/>
      <point x="356" y="-22"/>
      <point x="271" y="-22" type="qcurve" smooth="yes"/>
      <point x="211" y="-22"/>
      <point x="114" y="12"/>
      <point x="79.0" y="43.5" type="qcurve" smooth="yes"/>
      <point x="44" y="75"/>
      <point x="6" y="165"/>
      <point x="6" y="221" type="qcurve" smooth="yes"/>
      <point x="6" y="307"/>
      <point x="65" y="443"/>
      <point x="121.5" y="490.5" type="qcurve" smooth="yes"/>
      <point x="178" y="538"/>
      <point x="340" y="588"/>
      <point x="442" y="588" type="qcurve" smooth="yes"/>
      <point x="466.0" y="588.0"/>
      <point x="515.5" y="585.0"/>
      <point x="541" y="582" type="qcurve"/>
      <point x="542" y="588" type="line" smooth="yes"/>
      <point x="553" y="651"/>
      <point x="495" y="719"/>
      <point x="421" y="719" type="qcurve" smooth="yes"/>
      <point x="374" y="719"/>
      <point x="282" y="689"/>
      <point x="236" y="667" type="qcurve" smooth="yes"/>
      <point x="207" y="653"/>
      <point x="159" y="682"/>
      <point x="137" y="740" type="qcurve" smooth="yes"/>
      <point x="118" y="788"/>
      <point x="134" y="847"/>
      <point x="162" y="862" type="qcurve" smooth="yes"/>
      <point x="238" y="903"/>
      <point x="396" y="946"/>
      <point x="469" y="946" type="qcurve" smooth="yes"/>
      <point x="554" y="946"/>
      <point x="663" y="897"/>
      <point x="694" y="852" type="qcurve"/>
      <point x="742" y="896"/>
      <point x="864" y="946"/>
      <point x="934" y="946" type="qcurve" smooth="yes"/>
      <point x="1010" y="946"/>
      <point x="1118" y="898"/>
      <point x="1152.0" y="854.5" type="qcurve" smooth="yes"/>
      <point x="1186" y="811"/>
      <point x="1217" y="689"/>
      <point x="1217" y="614" type="qcurve" smooth="yes"/>
      <point x="1217" y="572"/>
      <point x="1207" y="481"/>
      <point x="1199" y="432" type="qcurve" smooth="yes"/>
      <point x="1193" y="398"/>
      <point x="1159" y="370"/>
      <point x="1125" y="370" type="qcurve" smooth="yes"/>
      <point x="719" y="370" type="line"/>
      <point x="715" y="289"/>
      <point x="767" y="205"/>
      <point x="824" y="205" type="qcurve" smooth="yes"/>
      <point x="880" y="205"/>
      <point x="980" y="232"/>
      <point x="1040" y="255" type="qcurve" smooth="yes"/>
      <point x="1057" y="262"/>
      <point x="1084" y="262"/>
      <point x="1095.0" y="253.5" type="qcurve" smooth="yes"/>
      <point x="1106" y="245"/>
      <point x="1124" y="209"/>
      <point x="1132" y="179" type="qcurve" smooth="yes"/>
      <point x="1140" y="149"/>
      <point x="1144" y="106"/>
      <point x="1139.5" y="91.0" type="qcurve" smooth="yes"/>
      <point x="1135" y="76"/>
      <point x="1112" y="56"/>
    </contour>
  </outline>
</glyph>
<glyph name="eth" format="2">
  <advance width="1228"/>
  <unicode hex="00F0"/>
  <outline>
    <contour>
      <point x="582" y="1108" type="line"/>
      <point x="565" y="1119"/>
      <point x="531" y="1139"/>
      <point x="514" y="1149" type="qcurve" smooth="yes"/>
      <point x="485" y="1165"/>
      <point x="495" y="1226"/>
      <point x="540" y="1277" type="qcurve" smooth="yes"/>
      <point x="564" y="1304"/>
      <point x="602" y="1337"/>
      <point x="617.5" y="1344.0" type="qcurve" smooth="yes"/>
      <point x="633" y="1351"/>
      <point x="661" y="1348"/>
      <point x="676" y="1340" type="qcurve" smooth="yes"/>
      <point x="721" y="1315"/>
      <point x="801" y="1261"/>
      <point x="836" y="1231" type="qcurve"/>
      <point x="1002" y="1312" type="line" smooth="yes"/>
      <point x="1018" y="1320"/>
      <point x="1042" y="1323"/>
      <point x="1051.5" y="1317.0" type="qcurve" smooth="yes"/>
      <point x="1061" y="1311"/>
      <point x="1080" y="1283"/>
      <point x="1091" y="1259" type="qcurve" smooth="yes"/>
      <point x="1102" y="1236"/>
      <point x="1110" y="1203"/>
      <point x="1108.0" y="1191.0" type="qcurve" smooth="yes"/>
      <point x="1106" y="1179"/>
      <point x="1087" y="1161"/>
      <point x="1071" y="1153" type="qcurve" smooth="yes"/>
      <point x="964" y="1101" type="line"/>
      <point x="1047" y="995"/>
      <point x="1129" y="750"/>
      <point x="1129" y="613" type="qcurve" smooth="yes"/>
      <point x="1129" y="571"/>
      <point x="1121" y="486"/>
      <point x="1113" y="442" type="qcurve" smooth="yes"/>
      <point x="1093" y="329"/>
      <point x="996" y="156"/>
      <point x="923.5" y="97.5" type="qcurve" smooth="yes"/>
      <point x="851" y="39"/>
      <point x="662" y="-22"/>
      <point x="550" y="-22" type="qcurve" smooth="yes"/>
      <point x="450" y="-22"/>
      <point x="292" y="35"/>
      <point x="236.5" y="86.0" type="qcurve" smooth="yes"/>
      <point x="181" y="137"/>
      <point x="122" y="277"/>
      <point x="122" y="359" type="qcurve" smooth="yes"/>
      <point x="122" y="412"/>
      <point x="148" y="529"/>
      <point x="175.5" y="585.0" type="qcurve" smooth="yes"/>
      <point x="203" y="641"/>
      <point x="288" y="743"/>
      <point x="347.5" y="781.5" type="qcurve" smooth="yes"/>
      <point x="407" y="820"/>
      <point x="560" y="866"/>
      <point x="656" y="866" type="qcurve" smooth="yes"/>
      <point x="712.5" y="866.0"/>
      <point x="810.5" y="838.5"/>
      <point x="852" y="811" type="qcurve"/>
      <point x="829" y="862"/>
      <point x="766" y="949"/>
      <point x="730" y="987" type="qcurve"/>
      <point x="567" y="908" type="line" smooth="yes"/>
      <point x="534" y="892"/>
      <point x="494" y="912"/>
      <point x="472" y="960" type="qcurve" smooth="yes"/>
      <point x="461" y="984"/>
      <point x="454" y="1018"/>
      <point x="457.5" y="1030.0" type="qcurve" smooth="yes"/>
      <point x="461" y="1042"/>
      <point x="481" y="1059"/>
      <point x="498" y="1067" type="qcurve" smooth="yes"/>
    </contour>
    <contour>
      <point x="656" y="639" type="qcurve" smooth="yes"/>
      <point x="586" y="639"/>
      <point x="486" y="590"/>
      <point x="453.5" y="552.0" type="qcurve" smooth="yes"/>
      <point x="421" y="514"/>
      <point x="390" y="420"/>
      <point x="390" y="375" type="qcurve" smooth="yes"/>
      <point x="390" y="294"/>
      <point x="490" y="205"/>
      <point x="580" y="205" type="qcurve" smooth="yes"/>
      <point x="647" y="205"/>
      <point x="747" y="251"/>
      <point x="780.0" y="288.5" type="qcurve" smooth="yes"/>
      <point x="813" y="326"/>
      <point x="846" y="421"/>
      <point x="846" y="470" type="qcurve" smooth="yes"/>
      <point x="846" y="551"/>
      <point x="745" y="639"/>
    </contour>
  </outline>
</glyph>
<glyph name="thorn" format="2">
  <advance width="1228"/>
  <unicode hex="00FE"/>
  <outline>
    <contour>
      <point x="322" y="1107" type="line"/>
      <point x="235" y="1107" type="line" smooth="yes"/>
      <point x="218" y="1107"/>
      <point x="196" y="1115"/>
      <point x="190.0" y="1126.0" type="qcurve" smooth="yes"/>
      <point x="184" y="1137"/>
      <point x="184" y="1177"/>
      <point x="190" y="1209" type="qcurve" smooth="yes"/>
      <point x="196" y="1241"/>
      <point x="210" y="1281"/>
      <point x="219.5" y="1292.5" type="qcurve" smooth="yes"/>
      <point x="229" y="1304"/>
      <point x="254" y="1312"/>
      <point x="271" y="1312" type="qcurve" smooth="yes"/>
      <point x="545" y="1312" type="line" smooth="yes"/>
      <point x="579" y="1312"/>
      <point x="603" y="1283"/>
      <point x="597" y="1249" type="qcurve" smooth="yes"/>
      <point x="524" y="835" type="line"/>
      <point x="584" y="889"/>
      <point x="723" y="946"/>
      <point x="796" y="946" type="qcurve" smooth="yes"/>
      <point x="882" y="946"/>
      <point x="1018" y="887"/>
      <point x="1064.5" y="835.5" type="qcurve" smooth="yes"/>
      <point x="1111" y="784"/>
      <point x="1160" y="642"/>
      <point x="1160" y="559" type="qcurve" smooth="yes"/>
      <point x="1160" y="495"/>
      <point x="1132" y="363"/>
      <point x="1104.0" y="302.0" type="qcurve" smooth="yes"/>
      <point x="1076" y="241"/>
      <point x="992" y="134"/>
      <point x="935.0" y="94.0" type="qcurve" smooth="yes"/>
      <point x="878" y="54"/>
      <point x="736" y="8"/>
      <point x="651" y="8" type="qcurve" smooth="yes"/>
      <point x="568" y="8"/>
      <point x="441" y="78"/>
      <point x="400" y="133" type="qcurve"/>
      <point x="343" y="-188" type="line"/>
      <point x="590" y="-188" type="line" smooth="yes"/>
      <point x="607" y="-188"/>
      <point x="629" y="-196"/>
      <point x="635.0" y="-207.5" type="qcurve" smooth="yes"/>
      <point x="641" y="-219"/>
      <point x="641" y="-259"/>
      <point x="635" y="-291" type="qcurve" smooth="yes"/>
      <point x="629" y="-323"/>
      <point x="615" y="-363"/>
      <point x="605.5" y="-374.0" type="qcurve" smooth="yes"/>
      <point x="596" y="-385"/>
      <point x="571" y="-393"/>
      <point x="554" y="-393" type="qcurve" smooth="yes"/>
      <point x="-30" y="-393" type="line" smooth="yes"/>
      <point x="-47" y="-393"/>
      <point x="-69" y="-385"/>
      <point x="-74.5" y="-374.0" type="qcurve" smooth="yes"/>
      <point x="-80" y="-363"/>
      <point x="-80" y="-323"/>
      <point x="-74" y="-291" type="qcurve" smooth="yes"/>
      <point x="-69" y="-259"/>
      <point x="-55" y="-219"/>
      <point x="-45.5" y="-207.5" type="qcurve" smooth="yes"/>
      <point x="-36" y="-196"/>
      <point x="-11" y="-188"/>
      <point x="6" y="-188" type="qcurve" smooth="yes"/>
      <point x="93" y="-188" type="line"/>
    </contour>
    <contour>
      <point x="726" y="719" type="qcurve" smooth="yes"/>
      <point x="657" y="719"/>
      <point x="553" y="666"/>
      <point x="518.5" y="623.5" type="qcurve" smooth="yes"/>
      <point x="484" y="581"/>
      <point x="449" y="474"/>
      <point x="449" y="420" type="qcurve" smooth="yes"/>
      <point x="449" y="373"/>
      <point x="478" y="304"/>
      <point x="504.0" y="281.0" type="qcurve" smooth="yes"/>
      <point x="530" y="258"/>
      <point x="600" y="235"/>
      <point x="641" y="235" type="qcurve" smooth="yes"/>
      <point x="706" y="235"/>
      <point x="801" y="292"/>
      <point x="832.0" y="336.5" type="qcurve" smooth="yes"/>
      <point x="863" y="381"/>
      <point x="893" y="490"/>
      <point x="893" y="542" type="qcurve" smooth="yes"/>
      <point x="893" y="629"/>
      <point x="804" y="719"/>
    </contour>
  </outline>
</glyph>
<glyph name="aogonek" format="1">
  <advance width="1228"/>
  <unicode hex="0105"/>
  <outline>
    <contour>
      <point x="785" y="127" type="qcurve"/>
      <point x="711" y="50"/>
      <point x="542" y="-22"/>
      <point x="454" y="-22" type="qcurve" smooth="yes"/>
      <point x="366" y="-22"/>
      <point x="228" y="41"/>
      <point x="180.5" y="95.0" type="qcurve" smooth="yes" name="inserted"/>
      <point x="133" y="149"/>
      <point x="83" y="296"/>
      <point x="83" y="380" type="qcurve" smooth="yes"/>
      <point x="83" y="443"/>
      <point x="111" y="576"/>
      <point x="139.0" y="639.0" type="qcurve" smooth="yes" name="inserted"/>
      <point x="167" y="702"/>
      <point x="251" y="813"/>
      <point x="308.0" y="855.0" type="qcurve" smooth="yes" name="inserted"/>
      <point x="365" y="897"/>
      <point x="507" y="946"/>
      <point x="594" y="946" type="qcurve" smooth="yes"/>
      <point x="691" y="946"/>
      <point x="840" y="856"/>
      <point x="878" y="777" type="qcurve"/>
      <point x="894" y="871" type="line" smooth="yes"/>
      <point x="900" y="905"/>
      <point x="960" y="934"/>
      <point x="1017" y="934" type="qcurve" smooth="yes"/>
      <point x="1073" y="934"/>
      <point x="1110" y="905"/>
      <point x="1104" y="871" type="qcurve" smooth="yes"/>
      <point x="1002" y="290" type="line" smooth="yes"/>
      <point x="994" y="250"/>
      <point x="1021" y="205"/>
      <point x="1053" y="205" type="qcurve" smooth="yes"/>
      <point x="1082" y="205" type="line" smooth="yes"/>
      <point x="1099" y="205"/>
      <point x="1121" y="197"/>
      <point x="1126.5" y="185.5" type="qcurve" smooth="yes" name="inserted"/>
      <point x="1132" y="174"/>
      <point x="1132" y="134"/>
      <point x="1126" y="102" type="qcurve" smooth="yes"/>
      <point x="1121" y="73"/>
      <point x="1108" y="34"/>
      <point x="1100.0" y="22.5" type="qcurve" smooth="yes" name="inserted"/>
      <point x="1092" y="11"/>
      <point x="1070" y="1"/>
      <point x="1056" y="0" type="qcurve"/>
      <point x="1013" y="-32"/>
      <point x="939" y="-93"/>
      <point x="912.0" y="-123.0" type="qcurve" smooth="yes" name="inserted"/>
      <point x="885" y="-153"/>
      <point x="855" y="-209"/>
      <point x="855" y="-235" type="qcurve" smooth="yes"/>
      <point x="855" y="-269"/>
      <point x="896" y="-298"/>
      <point x="933" y="-298" type="qcurve" smooth="yes"/>
      <point x="962" y="-298"/>
      <point x="1022" y="-290"/>
      <point x="1052" y="-285" type="qcurve" smooth="yes"/>
      <point x="1073.5" y="-281.0" name="inserted"/>
      <point x="1099.5" y="-313.5"/>
      <point x="1104" y="-350" type="qcurve" smooth="yes"/>
      <point x="1109" y="-388"/>
      <point x="1087" y="-429"/>
      <point x="1064" y="-436" type="qcurve" smooth="yes"/>
      <point x="1014" y="-452"/>
      <point x="887" y="-472"/>
      <point x="827" y="-472" type="qcurve" smooth="yes"/>
      <point x="722" y="-472"/>
      <point x="605" y="-381"/>
      <point x="605" y="-300" type="qcurve" smooth="yes"/>
      <point x="605" y="-249"/>
      <point x="645" y="-160"/>
      <point x="680.5" y="-121.0" type="qcurve" smooth="yes" name="inserted"/>
      <point x="716" y="-82"/>
      <point x="811" y="-14"/>
      <point x="866" y="16" type="qcurve"/>
      <point x="835" y="30"/>
      <point x="792" y="83"/>
    </contour>
    <contour>
      <point x="514" y="205" type="qcurve" smooth="yes"/>
      <point x="581" y="205"/>
      <point x="686" y="263"/>
      <point x="722.0" y="308.5" type="qcurve" smooth="yes" name="inserted"/>
      <point x="758" y="354"/>
      <point x="795" y="467"/>
      <point x="795" y="522" type="qcurve" smooth="yes"/>
      <point x="795" y="570"/>
      <point x="766" y="644"/>
      <point x="740.5" y="668.5" type="qcurve" smooth="yes" name="inserted"/>
      <point x="715" y="693"/>
      <point x="645" y="719"/>
      <point x="604" y="719" type="qcurve" smooth="yes"/>
      <point x="536" y="719"/>
      <point x="439" y="653"/>
      <point x="408.0" y="603.5" type="qcurve" smooth="yes" name="inserted"/>
      <point x="377" y="554"/>
      <point x="349" y="439"/>
      <point x="349" y="391" type="qcurve" smooth="yes"/>
      <point x="349" y="304"/>
      <point x="435" y="205"/>
    </contour>
  </outline>
</glyph>
<glyph name="dcaron" format="1">
  <advance width="1228"/>
  <unicode hex="010F"/>
  <outline>
    <contour>
      <point x="384" y="-22" type="qcurve" smooth="yes"/>
      <point x="310" y="-22"/>
      <point x="196" y="34"/>
      <point x="157.0" y="83.0" type="qcurve" smooth="yes" name="inserted"/>
      <point x="118" y="132"/>
      <point x="78" y="267"/>
      <point x="78" y="347" type="qcurve" smooth="yes"/>
      <point x="78" y="398"/>
      <point x="95" y="509"/>
      <point x="112.5" y="563.5" type="qcurve" smooth="yes" name="inserted"/>
      <point x="130" y="618"/>
      <point x="182" y="720"/>
      <point x="217" y="762" type="qcurve" smooth="yes"/>
      <point x="277" y="835"/>
      <point x="440" y="916"/>
      <point x="539" y="916" type="qcurve" smooth="yes"/>
      <point x="611" y="916"/>
      <point x="709" y="856"/>
      <point x="742" y="801" type="qcurve"/>
      <point x="796" y="1107" type="line"/>
      <point x="629" y="1107" type="line" smooth="yes"/>
      <point x="612" y="1107"/>
      <point x="590" y="1115"/>
      <point x="584.0" y="1126.0" type="qcurve" smooth="yes" name="inserted"/>
      <point x="578" y="1137"/>
      <point x="578" y="1177"/>
      <point x="584" y="1209" type="qcurve" smooth="yes"/>
      <point x="590" y="1241"/>
      <point x="604" y="1281"/>
      <point x="613.5" y="1292.5" type="qcurve" smooth="yes" name="inserted"/>
      <point x="623" y="1304"/>
      <point x="648" y="1312"/>
      <point x="665" y="1312" type="qcurve" smooth="yes"/>
      <point x="1019" y="1312" type="line" smooth="yes"/>
      <point x="1053" y="1312"/>
      <point x="1077" y="1283"/>
      <point x="1071" y="1249" type="qcurve" smooth="yes"/>
      <point x="887" y="205" type="line"/>
      <point x="974" y="205" type="line" smooth="yes"/>
      <point x="991" y="205"/>
      <point x="1013" y="197"/>
      <point x="1019.0" y="186.0" type="qcurve" smooth="yes" name="inserted"/>
      <point x="1025" y="175"/>
      <point x="1025" y="135"/>
      <point x="1019" y="103" type="qcurve" smooth="yes"/>
      <point x="1013" y="71"/>
      <point x="999" y="31"/>
      <point x="989.5" y="19.5" type="qcurve" smooth="yes" name="inserted"/>
      <point x="980" y="8"/>
      <point x="955" y="0"/>
      <point x="938" y="0" type="qcurve" smooth="yes"/>
      <point x="704" y="0" type="line" smooth="yes"/>
      <point x="670" y="0"/>
      <point x="646" y="29"/>
      <point x="652" y="63" type="qcurve" smooth="yes"/>
      <point x="664" y="132" type="line"/>
      <point x="606" y="58"/>
      <point x="473" y="-22"/>
    </contour>
    <contour>
      <point x="464" y="205" type="qcurve" smooth="yes"/>
      <point x="514" y="205"/>
      <point x="599" y="252"/>
      <point x="631" y="300" type="qcurve" smooth="yes"/>
      <point x="662" y="347"/>
      <point x="693" y="469"/>
      <point x="693" y="522" type="qcurve" smooth="yes"/>
      <point x="693" y="607"/>
      <point x="615" y="689"/>
      <point x="549" y="689" type="qcurve" smooth="yes"/>
      <point x="509.5" y="689.0" name="inserted"/>
      <point x="442.5" y="649.5"/>
      <point x="415" y="610" type="qcurve" smooth="yes"/>
      <point x="398" y="585"/>
      <point x="372" y="524"/>
      <point x="363.0" y="491.5" type="qcurve" smooth="yes" name="inserted"/>
      <point x="354" y="459"/>
      <point x="345" y="394"/>
      <point x="345" y="366" type="qcurve" smooth="yes"/>
      <point x="345" y="288"/>
      <point x="408" y="205"/>
    </contour>
    <contour>
      <point x="1279" y="867" type="line" smooth="yes"/>
      <point x="1260" y="840"/>
      <point x="1217" y="817"/>
      <point x="1182" y="817" type="qcurve" smooth="yes"/>
      <point x="1140" y="817"/>
      <point x="1114" y="850"/>
      <point x="1128" y="888" type="qcurve" smooth="yes"/>
      <point x="1267" y="1279" type="line" smooth="yes"/>
      <point x="1273.5" y="1295.5" name="inserted"/>
      <point x="1298.0" y="1312.0"/>
      <point x="1316" y="1312" type="qcurve" smooth="yes"/>
      <point x="1530" y="1312" type="line" smooth="yes"/>
      <point x="1550" y="1312"/>
      <point x="1558" y="1282"/>
      <point x="1544" y="1260" type="qcurve" smooth="yes"/>
    </contour>
  </outline>
</glyph>
<glyph name="eogonek" format="2">
  <advance width="1228"/>
  <unicode hex="0119"/>
  <outline>
    <contour>
      <point x="385" y="329" type="line"/>
      <point x="400" y="267"/>
      <point x="494" y="205"/>
      <point x="570" y="205" type="qcurve" smooth="yes"/>
      <point x="651" y="205"/>
      <point x="830" y="230"/>
      <point x="935" y="260" type="qcurve" smooth="yes"/>
      <point x="952" y="265"/>
      <point x="978" y="263"/>
      <point x="988.0" y="253.5" type="qcurve" smooth="yes"/>
      <point x="998" y="244"/>
      <point x="1013" y="206"/>
      <point x="1019" y="176" type="qcurve" smooth="yes"/>
      <point x="1030" y="123"/>
      <point x="1017" y="71"/>
      <point x="991" y="57" type="qcurve" smooth="yes"/>
      <point x="987" y="55"/>
      <point x="976" y="48"/>
      <point x="966.5" y="41.0" type="qcurve" smooth="yes"/>
      <point x="957" y="34"/>
      <point x="927" y="12"/>
      <point x="905" y="-4" type="qcurve" smooth="yes"/>
      <point x="863" y="-36"/>
      <point x="791" y="-96"/>
      <point x="764.5" y="-125.5" type="qcurve" smooth="yes"/>
      <point x="738" y="-155"/>
      <point x="709" y="-210"/>
      <point x="709" y="-235" type="qcurve" smooth="yes"/>
      <point x="709" y="-269"/>
      <point x="750" y="-298"/>
      <point x="787" y="-298" type="qcurve" smooth="yes"/>
      <point x="816" y="-298"/>
      <point x="876" y="-290"/>
      <point x="906" y="-285" type="qcurve" smooth="yes"/>
      <point x="927.5" y="-281.0"/>
      <point x="953.5" y="-313.5"/>
      <point x="958" y="-350" type="qcurve" smooth="yes"/>
      <point x="963" y="-388"/>
      <point x="941" y="-429"/>
      <point x="918" y="-436" type="qcurve" smooth="yes"/>
      <point x="868" y="-452"/>
      <point x="741" y="-472"/>
      <point x="681" y="-472" type="qcurve" smooth="yes"/>
      <point x="576" y="-472"/>
      <point x="459" y="-381"/>
      <point x="459" y="-300" type="qcurve" smooth="yes"/>
      <point x="459" y="-255"/>
      <point x="490" y="-175"/>
      <point x="518.0" y="-140.0" type="qcurve" smooth="yes"/>
      <point x="546" y="-105"/>
      <point x="622" y="-42"/>
      <point x="667" y="-14" type="qcurve"/>
      <point x="632" y="-18"/>
      <point x="564" y="-22"/>
      <point x="530" y="-22" type="qcurve" smooth="yes"/>
      <point x="432" y="-22"/>
      <point x="280" y="39"/>
      <point x="228.5" y="92.5" type="qcurve" smooth="yes"/>
      <point x="177" y="146"/>
      <point x="123" y="293"/>
      <point x="123" y="379" type="qcurve" smooth="yes"/>
      <point x="123" y="431"/>
      <point x="141" y="536"/>
      <point x="159.0" y="586.5" type="qcurve" smooth="yes"/>
      <point x="177" y="637"/>
      <point x="232" y="731"/>
      <point x="269" y="772" type="qcurve" smooth="yes"/>
      <point x="345" y="855"/>
      <point x="562" y="946"/>
      <point x="700" y="946" type="qcurve" smooth="yes"/>
      <point x="788" y="946"/>
      <point x="932" y="901"/>
      <point x="983.0" y="860.0" type="qcurve" smooth="yes"/>
      <point x="1034" y="819"/>
      <point x="1089" y="706"/>
      <point x="1089" y="637" type="qcurve" smooth="yes"/>
      <point x="1089" y="599"/>
      <point x="1069" y="512"/>
      <point x="1044" y="475" type="qcurve" smooth="yes"/>
      <point x="1015" y="432"/>
      <point x="913" y="382"/>
      <point x="838" y="374" type="qcurve" smooth="yes"/>
    </contour>
    <contour>
      <point x="670" y="719" type="qcurve" smooth="yes"/>
      <point x="567" y="719"/>
      <point x="429" y="619"/>
      <point x="398" y="516" type="qcurve"/>
      <point x="747" y="551" type="line" smooth="yes"/>
      <point x="792" y="556"/>
      <point x="825" y="598"/>
      <point x="825" y="624" type="qcurve" smooth="yes"/>
      <point x="825" y="641"/>
      <point x="807" y="675"/>
      <point x="788.0" y="688.5" type="qcurve" smooth="yes"/>
      <point x="769" y="702"/>
      <point x="710" y="719"/>
    </contour>
  </outline>
</glyph>
<glyph name="Iogonek" format="2">
  <advance width="1228"/>
  <unicode hex="012E"/>
  <outline>
    <contour>
      <point x="431" y="-472" type="qcurve" smooth="yes"/>
      <point x="326" y="-472"/>
      <point x="209" y="-381"/>
      <point x="209" y="-300" type="qcurve" smooth="yes"/>
      <point x="209" y="-252"/>
      <point x="244" y="-168"/>
      <point x="275.5" y="-131.0" type="qcurve" smooth="yes"/>
      <point x="307" y="-94"/>
      <point x="391" y="-29"/>
      <point x="441" y="0" type="qcurve"/>
      <point x="183" y="0" type="line" smooth="yes"/>
      <point x="166" y="0"/>
      <point x="143" y="8"/>
      <point x="137.5" y="19.0" type="qcurve" smooth="yes"/>
      <point x="132" y="30"/>
      <point x="131" y="70"/>
      <point x="137" y="102" type="qcurve" smooth="yes"/>
      <point x="143" y="134"/>
      <point x="157" y="174"/>
      <point x="166.5" y="185.5" type="qcurve" smooth="yes"/>
      <point x="176" y="197"/>
      <point x="202" y="205"/>
      <point x="219" y="205" type="qcurve" smooth="yes"/>
      <point x="455" y="205" type="line"/>
      <point x="592" y="982" type="line"/>
      <point x="336" y="982" type="line" smooth="yes"/>
      <point x="319" y="982"/>
      <point x="297" y="990"/>
      <point x="291.0" y="1001.0" type="qcurve" smooth="yes"/>
      <point x="285" y="1012"/>
      <point x="285" y="1052"/>
      <point x="291" y="1084" type="qcurve" smooth="yes"/>
      <point x="297" y="1116"/>
      <point x="311" y="1156"/>
      <point x="320.5" y="1167.5" type="qcurve" smooth="yes"/>
      <point x="330" y="1179"/>
      <point x="355" y="1187"/>
      <point x="372" y="1187" type="qcurve" smooth="yes"/>
      <point x="1114" y="1187" type="line" smooth="yes"/>
      <point x="1131" y="1187"/>
      <point x="1153" y="1179"/>
      <point x="1159.0" y="1167.5" type="qcurve" smooth="yes"/>
      <point x="1165" y="1156"/>
      <point x="1165" y="1116"/>
      <point x="1159" y="1084" type="qcurve" smooth="yes"/>
      <point x="1153" y="1052"/>
      <point x="1139" y="1012"/>
      <point x="1129.5" y="1001.0" type="qcurve" smooth="yes"/>
      <point x="1120" y="990"/>
      <point x="1095" y="982"/>
      <point x="1078" y="982" type="qcurve" smooth="yes"/>
      <point x="842" y="982" type="line"/>
      <point x="705" y="205" type="line"/>
      <point x="961" y="205" type="line" smooth="yes"/>
      <point x="978" y="205"/>
      <point x="1000" y="197"/>
      <point x="1005.5" y="185.5" type="qcurve" smooth="yes"/>
      <point x="1011" y="174"/>
      <point x="1011" y="134"/>
      <point x="1005" y="102" type="qcurve" smooth="yes"/>
      <point x="999" y="70"/>
      <point x="986" y="30"/>
      <point x="976.5" y="19.0" type="qcurve" smooth="yes"/>
      <point x="967" y="8"/>
      <point x="942" y="0"/>
      <point x="925" y="0" type="qcurve" smooth="yes"/>
      <point x="660" y="0" type="line"/>
      <point x="617" y="-32"/>
      <point x="543" y="-94"/>
      <point x="516.0" y="-123.5" type="qcurve" smooth="yes"/>
      <point x="489" y="-153"/>
      <point x="459" y="-209"/>
      <point x="459" y="-235" type="qcurve" smooth="yes"/>
      <point x="459" y="-269"/>
      <point x="500" y="-298"/>
      <point x="537" y="-298" type="qcurve" smooth="yes"/>
      <point x="566" y="-298"/>
      <point x="626" y="-290"/>
      <point x="656" y="-285" type="qcurve" smooth="yes"/>
      <point x="677.5" y="-281.0"/>
      <point x="703.5" y="-313.5"/>
      <point x="708" y="-350" type="qcurve" smooth="yes"/>
      <point x="713" y="-388"/>
      <point x="691" y="-429"/>
      <point x="668" y="-436" type="qcurve" smooth="yes"/>
      <point x="618" y="-452"/>
      <point x="491" y="-472"/>
    </contour>
  </outline>
</glyph>
